<?xml version="1.0" encoding="UTF-8"?>
<!-- Generated by Pixelmator Pro 3.4.1 -->
<svg width="37" height="54" viewBox="0 0 37 54" xmlns="http://www.w3.org/2000/svg">
    <path id="Path-copy-19" fill="#ffffff" fill-rule="evenodd" stroke="none" d="M 17.577271 6.082916 C 18.40213 7.222656 18.29718 8.781769 17.328491 9.790833 C 16.883057 10.236572 16.32019 10.511963 15.783722 10.81308 C 15.482117 10.983459 15.194427 11.180267 14.945648 11.416016 L 14.91925 11.441711 C 14.867126 11.481384 14.814301 11.533508 14.762207 11.586365 L 14.722565 11.625305 C 14.683685 11.678162 14.644043 11.730316 14.605164 11.782471 C 14.591949 11.795685 14.578735 11.808899 14.565521 11.835327 C 14.513428 11.900696 14.473785 11.966064 14.434906 12.044617 C 14.38205 12.136414 14.34317 12.22821 14.316742 12.320007 C 14.292542 12.319275 14.268311 12.319275 14.244812 12.319275 C 12.208374 12.319275 10.545441 13.955505 10.519775 16.002228 L 10.519775 16.263672 C 10.506561 16.853394 10.715698 17.417389 11.122253 17.862427 C 9.629578 18.373535 8.608063 19.762268 8.581635 21.335327 L 8.581635 21.596741 C 8.581635 22.06897 8.713013 22.527222 8.974243 22.920837 C 7.429474 23.405548 6.369049 24.820709 6.342651 26.44516 L 6.342651 26.694122 C 6.329437 27.192017 6.473267 27.663483 6.761658 28.069611 L 6.761658 28.069611 L 5.701233 28.057129 C 5.693176 28.056396 5.685089 28.056396 5.677032 28.056396 C 5.33432 28.056396 5.059113 28.327393 5.059113 28.672546 C 5.046661 29.393707 5.609528 29.970184 6.329437 29.983429 L 9.092407 30.035553 L 6.958344 29.996643 L 6.958344 29.996643 L 8.1362 34.477844 C 8.332855 35.224701 9.000671 35.748322 9.773438 35.761536 L 10.009003 36.954193 L 11.920685 46.402008 C 12.090942 47.23996 12.824066 47.85611 13.688568 47.869324 L 17.7211 47.934692 L 20.798187 47.986816 L 20.916321 47.986816 C 21.282532 47.986816 21.636261 47.882538 21.950348 47.68573 C 21.98996 47.659271 22.029602 47.620361 22.068481 47.593933 C 22.147003 47.528564 22.225525 47.463196 22.290833 47.384613 C 22.330475 47.344971 22.356903 47.30603 22.395782 47.266388 C 22.447906 47.187805 22.500732 47.096008 22.552826 47.017426 C 22.631348 46.873505 22.684204 46.729553 22.723083 46.571655 L 24.923187 37.189911 L 25.197662 36.010498 C 25.342224 36.010498 25.486053 35.997284 25.616699 35.958344 C 26.219177 35.814423 26.703552 35.368652 26.873779 34.778931 L 28.183716 30.336639 L 28.825134 30.336639 C 28.833191 30.337402 28.841278 30.337402 28.849335 30.337402 C 29.545776 30.337402 30.121124 29.778534 30.134338 29.066162 C 30.134338 28.725403 29.859131 28.436798 29.519348 28.436798 L 28.471405 28.411102 C 28.759796 28.017456 28.91684 27.54599 28.930054 27.06131 L 28.930054 26.799133 C 28.930054 26.694122 28.930054 26.576599 28.91684 26.471588 C 28.91684 26.458374 28.91684 26.44516 28.91684 26.44516 C 28.903656 26.327667 28.890442 26.222626 28.877228 26.117615 C 28.877228 26.104401 28.877228 26.104401 28.877228 26.091187 C 28.851532 25.986908 28.838318 25.868652 28.798706 25.763641 C 28.484619 24.558533 27.581238 23.601624 26.402649 23.195496 C 26.677856 22.815857 26.8349 22.356842 26.848114 21.885376 L 26.848114 21.623199 C 26.848114 21.439606 26.8349 21.24353 26.808472 21.059937 L 26.808472 21.046692 C 26.795258 20.981323 26.782074 20.928467 26.782074 20.876343 C 26.769592 20.824188 26.769592 20.810974 26.756378 20.771301 C 26.743164 20.732391 26.743164 20.719177 26.743164 20.692749 C 26.441559 19.500824 25.591003 18.517487 24.425629 18.072449 C 24.844666 17.653137 25.080231 17.089844 25.080231 16.500122 L 25.080231 16.237976 C 25.080231 16.132935 25.080231 16.041138 25.080231 15.936127 L 25.080231 15.897217 C 25.080231 15.792175 25.053833 15.700378 25.040619 15.608582 L 25.040619 15.556458 C 25.027405 15.464661 25.001709 15.372864 24.988525 15.267822 L 24.988525 15.255371 C 24.936401 15.058533 24.870361 14.861725 24.778625 14.665649 C 24.333923 13.643372 23.443726 12.870087 22.356903 12.56897 C 22.369385 12.503632 22.382568 12.450745 22.382568 12.398621 C 22.408997 12.188568 22.422211 11.979279 22.422211 11.769226 C 22.408997 11.546722 22.395782 11.310974 22.356903 11.08847 C 22.238739 10.36731 21.976746 9.673309 21.584137 9.057159 C 21.505615 8.938934 21.413879 8.821411 21.335358 8.703186 L 21.282532 8.624634 C 20.353455 7.44519 18.97821 6.685852 17.577271 6.082916 Z"/>
    <path id="Path-copy-18" fill="none" stroke="#ffffff" stroke-width="8" stroke-linejoin="round" d="M 17.577271 6.082916 C 18.40213 7.222656 18.29718 8.781769 17.328491 9.790833 C 16.883057 10.236572 16.32019 10.511963 15.783722 10.81308 C 15.482117 10.983459 15.194427 11.180267 14.945648 11.416016 L 14.91925 11.441711 C 14.867126 11.481384 14.814301 11.533508 14.762207 11.586365 L 14.722565 11.625305 C 14.683685 11.678162 14.644043 11.730316 14.605164 11.782471 C 14.591949 11.795685 14.578735 11.808899 14.565521 11.835327 C 14.513428 11.900696 14.473785 11.966064 14.434906 12.044617 C 14.38205 12.136414 14.34317 12.22821 14.316742 12.320007 C 14.292542 12.319275 14.268311 12.319275 14.244812 12.319275 C 12.208374 12.319275 10.545441 13.955505 10.519775 16.002228 L 10.519775 16.263672 C 10.506561 16.853394 10.715698 17.417389 11.122253 17.862427 C 9.629578 18.373535 8.608063 19.762268 8.581635 21.335327 L 8.581635 21.596741 C 8.581635 22.06897 8.713013 22.527222 8.974243 22.920837 C 7.429474 23.405548 6.369049 24.820709 6.342651 26.44516 L 6.342651 26.694122 C 6.329437 27.192017 6.473267 27.663483 6.761658 28.069611 L 6.761658 28.069611 L 5.701233 28.057129 C 5.693176 28.056396 5.685089 28.056396 5.677032 28.056396 C 5.33432 28.056396 5.059113 28.327393 5.059113 28.672546 C 5.046661 29.393707 5.609528 29.970184 6.329437 29.983429 L 9.092407 30.035553 L 6.958344 29.996643 L 6.958344 29.996643 L 8.1362 34.477844 C 8.332855 35.224701 9.000671 35.748322 9.773438 35.761536 L 10.009003 36.954193 L 11.920685 46.402008 C 12.090942 47.23996 12.824066 47.85611 13.688568 47.869324 L 17.7211 47.934692 L 20.798187 47.986816 L 20.916321 47.986816 C 21.282532 47.986816 21.636261 47.882538 21.950348 47.68573 C 21.98996 47.659271 22.029602 47.620361 22.068481 47.593933 C 22.147003 47.528564 22.225525 47.463196 22.290833 47.384613 C 22.330475 47.344971 22.356903 47.30603 22.395782 47.266388 C 22.447906 47.187805 22.500732 47.096008 22.552826 47.017426 C 22.631348 46.873505 22.684204 46.729553 22.723083 46.571655 L 24.923187 37.189911 L 25.197662 36.010498 C 25.342224 36.010498 25.486053 35.997284 25.616699 35.958344 C 26.219177 35.814423 26.703552 35.368652 26.873779 34.778931 L 28.183716 30.336639 L 28.825134 30.336639 C 28.833191 30.337402 28.841278 30.337402 28.849335 30.337402 C 29.545776 30.337402 30.121124 29.778534 30.134338 29.066162 C 30.134338 28.725403 29.859131 28.436798 29.519348 28.436798 L 28.471405 28.411102 C 28.759796 28.017456 28.91684 27.54599 28.930054 27.06131 L 28.930054 26.799133 C 28.930054 26.694122 28.930054 26.576599 28.91684 26.471588 C 28.91684 26.458374 28.91684 26.44516 28.91684 26.44516 C 28.903656 26.327667 28.890442 26.222626 28.877228 26.117615 C 28.877228 26.104401 28.877228 26.104401 28.877228 26.091187 C 28.851532 25.986908 28.838318 25.868652 28.798706 25.763641 C 28.484619 24.558533 27.581238 23.601624 26.402649 23.195496 C 26.677856 22.815857 26.8349 22.356842 26.848114 21.885376 L 26.848114 21.623199 C 26.848114 21.439606 26.8349 21.24353 26.808472 21.059937 L 26.808472 21.046692 C 26.795258 20.981323 26.782074 20.928467 26.782074 20.876343 C 26.769592 20.824188 26.769592 20.810974 26.756378 20.771301 C 26.743164 20.732391 26.743164 20.719177 26.743164 20.692749 C 26.441559 19.500824 25.591003 18.517487 24.425629 18.072449 C 24.844666 17.653137 25.080231 17.089844 25.080231 16.500122 L 25.080231 16.237976 C 25.080231 16.132935 25.080231 16.041138 25.080231 15.936127 L 25.080231 15.897217 C 25.080231 15.792175 25.053833 15.700378 25.040619 15.608582 L 25.040619 15.556458 C 25.027405 15.464661 25.001709 15.372864 24.988525 15.267822 L 24.988525 15.255371 C 24.936401 15.058533 24.870361 14.861725 24.778625 14.665649 C 24.333923 13.643372 23.443726 12.870087 22.356903 12.56897 C 22.369385 12.503632 22.382568 12.450745 22.382568 12.398621 C 22.408997 12.188568 22.422211 11.979279 22.422211 11.769226 C 22.408997 11.546722 22.395782 11.310974 22.356903 11.08847 C 22.238739 10.36731 21.976746 9.673309 21.584137 9.057159 C 21.505615 8.938934 21.413879 8.821411 21.335358 8.703186 L 21.282532 8.624634 C 20.353455 7.44519 18.97821 6.685852 17.577271 6.082916 Z"/>
    <path id="Path-copy-17" fill="#f0c47f" fill-rule="evenodd" stroke="none" d="M 9.773438 35.77475 L 11.920685 46.41449 C 12.090942 47.253174 12.824066 47.85611 13.688568 47.869324 L 20.916321 47.986816 C 20.925873 47.987549 20.934692 47.987549 20.944214 47.987549 C 21.783752 47.987549 22.528625 47.40152 22.723083 46.571655 L 25.197662 36.010498 L 9.773438 35.77475 Z"/>
    <path id="Path-copy-16" fill="#ffffff" fill-opacity="0.3571" fill-rule="evenodd" stroke="none" d="M 13.405304 38.867249 C 12.891602 38.867249 12.49823 39.332855 12.601715 39.849854 L 13.059631 42.064758 C 13.125702 42.444427 13.465454 42.733032 13.845612 42.733032 L 14.473785 42.745514 C 14.867126 42.745514 15.207642 42.4841 15.286163 42.103668 L 15.809418 39.889496 C 15.927551 39.378387 15.547424 38.893677 15.010986 38.893677 L 13.426575 38.867249 C 13.41922 38.867249 13.412628 38.867249 13.405304 38.867249 Z"/>
    <path id="Path-copy-15" fill="#744242" fill-opacity="0.1741" fill-rule="evenodd" stroke="none" d="M 9.773438 35.696167 L 10.009003 36.896454 L 19.253418 37.041321 C 20.523712 37.067932 21.452789 38.267456 21.1651 39.520935 L 19.528595 46.52301 C 19.33194 47.367035 18.585602 47.947235 17.7211 47.947235 L 20.916321 47.986389 C 20.925873 47.987122 20.935425 47.987122 20.944214 47.987122 C 21.796967 47.987122 22.528625 47.397339 22.723083 46.5755 L 24.923187 37.133698 L 25.197662 35.946716 L 22.003174 35.894257 L 9.773438 35.696167 Z"/>
    <path id="Path-copy-14" fill="#f0c47f" fill-rule="evenodd" stroke="none" d="M 6.958344 30.009125 L 8.1362 34.571228 C 8.332855 35.33371 9.000671 35.868286 9.773438 35.881775 L 25.210876 36.135925 C 25.220398 36.136688 25.230682 36.136688 25.240234 36.136688 C 26.000488 36.136688 26.667572 35.618622 26.886993 34.878632 L 28.196198 30.343506 L 6.958344 30.009125 Z"/>
    <path id="Path-copy-13" fill="#744242" fill-opacity="0.1741" fill-rule="evenodd" stroke="none" d="M 21.492401 36.082703 L 21.492401 36.082703 C 21.496826 36.082703 21.501221 36.082703 21.505615 36.082703 L 21.505615 36.082703 L 21.492401 36.082703 Z M 6.958344 30.009125 L 7.232819 31.079742 L 20.431976 31.293396 C 22.265167 31.306915 23.561157 33.113007 23.050385 34.905609 C 22.856659 35.605103 22.22995 36.082703 21.521759 36.082703 C 21.516632 36.082703 21.510742 36.082703 21.505615 36.082703 L 21.505615 36.082703 L 25.210876 36.135925 C 25.22113 36.136688 25.230682 36.136688 25.240967 36.136688 C 26.001221 36.136688 26.667572 35.631348 26.886993 34.878632 L 28.196198 30.343506 L 6.958344 30.009125 Z"/>
    <path id="Path-copy-12" fill="#ff8fc0" fill-rule="evenodd" stroke="none" d="M 17.577271 6.082916 L 17.577271 6.082916 C 18.40213 7.209473 18.29718 8.781769 17.328491 9.790833 C 16.883057 10.223358 16.32019 10.498779 15.783722 10.81308 C 15.246552 11.12738 14.722565 11.494568 14.434906 12.044617 C 14.13327 12.595428 14.172913 13.354797 14.644043 13.748413 C 16.909454 13.774109 19.632813 13.852692 21.898224 13.87912 C 22.736298 12.411835 22.500732 10.485535 21.570923 9.043945 C 20.654358 7.61557 19.135254 6.764404 17.577271 6.082916 Z"/>
    <path id="Path-copy-11" fill="#744242" fill-opacity="0.1741" fill-rule="evenodd" stroke="none" d="M 21.021271 8.310303 L 21.021271 8.310303 C 21.086578 8.546021 21.138702 8.769287 21.1651 9.01825 C 21.293549 10.240997 20.322632 11.311707 19.097107 11.311707 C 19.075073 11.311707 19.05307 11.311707 19.031036 11.310974 L 15.128387 11.25885 C 14.840729 11.46814 14.605164 11.730316 14.421692 12.044617 C 14.13327 12.595428 14.159698 13.354797 14.644043 13.748413 C 16.909454 13.787323 19.632813 13.852692 21.898224 13.892334 C 22.736298 12.411835 22.500732 10.485535 21.584137 9.057159 C 21.413879 8.794983 21.230408 8.546021 21.021271 8.310303 Z"/>
    <path id="Path-copy-10" fill="#ff8fc0" fill-rule="evenodd" stroke="none" d="M 14.255829 12.306824 C 12.221588 12.306824 10.545441 13.948151 10.506561 16.002228 L 10.506561 16.25119 C 10.480133 17.534882 11.501678 18.596069 12.785187 18.622498 L 22.723083 18.779663 C 22.731171 18.779663 22.739227 18.779663 22.747314 18.779663 C 24.019806 18.779663 25.067047 17.762543 25.093445 16.486938 L 25.093445 16.224731 C 25.119141 14.154541 23.469421 12.450745 21.413879 12.425049 L 14.303528 12.306824 C 14.287384 12.306824 14.27124 12.306824 14.255829 12.306824 Z"/>
    <path id="Path-copy-9" fill="#744242" fill-opacity="0.1741" fill-rule="evenodd" stroke="none" d="M 24.294281 13.865906 L 24.294281 13.865906 C 24.333923 13.970917 24.360321 14.075928 24.386017 14.19342 C 24.477753 14.691345 24.464539 15.215698 24.333923 15.713623 C 24.163666 16.395142 23.547943 16.866577 22.841248 16.866577 L 11.855377 16.670532 C 11.292511 16.657288 10.768524 16.342987 10.519775 15.831848 C 10.519775 15.883972 10.506561 15.936127 10.506561 16.002228 L 10.506561 16.25119 C 10.480133 17.534882 11.514862 18.596069 12.797668 18.609283 L 22.736298 18.766449 C 22.752441 18.767181 22.767853 18.767181 22.783997 18.767181 C 24.045502 18.767181 25.080231 17.741974 25.093445 16.473694 L 25.093445 16.224731 C 25.106659 15.359619 24.818268 14.53418 24.294281 13.865906 Z"/>
    <path id="Path-copy-8" fill="#ff8fc0" fill-rule="evenodd" stroke="none" d="M 12.306702 17.665588 C 10.283447 17.665588 8.620544 19.289307 8.581635 21.335327 L 8.581635 21.596741 C 8.56842 22.881195 9.589966 23.929169 10.873474 23.955597 L 24.490967 24.178101 C 24.499023 24.178864 24.507111 24.178864 24.515167 24.178864 C 25.787689 24.178864 26.821686 23.16098 26.848114 21.885376 L 26.848114 21.623199 C 26.873779 19.552979 25.224091 17.849182 23.155334 17.823486 L 12.378632 17.666321 C 12.355133 17.665588 12.330933 17.665588 12.306702 17.665588 Z"/>
    <path id="Path-copy-7" fill="#744242" fill-opacity="0.1741" fill-rule="evenodd" stroke="none" d="M 25.800171 18.963257 L 25.800171 18.963257 C 25.826569 19.068298 25.852997 19.173279 25.878693 19.290802 C 25.983612 19.801941 25.957214 20.313049 25.826569 20.810974 C 25.658508 21.48291 25.056763 21.963928 24.361786 21.963928 C 24.352264 21.963928 24.343445 21.963928 24.333923 21.963928 L 9.694916 21.714996 C 9.275879 21.701782 8.88327 21.518188 8.594849 21.217102 L 8.594849 21.335327 L 8.594849 21.596741 C 8.56842 22.881195 9.60318 23.942383 10.885956 23.955597 L 24.490967 24.178101 C 24.499023 24.178864 24.507111 24.178864 24.515167 24.178864 C 25.787689 24.178864 26.821686 23.16098 26.848114 21.885376 L 26.848114 21.623199 C 26.860596 20.62738 26.481171 19.671204 25.800171 18.963257 Z"/>
    <path id="Path-copy-6" fill="#ff8fc0" fill-rule="evenodd" stroke="none" d="M 10.027954 22.762939 C 7.983704 22.762939 6.310303 24.351776 6.283905 26.340118 L 6.283905 26.581116 C 6.270721 27.06308 6.427582 27.51947 6.702454 27.9133 L 28.386108 28.242432 C 28.687378 27.862122 28.844238 27.405731 28.857422 26.936554 L 28.857422 26.68277 C 28.883087 24.678802 27.235352 23.029541 25.182281 23.003937 L 10.077087 22.762939 C 10.060211 22.762939 10.044098 22.762939 10.027954 22.762939 Z"/>
    <path id="Path-copy-5" fill="#ffffff" fill-opacity="0.3571" fill-rule="evenodd" stroke="none" d="M 10.624695 23.340179 C 10.205658 23.340179 9.851959 23.667725 9.838745 24.099548 C 9.838745 24.51886 10.17926 24.859619 10.598297 24.872833 L 15.835815 24.951416 C 16.254852 24.951416 16.595367 24.623871 16.608582 24.204559 C 16.608582 23.785217 16.281281 23.431244 15.862244 23.431244 L 10.624695 23.340179 Z"/>
    <path id="Path-copy-4" fill="#ffffff" fill-opacity="0.3571" fill-rule="evenodd" stroke="none" d="M 12.562103 18.229614 C 12.143066 18.229614 11.79007 18.557129 11.79007 18.989685 C 11.776855 19.409027 12.117371 19.749786 12.536407 19.762268 L 15.730896 19.801941 C 15.738953 19.801941 15.746307 19.801941 15.754364 19.801941 C 16.163116 19.801941 16.503632 19.466309 16.503632 19.055054 C 16.503632 18.635742 16.176331 18.294983 15.757294 18.281738 L 12.562103 18.229614 Z"/>
    <path id="Path-copy-3" fill="#ffffff" fill-opacity="0.3571" fill-rule="evenodd" stroke="none" d="M 14.463501 12.948669 C 14.054749 12.948669 13.714233 13.284271 13.714233 13.695526 C 13.701782 14.114868 14.042267 14.455627 14.460571 14.468842 L 15.953979 14.49527 C 16.373016 14.49527 16.726013 14.167725 16.739197 13.748413 C 16.739197 13.329071 16.398712 12.975098 15.979675 12.975098 L 14.487 12.948669 C 14.479675 12.948669 14.471588 12.948669 14.463501 12.948669 Z"/>
    <path id="Path-copy-2" fill="#f0c47f" fill-rule="evenodd" stroke="none" d="M 5.586029 27.819183 C 5.243317 27.819183 4.967377 28.154388 4.967377 28.563416 C 4.954926 29.400543 5.517792 30.09787 6.237701 30.113525 L 28.733398 30.531219 C 29.453308 30.531219 30.042603 29.865143 30.055817 29.02887 C 30.055817 28.610291 29.780609 28.269012 29.427612 28.253387 L 5.609528 27.820038 C 5.60144 27.819183 5.594116 27.819183 5.586029 27.819183 Z"/>
    <path id="Path-copy" fill="#ff8fc0" fill-rule="evenodd" stroke="none" d="M 27.966888 24.261078 C 27.966888 24.29953 27.980072 24.324463 27.993286 24.350098 C 28.085022 24.845795 28.071808 25.353607 27.941193 25.836487 C 27.773132 26.488861 27.158905 26.942535 26.47641 26.942535 C 26.466858 26.942535 26.458069 26.942535 26.448517 26.942535 L 7.540649 26.637726 C 7.043121 26.624878 6.584442 26.383453 6.296783 25.976776 C 6.283569 26.103546 6.270355 26.218231 6.270355 26.345001 L 6.270355 26.586426 C 6.270355 27.056488 6.414185 27.527252 6.689392 27.921112 L 7.9729 27.933929 C 8.430847 27.933929 8.79776 28.302124 8.79776 28.746552 L 8.784546 29.280701 C 8.784546 29.674561 9.098633 29.992188 9.504456 30.005005 C 9.910278 30.005005 10.238312 29.687378 10.250793 29.293518 L 10.250793 28.772186 C 10.250793 28.3349 10.617737 27.983765 11.065399 27.983765 C 11.073456 27.983765 11.080811 27.984497 11.088867 27.984497 C 11.547516 27.984497 11.913727 28.352692 11.913727 28.797821 L 11.848419 32.55899 C 11.835205 33.00412 12.202118 33.372314 12.673279 33.385132 C 12.681335 33.385132 12.689423 33.385132 12.697479 33.385132 C 13.145142 33.385132 13.511322 33.034027 13.524536 32.597443 L 13.57666 28.823456 C 13.589844 28.386169 13.944305 28.035065 14.391235 28.035065 C 14.399292 28.035065 14.406647 28.035065 14.414703 28.035065 L 16.745453 28.073517 C 16.902496 28.073517 17.02063 28.187469 17.007446 28.327759 C 17.007446 28.823456 17.413269 29.229431 17.924011 29.242249 C 18.434784 29.242249 18.853821 28.848389 18.853821 28.352692 C 18.853821 28.213104 18.984436 28.09845 19.129028 28.09845 L 20.909363 28.136902 C 21.393707 28.136902 21.76062 28.517944 21.76062 28.975891 L 21.734222 30.398865 C 21.734222 30.779907 22.035828 31.097534 22.428436 31.097534 C 22.821075 31.097534 23.135895 30.805542 23.148346 30.4245 L 23.16156 29.000793 C 23.174774 28.543579 23.567383 28.175354 24.039276 28.175354 C 24.274841 28.187469 24.470764 28.378326 24.470764 28.606964 C 24.458313 29.013641 24.785614 29.344086 25.20462 29.356903 C 25.623657 29.356903 25.964172 29.039276 25.964172 28.632599 C 25.976654 28.403992 26.17334 28.213104 26.408905 28.213104 L 28.399109 28.251556 C 28.700745 27.869812 28.857788 27.412598 28.871002 26.929718 L 28.871002 26.688293 C 28.883453 25.798737 28.556152 24.934845 27.966888 24.261078 Z"/>
</svg>
