<?xml version="1.0" encoding="UTF-8"?>
<!-- Generated by Pixelmator Pro 3.4.1 -->
<svg width="46" height="53" viewBox="0 0 46 53" xmlns="http://www.w3.org/2000/svg">
    <path id="Path-copy-42" fill="#ffffff" fill-rule="evenodd" stroke="none" d="M 25.560852 6.137756 C 25.172852 6.136719 24.782898 6.191711 24.412292 6.306641 C 23.594482 6.571777 23.624084 7.705933 24.424561 7.975586 C 24.741211 8.076477 25.023987 8.243683 25.25708 8.478088 C 26.139038 9.38089 26.201294 10.882599 25.597961 11.999146 C 25.128235 12.815002 24.409302 13.480591 23.540649 13.878357 C 23.574646 13.744751 23.591858 13.611084 23.592285 13.461487 C 23.592468 13.378296 23.592712 13.294128 23.592957 13.210938 L 23.593201 13.127686 C 23.593262 13.094055 23.57666 13.010803 23.560059 12.944366 L 23.543457 12.844269 C 23.526794 12.793762 23.526917 12.744202 23.510254 12.693665 C 23.49353 12.644043 23.493591 12.627228 23.477783 12.593506 C 23.477905 12.559875 23.444397 12.510223 23.427673 12.459686 L 23.394287 12.359558 C 23.37854 12.309937 23.344971 12.276184 23.328308 12.225677 C 23.311584 12.176086 23.2948 12.15918 23.294861 12.142365 C 23.279053 12.109619 23.228821 12.02533 23.195313 11.975647 L 23.162781 11.908264 C 23.112427 11.858582 23.063049 11.792053 23.029541 11.72464 L 22.946533 11.65802 C 22.929871 11.607483 22.896301 11.574677 22.862732 11.540924 L 22.779724 11.457489 C 22.74707 11.440552 22.713501 11.406799 22.679932 11.373047 L 22.596985 11.289612 L 22.497131 11.222961 L 22.397278 11.156311 C 22.363708 11.122559 22.330078 11.105621 22.297424 11.088715 L 22.180725 11.022003 C 22.435364 9.55481 22.005676 8.068909 21.024231 6.964813 C 20.976685 6.908569 20.919739 6.88504 20.864563 6.884888 C 20.687866 6.884399 20.520813 7.119568 20.672729 7.297607 C 21.520813 8.267639 21.901489 9.553345 21.713806 10.820618 L 21.613892 10.786682 C 21.581177 10.786621 21.547546 10.769684 21.513916 10.769592 C 21.279419 10.710022 21.048523 10.682281 20.82605 10.681671 C 18.773926 10.675964 17.351074 13.01413 18.549988 14.89859 C 17.432495 15.01236 16.313843 15.17569 15.278687 15.589813 C 14.243469 16.020752 13.323486 16.719452 12.903687 17.735535 C 12.567566 18.585388 12.632202 19.553284 13.080627 20.354858 C 13.080627 20.354858 13.096497 20.371704 13.096497 20.371704 C 13.146729 20.455994 13.195984 20.556183 13.263062 20.639587 C 13.379517 20.78949 13.511902 20.923553 13.645264 21.057617 C 13.695618 21.1073 13.761902 21.141174 13.828125 21.191833 C 13.178101 21.273254 12.543762 21.437927 11.942017 21.669983 C 10.572632 22.233704 9.352234 23.381287 9.097595 24.84845 C 9.063354 25.065277 9.062744 25.282196 9.079041 25.4823 L 9.078979 25.499146 C 9.078796 25.565521 9.078613 25.632843 9.095215 25.716095 L 9.095154 25.73291 C 9.094971 25.799316 9.111633 25.865723 9.128296 25.933105 L 9.128235 25.949921 C 9.143921 26.016357 9.160583 26.082794 9.177185 26.166962 C 9.276306 26.500092 9.442749 26.817505 9.642029 27.102295 L 9.674561 27.168762 L 9.758423 27.285858 L 9.8078 27.352386 L 9.907532 27.452698 L 9.974609 27.537018 L 10.057556 27.637299 L 10.106934 27.686981 C 9.055908 27.767303 8.037781 28.098267 7.151794 28.66333 C 6.199158 29.311432 5.496094 30.326721 5.40979 31.461517 L 5.409119 31.694305 C 5.423218 32.345093 5.638428 32.962769 6.004395 33.480804 C 6.104065 33.614777 6.203796 33.731934 6.320313 33.849121 C 6.636353 34.183777 7.052673 34.418671 7.503113 34.486298 L 8.149902 35.906433 L 12.577026 45.610504 C 12.742432 45.978394 12.975281 46.29599 13.240967 46.580017 C 13.407776 46.763733 13.590576 46.93161 13.790222 47.081757 L 13.807068 47.081787 C 13.989929 47.216003 14.206543 47.333466 14.406372 47.417236 L 14.439941 47.434143 C 14.539856 47.484924 14.639832 47.517914 14.7229 47.551819 L 14.773376 47.568787 C 14.890137 47.601807 14.990051 47.635742 15.106873 47.652924 L 15.156433 47.653046 C 15.239563 47.68692 15.3396 47.687225 15.440491 47.704315 L 15.523682 47.720459 C 15.623718 47.720734 15.74054 47.737885 15.857422 47.73819 L 23.446716 47.859253 L 28.383789 47.956116 L 28.784851 47.957245 L 28.901733 47.941681 L 28.984985 47.925079 L 29.085083 47.908508 C 29.151489 47.891876 29.218872 47.875214 29.302124 47.858643 L 29.385376 47.842957 C 29.502319 47.809631 29.636108 47.776337 29.753113 47.727112 C 29.836426 47.693695 29.902893 47.660217 29.986206 47.627716 L 30.003052 47.610931 L 30.136902 47.560822 C 30.237061 47.511536 30.320496 47.444458 30.420654 47.395172 L 30.488098 47.344879 L 30.621155 47.245209 L 30.771912 47.145569 C 30.821594 47.096161 30.872253 47.045807 30.938782 46.99646 L 30.955688 46.96283 L 31.039063 46.896698 C 31.307251 46.61319 31.541809 46.296906 31.726074 45.930908 L 33.957031 41.44928 L 37.177979 34.968628 C 38.965698 33.905823 39.923279 31.456085 39.211609 29.486023 C 39.161499 29.352173 39.09552 29.202393 39.029541 29.068512 L 38.962524 28.951477 C 38.91333 28.834473 38.863098 28.734283 38.796997 28.634064 C 38.780273 28.600342 38.76355 28.567596 38.746765 28.533875 C 38.564331 28.250092 38.381775 27.998993 38.182373 27.764709 L 38.132019 27.715027 C 38.049072 27.614746 37.949341 27.514435 37.832764 27.397247 L 37.799194 27.363495 C 37.433716 26.995026 37.033508 26.693817 36.600403 26.426147 C 35.984436 26.040161 35.334595 25.738251 34.651733 25.536285 C 34.418152 25.469238 34.18457 25.418121 33.93512 25.367859 C 34.153198 24.934662 34.287231 24.467529 34.355835 24.00119 C 34.38916 23.784363 34.406616 23.567505 34.407166 23.350586 C 34.424622 23.133728 34.408386 22.916779 34.39209 22.716644 C 34.343506 22.382751 34.277954 22.065613 34.177856 21.765198 C 34.145508 21.631409 34.095337 21.514404 34.029297 21.380524 L 34.012634 21.330933 C 33.963379 21.213928 33.896423 21.096863 33.830383 20.979797 C 33.13269 19.710083 31.934753 18.806396 30.517395 18.468689 C 30.45105 18.45166 30.366943 18.434601 30.300598 18.434418 C 30.317566 18.384918 30.334473 18.351318 30.351379 18.317688 C 30.351501 18.284027 30.38446 18.200928 30.418213 18.151428 L 30.452209 18.034668 C 30.469238 17.967407 30.502075 17.917938 30.519104 17.851624 L 30.55304 17.751648 L 30.619995 17.534912 L 30.654114 17.384521 C 30.671082 17.318176 30.68811 17.250916 30.704163 17.18457 C 30.721191 17.117279 30.738098 17.084595 30.738281 17.034119 C 30.755188 17.001465 30.755371 16.934143 30.772339 16.884644 C 30.789307 16.834167 30.789429 16.784607 30.805481 16.734192 C 30.805603 16.684631 30.822571 16.634186 30.822693 16.584656 L 30.856812 16.434204 C 30.856934 16.383728 30.873901 16.334229 30.874023 16.283722 C 30.890991 16.234222 30.891113 16.183716 30.907166 16.134216 C 30.941711 15.817383 30.976257 15.483673 30.993958 15.166779 C 31.115906 13.331787 31.021179 11.412964 30.275146 9.70929 C 29.529114 8.005585 28.048462 6.550415 26.231079 6.194794 C 26.010498 6.157715 25.786194 6.138397 25.560852 6.137756 Z"/>
    <path id="Path-copy-41" fill="none" stroke="#ffffff" stroke-width="8" stroke-linejoin="round" d="M 25.560852 6.137756 C 25.172852 6.136719 24.782898 6.191711 24.412292 6.306641 C 23.594482 6.571777 23.624084 7.705933 24.424561 7.975586 C 24.741211 8.076477 25.023987 8.243683 25.25708 8.478088 C 26.139038 9.38089 26.201294 10.882599 25.597961 11.999146 C 25.128235 12.815002 24.409302 13.480591 23.540649 13.878357 C 23.574646 13.744751 23.591858 13.611084 23.592285 13.461487 C 23.592468 13.378296 23.592712 13.294128 23.592957 13.210938 L 23.593201 13.127686 C 23.593262 13.094055 23.57666 13.010803 23.560059 12.944366 L 23.543457 12.844269 C 23.526794 12.793762 23.526917 12.744202 23.510254 12.693665 C 23.49353 12.644043 23.493591 12.627228 23.477783 12.593506 C 23.477905 12.559875 23.444397 12.510223 23.427673 12.459686 L 23.394287 12.359558 C 23.37854 12.309937 23.344971 12.276184 23.328308 12.225677 C 23.311584 12.176086 23.2948 12.15918 23.294861 12.142365 C 23.279053 12.109619 23.228821 12.02533 23.195313 11.975647 L 23.162781 11.908264 C 23.112427 11.858582 23.063049 11.792053 23.029541 11.72464 L 22.946533 11.65802 C 22.929871 11.607483 22.896301 11.574677 22.862732 11.540924 L 22.779724 11.457489 C 22.74707 11.440552 22.713501 11.406799 22.679932 11.373047 L 22.596985 11.289612 L 22.497131 11.222961 L 22.397278 11.156311 C 22.363708 11.122559 22.330078 11.105621 22.297424 11.088715 L 22.180725 11.022003 C 22.435364 9.55481 22.005676 8.068909 21.024231 6.964813 C 20.976685 6.908569 20.919739 6.88504 20.864563 6.884888 C 20.687866 6.884399 20.520813 7.119568 20.672729 7.297607 C 21.520813 8.267639 21.901489 9.553345 21.713806 10.820618 L 21.613892 10.786682 C 21.581177 10.786621 21.547546 10.769684 21.513916 10.769592 C 21.279419 10.710022 21.048523 10.682281 20.82605 10.681671 C 18.773926 10.675964 17.351074 13.01413 18.549988 14.89859 C 17.432495 15.01236 16.313843 15.17569 15.278687 15.589813 C 14.243469 16.020752 13.323486 16.719452 12.903687 17.735535 C 12.567566 18.585388 12.632202 19.553284 13.080627 20.354858 C 13.080627 20.354858 13.096497 20.371704 13.096497 20.371704 C 13.146729 20.455994 13.195984 20.556183 13.263062 20.639587 C 13.379517 20.78949 13.511902 20.923553 13.645264 21.057617 C 13.695618 21.1073 13.761902 21.141174 13.828125 21.191833 C 13.178101 21.273254 12.543762 21.437927 11.942017 21.669983 C 10.572632 22.233704 9.352234 23.381287 9.097595 24.84845 C 9.063354 25.065277 9.062744 25.282196 9.079041 25.4823 L 9.078979 25.499146 C 9.078796 25.565521 9.078613 25.632843 9.095215 25.716095 L 9.095154 25.73291 C 9.094971 25.799316 9.111633 25.865723 9.128296 25.933105 L 9.128235 25.949921 C 9.143921 26.016357 9.160583 26.082794 9.177185 26.166962 C 9.276306 26.500092 9.442749 26.817505 9.642029 27.102295 L 9.674561 27.168762 L 9.758423 27.285858 L 9.8078 27.352386 L 9.907532 27.452698 L 9.974609 27.537018 L 10.057556 27.637299 L 10.106934 27.686981 C 9.055908 27.767303 8.037781 28.098267 7.151794 28.66333 C 6.199158 29.311432 5.496094 30.326721 5.40979 31.461517 L 5.409119 31.694305 C 5.423218 32.345093 5.638428 32.962769 6.004395 33.480804 C 6.104065 33.614777 6.203796 33.731934 6.320313 33.849121 C 6.636353 34.183777 7.052673 34.418671 7.503113 34.486298 L 8.149902 35.906433 L 12.577026 45.610504 C 12.742432 45.978394 12.975281 46.29599 13.240967 46.580017 C 13.407776 46.763733 13.590576 46.93161 13.790222 47.081757 L 13.807068 47.081787 C 13.989929 47.216003 14.206543 47.333466 14.406372 47.417236 L 14.439941 47.434143 C 14.539856 47.484924 14.639832 47.517914 14.7229 47.551819 L 14.773376 47.568787 C 14.890137 47.601807 14.990051 47.635742 15.106873 47.652924 L 15.156433 47.653046 C 15.239563 47.68692 15.3396 47.687225 15.440491 47.704315 L 15.523682 47.720459 C 15.623718 47.720734 15.74054 47.737885 15.857422 47.73819 L 23.446716 47.859253 L 28.383789 47.956116 L 28.784851 47.957245 L 28.901733 47.941681 L 28.984985 47.925079 L 29.085083 47.908508 C 29.151489 47.891876 29.218872 47.875214 29.302124 47.858643 L 29.385376 47.842957 C 29.502319 47.809631 29.636108 47.776337 29.753113 47.727112 C 29.836426 47.693695 29.902893 47.660217 29.986206 47.627716 L 30.003052 47.610931 L 30.136902 47.560822 C 30.237061 47.511536 30.320496 47.444458 30.420654 47.395172 L 30.488098 47.344879 L 30.621155 47.245209 L 30.771912 47.145569 C 30.821594 47.096161 30.872253 47.045807 30.938782 46.99646 L 30.955688 46.96283 L 31.039063 46.896698 C 31.307251 46.61319 31.541809 46.296906 31.726074 45.930908 L 33.957031 41.44928 L 37.177979 34.968628 C 38.965698 33.905823 39.923279 31.456085 39.211609 29.486023 C 39.161499 29.352173 39.09552 29.202393 39.029541 29.068512 L 38.962524 28.951477 C 38.91333 28.834473 38.863098 28.734283 38.796997 28.634064 C 38.780273 28.600342 38.76355 28.567596 38.746765 28.533875 C 38.564331 28.250092 38.381775 27.998993 38.182373 27.764709 L 38.132019 27.715027 C 38.049072 27.614746 37.949341 27.514435 37.832764 27.397247 L 37.799194 27.363495 C 37.433716 26.995026 37.033508 26.693817 36.600403 26.426147 C 35.984436 26.040161 35.334595 25.738251 34.651733 25.536285 C 34.418152 25.469238 34.18457 25.418121 33.93512 25.367859 C 34.153198 24.934662 34.287231 24.467529 34.355835 24.00119 C 34.38916 23.784363 34.406616 23.567505 34.407166 23.350586 C 34.424622 23.133728 34.408386 22.916779 34.39209 22.716644 C 34.343506 22.382751 34.277954 22.065613 34.177856 21.765198 C 34.145508 21.631409 34.095337 21.514404 34.029297 21.380524 L 34.012634 21.330933 C 33.963379 21.213928 33.896423 21.096863 33.830383 20.979797 C 33.13269 19.710083 31.934753 18.806396 30.517395 18.468689 C 30.45105 18.45166 30.366943 18.434601 30.300598 18.434418 C 30.317566 18.384918 30.334473 18.351318 30.351379 18.317688 C 30.351501 18.284027 30.38446 18.200928 30.418213 18.151428 L 30.452209 18.034668 C 30.469238 17.967407 30.502075 17.917938 30.519104 17.851624 L 30.55304 17.751648 L 30.619995 17.534912 L 30.654114 17.384521 C 30.671082 17.318176 30.68811 17.250916 30.704163 17.18457 C 30.721191 17.117279 30.738098 17.084595 30.738281 17.034119 C 30.755188 17.001465 30.755371 16.934143 30.772339 16.884644 C 30.789307 16.834167 30.789429 16.784607 30.805481 16.734192 C 30.805603 16.684631 30.822571 16.634186 30.822693 16.584656 L 30.856812 16.434204 C 30.856934 16.383728 30.873901 16.334229 30.874023 16.283722 C 30.890991 16.234222 30.891113 16.183716 30.907166 16.134216 C 30.941711 15.817383 30.976257 15.483673 30.993958 15.166779 C 31.115906 13.331787 31.021179 11.412964 30.275146 9.70929 C 29.529114 8.005585 28.048462 6.550415 26.231079 6.194794 C 26.010498 6.157715 25.786194 6.138397 25.560852 6.137756 Z"/>
    <path id="Path-copy-40" fill="#f0c47f" fill-rule="evenodd" stroke="none" d="M 25.58313 6.294434 C 25.193237 6.293365 24.807922 6.354919 24.435486 6.470764 C 23.617676 6.719086 23.631348 7.85321 24.447693 8.139709 C 24.764343 8.240631 25.04718 8.407837 25.280273 8.642212 C 26.162231 9.529144 26.224426 11.046753 25.621155 12.146484 C 25.016907 13.262085 23.897644 14.009766 22.69519 14.406586 C 21.509521 14.804382 20.241516 14.90094 18.97345 15.014282 C 17.722229 15.12677 16.454041 15.273804 15.285034 15.753906 C 14.282593 16.169067 13.329773 16.883545 12.910034 17.899628 C 12.093018 19.872009 13.569031 21.987244 15.635193 21.99295 C 15.733398 21.993225 15.833435 21.987885 15.935364 21.978821 C 16.538513 21.920654 17.165894 21.901825 17.806335 21.903595 C 19.281616 21.907684 20.829529 22.022278 22.326294 22.026428 C 23.450073 22.029541 24.545959 21.96994 25.560974 21.754883 C 26.895874 21.475281 28.264771 21.078918 29.25177 20.146698 C 30.522888 18.932892 30.895447 17.081787 31.017151 15.330933 C 31.139099 13.479126 31.027527 11.560242 30.298279 9.873444 C 29.552246 8.169739 28.071655 6.7146 26.254211 6.358948 C 26.029968 6.316223 25.805603 6.295044 25.58313 6.294434 Z"/>
    <path id="Path-copy-39" fill="#744242" fill-rule="evenodd" stroke="none" d="M 25.58313 6.294434 C 25.193237 6.293365 24.807922 6.354919 24.435486 6.470764 C 23.617676 6.719086 23.631348 7.85321 24.447693 8.139709 C 24.764343 8.240631 25.04718 8.407837 25.280273 8.642212 C 26.162231 9.529144 26.224426 11.046753 25.621155 12.146484 C 25.016907 13.262085 23.897644 14.009766 22.69519 14.406586 C 21.509521 14.804382 20.241516 14.90094 18.97345 15.014282 C 17.722229 15.12677 16.454041 15.273804 15.285034 15.753906 C 14.282593 16.169067 13.329773 16.883545 12.910034 17.899628 C 12.093018 19.872009 13.569031 21.987244 15.635193 21.99295 C 15.733398 21.993225 15.833435 21.987885 15.935364 21.978821 C 16.538513 21.920654 17.165894 21.901825 17.806335 21.903595 C 19.281616 21.907684 20.829529 22.022278 22.326294 22.026428 C 23.450073 22.029541 24.545959 21.96994 25.560974 21.754883 C 26.895874 21.475281 28.264771 21.078918 29.25177 20.146698 C 30.522888 18.932892 30.895447 17.081787 31.017151 15.330933 C 31.139099 13.479126 31.027527 11.560242 30.298279 9.873444 C 29.552246 8.169739 28.071655 6.7146 26.254211 6.358948 C 26.029968 6.316223 25.805603 6.295044 25.58313 6.294434 Z"/>
    <path id="Path-copy-38" fill="#d9d9d9" fill-rule="evenodd" stroke="none" d="M 7.486267 34.486267 L 12.577026 45.610504 C 13.173706 46.89679 14.439209 47.717438 15.857361 47.755035 L 28.383789 47.956116 C 28.398743 47.957092 28.412781 47.957153 28.427734 47.957184 C 29.828186 47.96106 31.095337 47.167053 31.726135 45.914063 L 37.177979 34.968628 L 7.486267 34.486267 Z"/>
    <path id="Path-copy-37" fill="#ffffff" fill-opacity="0.1473" fill-rule="evenodd" stroke="none" d="M 23.446716 47.859253 L 23.446716 47.859253 C 23.462646 47.860229 23.479431 47.86026 23.495361 47.860321 L 23.495361 47.860321 L 23.446716 47.859253 Z M 7.486267 34.486267 L 8.133118 35.889557 L 26.948425 36.208099 C 29.083679 36.247681 30.445313 38.470093 29.489197 40.385986 L 26.789063 45.833099 C 26.163879 47.073914 24.899597 47.864197 23.530884 47.860413 C 23.519653 47.860382 23.507507 47.860352 23.495361 47.860321 L 23.495361 47.860321 L 28.383789 47.956116 C 28.398743 47.957092 28.412781 47.957153 28.427734 47.957184 C 29.828186 47.96106 31.095337 47.167053 31.726135 45.914063 L 36.489807 36.351379 L 37.177979 34.968628 L 32.239929 34.88855 L 7.486267 34.486267 Z"/>
    <path id="Path-copy-36" fill="#ffffff" fill-opacity="0.1473" fill-rule="evenodd" stroke="none" d="M 13.692566 37.756165 C 12.704407 37.753418 12.048035 38.776337 12.459778 39.671295 L 14.084229 43.212738 C 14.200378 43.463654 14.4505 43.630768 14.733765 43.631531 L 16.568909 43.670288 C 16.752136 43.670776 16.903076 43.520691 16.987 43.254456 L 18.115417 39.554199 C 18.367432 38.687225 17.735962 37.817841 16.835693 37.798523 L 13.715942 37.756226 C 13.708496 37.756226 13.700073 37.756195 13.692566 37.756165 Z"/>
    <path id="Path-copy-35" fill="#4c2b2b" fill-opacity="0.3527" fill-rule="evenodd" stroke="none" d="M 30.907227 16.117371 L 30.907227 16.117371 C 30.522949 16.466919 30.05481 16.715271 29.537537 16.797058 L 27.902588 17.059937 C 26.634277 17.2565 25.398315 17.603699 24.213379 18.083801 L 22.97699 18.564667 C 21.324097 19.226746 19.570923 19.638855 17.802673 19.76767 L 14.766357 19.992981 C 14.688721 19.998413 14.612061 20.000977 14.534485 20.000793 C 13.895935 19.999023 13.267212 19.812134 12.732544 19.453491 L 12.732544 19.453491 C 12.814575 19.870728 12.996704 20.271393 13.246277 20.622681 C 13.819153 21.381592 14.695862 21.825317 15.627014 21.827911 C 15.721436 21.828186 15.816833 21.823761 15.91217 21.814667 C 16.517273 21.756531 17.146484 21.737671 17.789734 21.739471 C 19.241638 21.743469 20.763367 21.853333 22.24054 21.857422 C 23.390503 21.860626 24.513489 21.799194 25.554688 21.573975 C 26.872742 21.294312 28.258484 20.89801 29.228699 19.966675 C 30.282227 18.985046 30.703186 17.551056 30.907227 16.117371 Z"/>
    <path id="Path-copy-34" fill="#744242" fill-rule="evenodd" stroke="none" d="M 29.286499 18.328766 C 28.021545 18.325256 26.740601 18.714417 25.544434 19.188843 C 23.957947 19.835205 22.404724 20.631226 20.735046 20.943542 C 19.920288 21.10022 19.08905 21.136292 18.255127 21.133972 C 17.602539 21.132141 16.949097 21.106995 16.297485 21.098633 C 16.084351 21.092407 15.870239 21.08905 15.654297 21.08844 C 14.387512 21.08493 13.096069 21.187927 11.925171 21.669922 C 10.539001 22.233643 9.335388 23.381226 9.08075 24.848419 C 8.843384 26.181946 9.673645 27.502533 10.756165 28.222656 C 11.48877 28.708984 12.356384 28.69455 13.206909 28.780121 C 14.79126 28.918213 16.392456 29.022675 17.977051 29.059784 C 18.537048 29.073486 19.096069 29.081604 19.655151 29.08313 C 22.19812 29.090179 24.739563 28.971924 27.269226 28.719025 C 29.388306 28.507965 31.658447 28.114105 33.130554 26.566132 C 34.30188 25.268829 34.707092 23.434631 34.177856 21.765198 C 33.615845 20.111572 32.23468 18.85675 30.517395 18.468689 C 30.110962 18.373108 29.699707 18.329895 29.286499 18.328766 Z"/>
    <path id="Path-copy-33" fill="#4c2b2b" fill-opacity="0.3527" fill-rule="evenodd" stroke="none" d="M 33.830383 20.979797 C 33.77533 22.614899 32.503906 23.945557 30.869324 24.074738 L 28.766296 24.218506 C 27.14856 24.330902 25.546265 24.627533 23.992981 25.089783 L 22.374207 25.58551 C 20.307312 26.199646 18.165466 26.510681 16.020752 26.50473 C 15.913269 26.504456 15.805725 26.503204 15.699158 26.501984 L 11.828796 26.440765 C 10.778015 26.421051 9.778809 26.001282 9.030029 25.282104 L 9.030029 25.282104 C 9.026733 26.466675 9.774475 27.569214 10.756165 28.222656 C 11.48877 28.708984 12.356323 28.711395 13.206909 28.780121 C 14.79126 28.918213 16.392456 29.022675 17.977051 29.059784 C 18.587524 29.078308 19.197998 29.088409 19.808472 29.090118 C 22.299988 29.097015 24.790039 28.970215 27.269165 28.73584 C 29.388245 28.524811 31.675293 28.114136 33.130554 26.566132 C 34.30188 25.268829 34.707092 23.434631 34.177856 21.765198 C 34.095398 21.497559 33.979248 21.230774 33.830383 20.979797 Z"/>
    <path id="Path-copy-32" fill="#744242" fill-rule="evenodd" stroke="none" d="M 31.767639 25.143097 C 30.657898 25.140015 29.540283 25.283722 28.445801 25.502258 C 26.393494 25.913574 24.406799 26.575653 22.370239 27.037476 C 20.125977 27.535217 17.834717 27.786926 15.537659 27.780548 C 15.101013 27.779358 14.664429 27.768799 14.22699 27.748871 C 13.284729 27.693909 12.341675 27.59967 11.406738 27.597107 C 11.133728 27.596344 10.86261 27.604004 10.591431 27.621948 C 9.372986 27.701782 8.138123 27.981659 7.134949 28.663269 C 6.13269 29.343964 5.378845 30.476929 5.392334 31.694275 C 5.388916 32.912506 6.285461 34.299683 7.486267 34.486267 L 37.177979 34.968628 C 38.965698 33.905823 39.95697 31.440277 39.228455 29.486053 C 38.5 27.515961 36.651733 26.12616 34.651733 25.536285 C 33.709167 25.260651 32.740906 25.145782 31.767639 25.143097 Z"/>
    <path id="Path-copy-31" fill="#4c2b2b" fill-opacity="0.3527" fill-rule="evenodd" stroke="none" d="M 36.600403 26.426147 L 36.816101 26.87738 C 37.463013 28.24704 37.392212 29.848419 36.621094 31.130005 C 35.807556 32.532043 34.308411 33.375916 32.691956 33.371429 C 32.676086 33.371399 32.660217 33.371338 32.645203 33.371307 L 9.108826 32.972382 C 7.690613 32.952545 6.341431 32.313965 5.426331 31.227814 C 5.393188 31.377319 5.392761 31.527863 5.392334 31.694275 C 5.388977 32.895691 6.285461 34.299683 7.486267 34.486267 L 37.177979 34.968628 C 38.965698 33.905823 39.923279 31.456085 39.211609 29.486023 C 38.698181 28.199951 37.78302 27.1297 36.600403 26.426147 Z"/>
    <path id="Path-copy-30" fill="#ffffff" fill-opacity="0.1473" fill-rule="evenodd" stroke="none" d="M 31.521912 26.439209 C 30.997437 26.437744 30.475647 26.477448 29.961182 26.557343 C 29.143799 26.671967 28.325989 26.903442 27.557617 27.201447 C 27.206726 27.317322 26.872375 27.516479 26.605225 27.783142 C 26.32019 28.065643 26.235901 28.465576 26.351746 28.833344 C 26.484741 29.083344 26.701111 29.268127 26.984192 29.352142 C 27.251343 29.436096 27.534546 29.47052 27.81781 29.471313 C 28.423584 29.492615 29.034973 29.501801 29.646423 29.503479 C 30.077393 29.504669 30.509338 29.502136 30.937561 29.496765 C 31.003906 29.49884 31.071228 29.499939 31.137634 29.500122 C 31.604126 29.501434 32.069885 29.451294 32.522644 29.350647 C 33.156982 29.185974 33.774963 28.837067 34.059998 28.220795 C 34.2453 27.804291 34.347046 27.1875 33.98053 26.852722 C 33.564697 26.451385 32.730652 26.481812 32.196838 26.463501 C 31.971558 26.447937 31.746277 26.439819 31.521912 26.439209 Z"/>
    <path id="Path-copy-29" fill="#ffffff" fill-opacity="0.1473" fill-rule="evenodd" stroke="none" d="M 29.073792 19.522125 C 28.316467 19.52002 27.38623 19.871796 26.892883 20.092957 C 26.475403 20.29187 26.023865 20.607605 26.006714 21.075012 C 26.021484 21.47522 26.270996 21.843353 26.653992 21.978088 C 26.944458 22.066803 27.244446 22.108765 27.539917 22.109589 C 27.634338 22.109863 27.72876 22.105438 27.82135 22.09729 C 27.869019 22.099274 27.915771 22.100342 27.96344 22.100464 C 28.38324 22.101624 28.801331 22.036407 29.206482 21.917847 C 30.041199 21.636871 30.779236 20.47113 29.89679 19.751587 C 29.684082 19.587402 29.39447 19.52301 29.073792 19.522125 Z"/>
    <path id="Path-copy-28" fill="#ffffff" fill-opacity="0.1473" fill-rule="evenodd" stroke="none" d="M 28.001099 11.18396 C 27.9104 11.183716 27.820496 11.243286 27.801453 11.354523 C 27.699219 12.154541 27.429688 12.938232 26.994019 13.620483 C 26.709412 14.087189 26.941467 14.68808 27.474915 14.840088 L 27.54126 14.857117 C 27.611328 14.875977 27.682312 14.885529 27.751526 14.885742 C 28.161011 14.886841 28.531189 14.570007 28.56134 14.141876 C 28.596741 13.175232 28.466614 12.223999 28.184937 11.305084 C 28.147766 11.223633 28.074951 11.184174 28.001099 11.18396 Z"/>
    <path id="Path-copy-27" fill="#4c2b2b" fill-opacity="0.3527" fill-rule="evenodd" stroke="none" d="M 23.540283 28.20755 C 23.200012 28.206604 22.898193 28.487213 22.748779 28.756042 C 22.698975 28.840057 22.665039 28.940002 22.647949 29.040009 C 22.630493 29.273682 22.780396 29.491028 22.997131 29.558014 C 23.065308 29.582489 23.13446 29.593903 23.203613 29.594116 C 23.370972 29.594574 23.533875 29.52771 23.664124 29.409332 C 23.898499 29.177155 24.217407 28.459991 23.78418 28.258728 C 23.701965 28.223907 23.619751 28.207764 23.540283 28.20755 Z"/>
    <path id="Path-copy-26" fill="#4c2b2b" fill-opacity="0.3527" fill-rule="evenodd" stroke="none" d="M 31.566895 30.123993 C 31.395813 30.123535 31.224609 30.164185 31.069153 30.247925 C 30.684204 30.49649 30.782593 31.097931 31.166321 31.299072 C 31.332458 31.382751 31.532532 31.400146 31.715759 31.400635 C 31.748474 31.403534 31.780273 31.404572 31.812012 31.404633 C 31.975647 31.40509 32.130005 31.369049 32.283569 31.285339 C 32.501038 31.085876 32.552429 30.752228 32.385803 30.50119 C 32.173279 30.255646 31.870728 30.124847 31.566895 30.123993 Z"/>
    <path id="Path-copy-25" fill="#4c2b2b" fill-opacity="0.3527" fill-rule="evenodd" stroke="none" d="M 34.857239 31.34201 C 34.586121 31.341278 34.358398 31.543518 34.650879 31.925812 C 34.733704 32.075623 34.883972 32.160187 35.050354 32.17746 C 35.216797 32.161102 35.350891 32.010956 35.35144 31.827698 C 35.368225 31.499573 35.095642 31.342682 34.857239 31.34201 Z"/>
    <path id="Path-copy-24" fill="#4c2b2b" fill-opacity="0.3527" fill-rule="evenodd" stroke="none" d="M 34.887207 27.945374 C 34.767517 27.945068 34.652466 27.973724 34.561584 28.03891 C 34.393921 28.154388 34.344116 28.238403 34.493408 28.355682 C 34.643555 28.488861 34.777283 28.472412 34.909729 28.58963 C 35.043091 28.706879 35.042847 28.7901 35.176392 28.840942 C 35.199768 28.846619 35.223145 28.849487 35.245605 28.849548 C 35.354004 28.849854 35.455139 28.788422 35.51062 28.691345 C 35.743591 28.280609 35.290161 27.946503 34.887207 27.945374 Z"/>
    <path id="Path-copy-23" fill="#4c2b2b" fill-opacity="0.3527" fill-rule="evenodd" stroke="none" d="M 26.834534 31.071106 C 26.786865 31.070984 26.740051 31.075531 26.696106 31.086609 C 26.27887 31.185516 26.109924 31.768463 26.510315 32.003296 C 26.626099 32.070007 26.742859 32.104004 26.876465 32.138031 C 26.969849 32.173798 27.064209 32.191833 27.155823 32.192078 C 27.277405 32.192413 27.397156 32.162842 27.510437 32.10611 C 27.661194 32.0065 27.728149 31.80658 27.679077 31.623199 C 27.592041 31.316284 27.172974 31.072052 26.834534 31.071106 Z"/>
    <path id="Path-copy-22" fill="#4c2b2b" fill-opacity="0.3527" fill-rule="evenodd" stroke="none" d="M 20.852112 30.008331 C 20.82312 30.00824 20.792236 30.010956 20.760437 30.019287 C 20.509705 30.084991 20.191467 30.550659 20.107666 30.784149 C 20.056763 30.93454 20.089966 31.084229 20.189697 31.201385 C 20.268921 31.295074 20.391235 31.345917 20.512756 31.346252 C 20.544556 31.346344 20.575439 31.342682 20.606323 31.336212 C 20.757019 31.270264 20.890991 31.153748 20.991455 31.00351 C 21.075012 30.886871 21.141724 30.754303 21.192566 30.620728 C 21.269043 30.362885 21.139099 30.009125 20.852112 30.008331 Z"/>
    <path id="Path-copy-21" fill="#4c2b2b" fill-opacity="0.3527" fill-rule="evenodd" stroke="none" d="M 15.997375 22.46051 C 15.978638 22.460449 15.960876 22.460388 15.943115 22.462219 C 15.559753 22.494812 15.041504 22.927185 15.123596 23.344421 C 15.156677 23.544586 15.305847 23.695526 15.506775 23.728821 C 15.673157 23.729279 15.823853 23.680145 15.956848 23.59729 L 16.491333 23.348206 C 16.574707 23.297943 16.658997 23.248627 16.725586 23.165619 C 17.011841 22.754089 16.350769 22.461487 15.997375 22.46051 Z"/>
    <path id="Path-copy-20" fill="#4c2b2b" fill-opacity="0.3527" fill-rule="evenodd" stroke="none" d="M 13.24353 28.738159 C 12.990173 28.737457 12.720642 28.816193 12.606262 28.944885 C 12.455261 29.111816 12.471436 29.361511 12.62146 29.529266 C 12.715576 29.638947 12.828613 29.678528 12.949219 29.678833 C 13.104431 29.679291 13.270996 29.613342 13.421692 29.54834 C 13.572388 29.481415 13.705444 29.381744 13.773193 29.232361 C 13.888184 28.880188 13.579163 28.739075 13.24353 28.738159 Z"/>
    <path id="Path-copy-19" fill="#4c2b2b" fill-opacity="0.3527" fill-rule="evenodd" stroke="none" d="M 9.338623 30.670197 C 9.246094 30.669952 9.152527 30.695862 9.064453 30.753571 C 8.663513 31.036713 8.979004 31.571442 9.312378 31.705139 C 9.384338 31.725891 9.46283 31.741058 9.53949 31.741272 C 9.587158 31.741425 9.634827 31.735931 9.678833 31.722961 C 9.829529 31.657013 9.929993 31.506744 9.947266 31.340363 C 9.987488 31.001099 9.670532 30.671112 9.338623 30.670197 Z"/>
    <path id="Path-copy-18" fill="#4c2b2b" fill-opacity="0.3527" fill-rule="evenodd" stroke="none" d="M 15.833313 29.03891 C 15.785645 29.038757 15.743591 29.043335 15.708008 29.053528 C 15.20752 29.169006 15.188721 29.870178 15.756226 29.871735 L 16.123657 29.872772 C 16.145142 29.87561 16.167603 29.876617 16.190002 29.876678 C 16.300354 29.876984 16.409851 29.842682 16.507263 29.773773 C 16.971069 29.402008 16.232544 29.040009 15.833313 29.03891 Z"/>
    <path id="Path-copy-17" fill="#4c2b2b" fill-opacity="0.3527" fill-rule="evenodd" stroke="none" d="M 17.743713 15.713989 C 17.696045 15.713867 17.6521 15.718384 17.61377 15.727661 C 17.013123 15.87558 16.493164 16.608093 17.394104 16.727448 L 18.02771 16.813354 C 18.100586 16.822876 18.177246 16.829651 18.252991 16.829865 C 18.439026 16.830383 18.62146 16.789734 18.728455 16.647919 C 19.078552 16.148682 18.217712 15.715271 17.743713 15.713989 Z"/>
    <path id="Path-copy-16" fill="#4c2b2b" fill-opacity="0.3527" fill-rule="evenodd" stroke="none" d="M 22.551575 16.896912 C 22.09436 16.89566 22.52063 17.608337 22.629395 17.826477 C 22.661865 17.90979 22.729004 17.977295 22.795227 18.027039 C 22.821411 18.035522 22.846619 18.040283 22.871887 18.040344 C 22.944824 18.040527 23.012207 18.006134 23.061951 17.94458 C 23.363892 17.611633 23.08136 16.993774 22.664673 16.909393 C 22.62262 16.900879 22.58429 16.897034 22.551575 16.896912 Z"/>
    <path id="Path-copy-15" fill="#4c2b2b" fill-opacity="0.3527" fill-rule="evenodd" stroke="none" d="M 24.054565 14.984436 C 23.940491 14.9841 23.824524 15.009033 23.754333 15.043427 C 23.43689 15.2099 23.502625 15.459717 23.853088 15.494324 C 23.903564 15.502899 23.953125 15.50769 24.003601 15.507874 C 24.053162 15.507996 24.103638 15.503448 24.153198 15.495178 C 24.253296 15.478638 24.33667 15.412476 24.370544 15.329346 C 24.468506 15.069702 24.264954 14.984985 24.054565 14.984436 Z"/>
    <path id="Path-copy-14" fill="#4c2b2b" fill-opacity="0.3527" fill-rule="evenodd" stroke="none" d="M 19.655701 18.062286 C 19.629517 18.062195 19.602417 18.064026 19.575256 18.068604 C 19.47522 18.068329 19.391907 18.117645 19.342041 18.21756 C 19.193604 18.487366 19.46167 18.586243 19.699097 18.586914 C 19.785156 18.587158 19.867432 18.575226 19.924561 18.552948 C 20.258667 18.420166 20.225647 18.187256 19.875305 18.102173 C 19.802429 18.077637 19.729553 18.0625 19.655701 18.062286 Z"/>
    <path id="Path-copy-13" fill="#4c2b2b" fill-opacity="0.3527" fill-rule="evenodd" stroke="none" d="M 26.590942 16.036255 C 25.9776 16.034546 26.34491 16.762024 26.651917 16.956421 C 26.731262 17.013672 26.819092 17.0401 26.908813 17.040344 C 26.950867 17.040466 26.992981 17.034973 27.035095 17.023865 C 27.1521 16.957825 27.235718 16.824341 27.236084 16.690643 C 27.220154 16.357758 26.971313 16.072815 26.65448 16.039246 C 26.632019 16.037292 26.611511 16.036316 26.590942 16.036255 Z"/>
    <path id="Path-copy-12" fill="#4c2b2b" fill-opacity="0.3527" fill-rule="evenodd" stroke="none" d="M 23.288696 21.47934 C 22.676331 21.477661 23.04364 22.18924 23.350647 22.399536 C 23.429993 22.456787 23.525269 22.483215 23.61499 22.483459 C 23.656128 22.483582 23.69635 22.478088 23.733826 22.46698 C 23.867737 22.384125 23.934448 22.267426 23.934814 22.117859 C 23.918945 21.783997 23.670044 21.51593 23.35321 21.48233 C 23.33075 21.480408 23.309265 21.479401 23.288696 21.47934 Z"/>
    <path id="Path-copy-11" fill="#4c2b2b" fill-opacity="0.3527" fill-rule="evenodd" stroke="none" d="M 16.111938 17.864563 C 15.855774 17.863831 15.612427 17.979095 15.521912 18.240631 C 15.376892 18.625427 15.72168 18.691833 16.062927 18.69281 C 16.238708 18.693268 16.413574 18.676941 16.521057 18.677246 C 16.604309 18.67746 16.688477 18.660858 16.754944 18.62738 C 16.838318 18.578064 16.889099 18.461334 16.855713 18.361206 C 16.839233 18.244263 16.789917 18.16095 16.705933 18.093384 C 16.553955 17.948059 16.327942 17.865143 16.111938 17.864563 Z"/>
    <path id="Path-copy-10" fill="#4c2b2b" fill-opacity="0.3527" fill-rule="evenodd" stroke="none" d="M 19.987122 23.309265 C 19.856201 23.308899 19.740173 23.361877 19.677124 23.506622 C 19.509705 23.856781 19.909119 24.125275 20.159424 24.226013 C 20.236877 24.274841 20.325623 24.300323 20.416321 24.300598 C 20.480835 24.300751 20.546326 24.287842 20.609009 24.259979 C 20.726135 24.177094 20.793823 24.027679 20.743774 23.877014 C 20.71051 23.72641 20.627625 23.610229 20.510986 23.525757 C 20.384155 23.417877 20.171326 23.309784 19.987122 23.309265 Z"/>
    <path id="Path-copy-9" fill="#4c2b2b" fill-opacity="0.3527" fill-rule="evenodd" stroke="none" d="M 13.011658 24.006134 C 12.878906 24.005768 12.756226 24.058716 12.68573 24.205322 C 12.535217 24.538696 12.934631 24.806244 13.183899 24.923828 C 13.259521 24.970764 13.345459 24.991577 13.432434 24.991821 C 13.500671 24.992004 13.56897 24.980042 13.63446 24.95871 C 13.751587 24.874908 13.81842 24.708649 13.769226 24.574829 C 13.735962 24.42514 13.63623 24.307983 13.519653 24.207642 C 13.403992 24.110077 13.197693 24.006653 13.011658 24.006134 Z"/>
    <path id="Path-copy-8" fill="#4c2b2b" fill-opacity="0.3527" fill-rule="evenodd" stroke="none" d="M 31.754639 20.368225 C 31.704163 20.368042 31.650818 20.384766 31.596497 20.422913 C 31.312683 20.622223 31.711548 21.09082 31.961121 21.091492 C 32.045349 21.07489 32.111877 21.008728 32.128967 20.925537 C 32.170654 20.719971 31.988403 20.368835 31.754639 20.368225 Z"/>
    <path id="Path-copy-7" fill="#4c2b2b" fill-opacity="0.3527" fill-rule="evenodd" stroke="none" d="M 23.033508 23.500031 C 22.983948 23.499878 22.932495 23.514709 22.880005 23.549164 C 22.596191 23.748444 22.97821 24.21698 23.245605 24.217712 C 23.312012 24.20108 23.378601 24.134888 23.39563 24.050781 C 23.451355 23.844299 23.268127 23.500671 23.033508 23.500031 Z"/>
    <path id="Path-copy-6" fill="#fa5e5c" fill-rule="evenodd" stroke="none" d="M 20.839111 10.684509 C 18.430786 10.677856 17.178345 13.586792 18.865784 15.316467 C 19.430786 15.894897 20.129333 16.155823 20.814636 16.157715 C 22.210449 16.16156 23.548462 15.094727 23.575439 13.461426 C 23.612366 11.943176 22.39856 10.688843 20.880249 10.684631 C 20.866211 10.68457 20.853149 10.68454 20.839111 10.684509 Z"/>
    <path id="Path-copy-5" fill="#744242" fill-opacity="0.1741" fill-rule="evenodd" stroke="none" d="M 21.497131 10.752716 L 21.497131 10.752716 C 22.562683 11.523254 22.926147 12.942627 22.372253 14.124756 C 21.914185 15.11731 20.942993 15.72052 19.894958 15.71759 C 19.676208 15.71698 19.453735 15.690186 19.232361 15.634399 L 19.232361 15.634399 C 19.720337 15.985443 20.278015 16.15155 20.827759 16.153076 C 21.853333 16.155884 22.852478 15.586487 23.321777 14.578003 C 24.060059 13.012146 23.164795 11.174316 21.497131 10.752716 Z"/>
    <path id="Path-copy-4" fill="#ffffff" fill-opacity="0.3571" fill-rule="evenodd" stroke="none" d="M 20.045532 11.311523 C 19.918335 11.311188 19.786438 11.343567 19.66095 11.415192 C 18.975464 11.830292 18.539612 12.563019 18.520569 13.380127 L 18.520508 13.396973 C 18.519287 13.841064 18.892456 14.138489 19.277588 14.139526 C 19.457092 14.140045 19.638672 14.076965 19.786743 13.934326 C 19.95459 13.768372 20.121521 13.585571 20.255676 13.401764 C 20.490417 13.052734 20.657898 12.668945 20.775879 12.252258 C 20.908203 11.742126 20.506409 11.312805 20.045532 11.311523 Z"/>
    <path id="Path-copy-3" fill="#ffffff" fill-opacity="0.3571" fill-rule="evenodd" stroke="none" d="M 19.411011 11.546326 C 19.35022 11.546143 19.286621 11.56189 19.226685 11.597229 C 18.875488 11.813171 18.657593 12.180023 18.656433 12.58017 C 18.655884 12.798035 18.836792 12.945313 19.026611 12.945831 C 19.11261 12.946075 19.199646 12.916382 19.272766 12.848328 C 19.373047 12.765411 19.440552 12.682373 19.523987 12.599426 C 19.641357 12.416473 19.725098 12.232544 19.776184 12.015747 C 19.842285 11.766296 19.639099 11.546967 19.411011 11.546326 Z"/>
    <path id="Path-copy-2" fill="#84d161" fill-rule="evenodd" stroke="none" d="M 20.844055 6.870819 C 20.658936 6.8703 20.48999 7.117615 20.655884 7.297577 C 21.58783 8.367859 21.950256 9.836761 21.612671 11.237335 C 21.57196 11.41861 21.726807 11.540588 21.870789 11.540985 C 21.964294 11.54126 22.053223 11.490051 22.079712 11.371399 C 22.467346 9.804535 22.054993 8.152252 21.007446 6.947937 C 20.957092 6.893555 20.900146 6.870972 20.844055 6.870819 Z"/>
    <path id="Path-copy" fill="#744242" fill-opacity="0.1741" fill-rule="evenodd" stroke="none" d="M 18.549622 15.049133 C 18.570984 15.092163 18.597046 15.130585 18.626892 15.166199 L 18.626892 15.166199 C 18.60083 15.126862 18.574707 15.08844 18.549622 15.049133 Z M 22.903564 15.028442 C 22.739014 15.027985 22.563049 15.101379 22.419739 15.192596 C 22.185669 15.325623 21.984985 15.541992 21.717529 15.574921 C 21.686646 15.578552 21.655823 15.580353 21.624939 15.580261 C 21.296814 15.579346 21.00293 15.350403 20.66748 15.287781 C 20.59082 15.274475 20.513245 15.2677 20.434753 15.267517 C 20.140259 15.266693 19.839905 15.350006 19.549927 15.40155 C 19.469482 15.415344 19.387207 15.422607 19.304932 15.422363 C 19.042236 15.421661 18.781555 15.34613 18.626892 15.166199 L 18.626892 15.166199 C 19.125977 15.886566 19.920959 16.454407 20.779236 16.456787 C 20.790466 16.456818 20.802612 16.456848 20.814758 16.455963 C 21.78241 16.442749 22.667297 15.944031 23.186584 15.128326 C 23.103577 15.057983 23.005493 15.028748 22.903564 15.028442 Z"/>
</svg>
