<?xml version="1.0" encoding="UTF-8"?>
<!-- Generated by Pixelmator Pro 3.4.1 -->
<svg width="37" height="54" viewBox="0 0 37 54" xmlns="http://www.w3.org/2000/svg">
    <path id="Path-copy-19" fill="#ffffff" fill-rule="evenodd" stroke="none" d="M 17.031342 6.082916 C 17.856201 7.222656 17.751251 8.781769 16.782562 9.790833 C 16.337128 10.236572 15.774231 10.511963 15.237793 10.81308 C 14.936188 10.983459 14.648499 11.180267 14.399719 11.416016 L 14.373322 11.441711 C 14.321198 11.481384 14.268372 11.533508 14.216278 11.586365 L 14.176636 11.625305 C 14.137756 11.678162 14.098114 11.730316 14.059204 11.782471 C 14.046021 11.795685 14.032806 11.808899 14.019592 11.835327 C 13.967499 11.900696 13.927856 11.966064 13.888977 12.044617 C 13.836121 12.136414 13.797241 12.22821 13.770813 12.320007 C 13.746582 12.319275 13.722382 12.319275 13.698883 12.319275 C 11.662445 12.319275 9.999512 13.955505 9.973816 16.002228 L 9.973816 16.263672 C 9.960632 16.853394 10.169769 17.417389 10.576324 17.862427 C 9.083649 18.373535 8.062134 19.762268 8.035706 21.335327 L 8.035706 21.596741 C 8.035706 22.06897 8.167084 22.527222 8.428314 22.920837 C 6.883545 23.405548 5.82312 24.820709 5.796722 26.44516 L 5.796722 26.694122 C 5.783508 27.192017 5.927338 27.663483 6.215729 28.069611 L 6.215729 28.069611 L 5.155304 28.057129 C 5.147247 28.056396 5.13916 28.056396 5.131104 28.056396 C 4.788391 28.056396 4.513184 28.327393 4.513184 28.672546 C 4.500702 29.393707 5.063599 29.970184 5.783508 29.983429 L 8.546478 30.035553 L 6.412415 29.996643 L 6.412415 29.996643 L 7.590271 34.477844 C 7.786926 35.224701 8.454742 35.748322 9.227509 35.761536 L 9.463074 36.954193 L 11.374756 46.402008 C 11.545013 47.23996 12.278137 47.85611 13.142639 47.869324 L 17.175171 47.934692 L 20.252258 47.986816 L 20.370392 47.986816 C 20.736603 47.986816 21.090302 47.882538 21.404419 47.68573 C 21.444031 47.659271 21.483673 47.620361 21.522552 47.593933 C 21.601074 47.528564 21.679596 47.463196 21.744904 47.384613 C 21.784546 47.344971 21.810974 47.30603 21.849854 47.266388 C 21.901947 47.187805 21.954803 47.096008 22.006897 47.017426 C 22.085419 46.873505 22.138275 46.729553 22.177155 46.571655 L 24.377258 37.189911 L 24.651733 36.010498 C 24.796295 36.010498 24.940125 35.997284 25.07077 35.958344 C 25.673248 35.814423 26.157593 35.368652 26.32785 34.778931 L 27.637787 30.336639 L 28.279175 30.336639 C 28.287262 30.337402 28.295349 30.337402 28.303406 30.337402 C 28.999847 30.337402 29.575195 29.778534 29.588379 29.066162 C 29.588379 28.725403 29.313202 28.436798 28.973419 28.436798 L 27.925476 28.411102 C 28.213867 28.017456 28.370911 27.54599 28.384125 27.06131 L 28.384125 26.799133 C 28.384125 26.694122 28.384125 26.576599 28.370911 26.471588 C 28.370911 26.458374 28.370911 26.44516 28.370911 26.44516 C 28.357727 26.327667 28.344513 26.222626 28.331299 26.117615 C 28.331299 26.104401 28.331299 26.104401 28.331299 26.091187 C 28.305603 25.986908 28.292389 25.868652 28.252777 25.763641 C 27.93869 24.558533 27.035309 23.601624 25.85672 23.195496 C 26.131927 22.815857 26.288971 22.356842 26.302185 21.885376 L 26.302185 21.623199 C 26.302185 21.439606 26.288971 21.24353 26.262543 21.059937 L 26.262543 21.046692 C 26.249329 20.981323 26.236115 20.928467 26.236115 20.876343 C 26.223663 20.824188 26.223663 20.810974 26.210449 20.771301 C 26.197235 20.732391 26.197235 20.719177 26.197235 20.692749 C 25.89563 19.500824 25.045074 18.517487 23.8797 18.072449 C 24.298737 17.653137 24.534302 17.089844 24.534302 16.500122 L 24.534302 16.237976 C 24.534302 16.132935 24.534302 16.041138 24.534302 15.936127 L 24.534302 15.897217 C 24.534302 15.792175 24.507904 15.700378 24.49469 15.608582 L 24.49469 15.556458 C 24.481476 15.464661 24.45578 15.372864 24.442566 15.267822 L 24.442566 15.255371 C 24.390472 15.058533 24.324432 14.861725 24.232697 14.665649 C 23.787964 13.643372 22.897797 12.870087 21.810974 12.56897 C 21.823425 12.503632 21.836639 12.450745 21.836639 12.398621 C 21.863068 12.188568 21.876282 11.979279 21.876282 11.769226 C 21.863068 11.546722 21.849854 11.310974 21.810974 11.08847 C 21.69281 10.36731 21.430817 9.673309 21.038208 9.057159 C 20.959686 8.938934 20.86795 8.821411 20.789429 8.703186 L 20.736603 8.624634 C 19.807526 7.44519 18.432281 6.685852 17.031342 6.082916 Z"/>
    <path id="Path-copy-18" fill="none" stroke="#ffffff" stroke-width="8" stroke-linejoin="round" d="M 17.031342 6.082916 C 17.856201 7.222656 17.751251 8.781769 16.782562 9.790833 C 16.337128 10.236572 15.774231 10.511963 15.237793 10.81308 C 14.936188 10.983459 14.648499 11.180267 14.399719 11.416016 L 14.373322 11.441711 C 14.321198 11.481384 14.268372 11.533508 14.216278 11.586365 L 14.176636 11.625305 C 14.137756 11.678162 14.098114 11.730316 14.059204 11.782471 C 14.046021 11.795685 14.032806 11.808899 14.019592 11.835327 C 13.967499 11.900696 13.927856 11.966064 13.888977 12.044617 C 13.836121 12.136414 13.797241 12.22821 13.770813 12.320007 C 13.746582 12.319275 13.722382 12.319275 13.698883 12.319275 C 11.662445 12.319275 9.999512 13.955505 9.973816 16.002228 L 9.973816 16.263672 C 9.960632 16.853394 10.169769 17.417389 10.576324 17.862427 C 9.083649 18.373535 8.062134 19.762268 8.035706 21.335327 L 8.035706 21.596741 C 8.035706 22.06897 8.167084 22.527222 8.428314 22.920837 C 6.883545 23.405548 5.82312 24.820709 5.796722 26.44516 L 5.796722 26.694122 C 5.783508 27.192017 5.927338 27.663483 6.215729 28.069611 L 6.215729 28.069611 L 5.155304 28.057129 C 5.147247 28.056396 5.13916 28.056396 5.131104 28.056396 C 4.788391 28.056396 4.513184 28.327393 4.513184 28.672546 C 4.500702 29.393707 5.063599 29.970184 5.783508 29.983429 L 8.546478 30.035553 L 6.412415 29.996643 L 6.412415 29.996643 L 7.590271 34.477844 C 7.786926 35.224701 8.454742 35.748322 9.227509 35.761536 L 9.463074 36.954193 L 11.374756 46.402008 C 11.545013 47.23996 12.278137 47.85611 13.142639 47.869324 L 17.175171 47.934692 L 20.252258 47.986816 L 20.370392 47.986816 C 20.736603 47.986816 21.090302 47.882538 21.404419 47.68573 C 21.444031 47.659271 21.483673 47.620361 21.522552 47.593933 C 21.601074 47.528564 21.679596 47.463196 21.744904 47.384613 C 21.784546 47.344971 21.810974 47.30603 21.849854 47.266388 C 21.901947 47.187805 21.954803 47.096008 22.006897 47.017426 C 22.085419 46.873505 22.138275 46.729553 22.177155 46.571655 L 24.377258 37.189911 L 24.651733 36.010498 C 24.796295 36.010498 24.940125 35.997284 25.07077 35.958344 C 25.673248 35.814423 26.157593 35.368652 26.32785 34.778931 L 27.637787 30.336639 L 28.279175 30.336639 C 28.287262 30.337402 28.295349 30.337402 28.303406 30.337402 C 28.999847 30.337402 29.575195 29.778534 29.588379 29.066162 C 29.588379 28.725403 29.313202 28.436798 28.973419 28.436798 L 27.925476 28.411102 C 28.213867 28.017456 28.370911 27.54599 28.384125 27.06131 L 28.384125 26.799133 C 28.384125 26.694122 28.384125 26.576599 28.370911 26.471588 C 28.370911 26.458374 28.370911 26.44516 28.370911 26.44516 C 28.357727 26.327667 28.344513 26.222626 28.331299 26.117615 C 28.331299 26.104401 28.331299 26.104401 28.331299 26.091187 C 28.305603 25.986908 28.292389 25.868652 28.252777 25.763641 C 27.93869 24.558533 27.035309 23.601624 25.85672 23.195496 C 26.131927 22.815857 26.288971 22.356842 26.302185 21.885376 L 26.302185 21.623199 C 26.302185 21.439606 26.288971 21.24353 26.262543 21.059937 L 26.262543 21.046692 C 26.249329 20.981323 26.236115 20.928467 26.236115 20.876343 C 26.223663 20.824188 26.223663 20.810974 26.210449 20.771301 C 26.197235 20.732391 26.197235 20.719177 26.197235 20.692749 C 25.89563 19.500824 25.045074 18.517487 23.8797 18.072449 C 24.298737 17.653137 24.534302 17.089844 24.534302 16.500122 L 24.534302 16.237976 C 24.534302 16.132935 24.534302 16.041138 24.534302 15.936127 L 24.534302 15.897217 C 24.534302 15.792175 24.507904 15.700378 24.49469 15.608582 L 24.49469 15.556458 C 24.481476 15.464661 24.45578 15.372864 24.442566 15.267822 L 24.442566 15.255371 C 24.390472 15.058533 24.324432 14.861725 24.232697 14.665649 C 23.787964 13.643372 22.897797 12.870087 21.810974 12.56897 C 21.823425 12.503632 21.836639 12.450745 21.836639 12.398621 C 21.863068 12.188568 21.876282 11.979279 21.876282 11.769226 C 21.863068 11.546722 21.849854 11.310974 21.810974 11.08847 C 21.69281 10.36731 21.430817 9.673309 21.038208 9.057159 C 20.959686 8.938934 20.86795 8.821411 20.789429 8.703186 L 20.736603 8.624634 C 19.807526 7.44519 18.432281 6.685852 17.031342 6.082916 Z"/>
    <path id="Path-copy-17" fill="#f0c47f" fill-rule="evenodd" stroke="none" d="M 9.227509 35.77475 L 11.374756 46.41449 C 11.545013 47.253174 12.278137 47.85611 13.142639 47.869324 L 20.370392 47.986816 C 20.379944 47.987549 20.388733 47.987549 20.398285 47.987549 C 21.237823 47.987549 21.982697 47.40152 22.177155 46.571655 L 24.651733 36.010498 L 9.227509 35.77475 Z"/>
    <path id="Path-copy-16" fill="#ffffff" fill-opacity="0.3571" fill-rule="evenodd" stroke="none" d="M 12.859375 38.867249 C 12.345673 38.867249 11.952301 39.332855 12.055786 39.849854 L 12.513702 42.064758 C 12.579773 42.444427 12.919525 42.733032 13.299683 42.733032 L 13.927856 42.745514 C 14.321198 42.745514 14.661713 42.4841 14.740234 42.103668 L 15.263489 39.889496 C 15.381622 39.378387 15.001495 38.893677 14.465027 38.893677 L 12.880646 38.867249 C 12.873291 38.867249 12.866699 38.867249 12.859375 38.867249 Z"/>
    <path id="Path-copy-15" fill="#744242" fill-opacity="0.1741" fill-rule="evenodd" stroke="none" d="M 9.227509 35.696167 L 9.463074 36.896454 L 18.707489 37.041321 C 19.977783 37.067932 20.90686 38.267456 20.619171 39.520935 L 18.982666 46.52301 C 18.786011 47.367035 18.039673 47.947235 17.175171 47.947235 L 20.370392 47.986389 C 20.379944 47.987122 20.389465 47.987122 20.398285 47.987122 C 21.251038 47.987122 21.982697 47.397339 22.177155 46.5755 L 24.377258 37.133698 L 24.651733 35.946716 L 21.457245 35.894257 L 9.227509 35.696167 Z"/>
    <path id="Path-copy-14" fill="#f0c47f" fill-rule="evenodd" stroke="none" d="M 6.412415 30.009125 L 7.590271 34.571228 C 7.786926 35.33371 8.454742 35.868286 9.227509 35.881775 L 24.664948 36.135925 C 24.674469 36.136688 24.684753 36.136688 24.694305 36.136688 C 25.454559 36.136688 26.121643 35.618622 26.341064 34.878632 L 27.650269 30.343506 L 6.412415 30.009125 Z"/>
    <path id="Path-copy-13" fill="#744242" fill-opacity="0.1741" fill-rule="evenodd" stroke="none" d="M 20.946472 36.082703 L 20.946472 36.082703 C 20.950867 36.082703 20.955292 36.082703 20.959686 36.082703 L 20.959686 36.082703 L 20.946472 36.082703 Z M 6.412415 30.009125 L 6.68689 31.079742 L 19.886047 31.293396 C 21.719238 31.306915 23.015228 33.113007 22.504456 34.905609 C 22.31073 35.605103 21.684021 36.082703 20.97583 36.082703 C 20.970703 36.082703 20.964813 36.082703 20.959686 36.082703 L 20.959686 36.082703 L 24.664948 36.135925 C 24.675201 36.136688 24.684753 36.136688 24.695038 36.136688 C 25.455292 36.136688 26.121643 35.631348 26.341064 34.878632 L 27.650269 30.343506 L 6.412415 30.009125 Z"/>
    <path id="Path-copy-12" fill="#f0c47f" fill-rule="evenodd" stroke="none" d="M 17.031342 6.082916 L 17.031342 6.082916 C 17.856201 7.209473 17.751251 8.781769 16.782562 9.790833 C 16.337128 10.223358 15.774231 10.498779 15.237793 10.81308 C 14.700623 11.12738 14.176636 11.494568 13.888977 12.044617 C 13.587341 12.595428 13.626984 13.354797 14.098114 13.748413 C 16.363525 13.774109 19.086884 13.852692 21.352295 13.87912 C 22.190369 12.411835 21.954803 10.485535 21.024994 9.043945 C 20.108398 7.61557 18.589325 6.764404 17.031342 6.082916 Z"/>
    <path id="Path-copy-11" fill="#744242" fill-opacity="0.1741" fill-rule="evenodd" stroke="none" d="M 20.475342 8.310303 L 20.475342 8.310303 C 20.540649 8.546021 20.592773 8.769287 20.619171 9.01825 C 20.747589 10.240997 19.776703 11.311707 18.551178 11.311707 C 18.529144 11.311707 18.507141 11.311707 18.485107 11.310974 L 14.582458 11.25885 C 14.2948 11.46814 14.059204 11.730316 13.875763 12.044617 C 13.587341 12.595428 13.61377 13.354797 14.098114 13.748413 C 16.363525 13.787323 19.086884 13.852692 21.352295 13.892334 C 22.190369 12.411835 21.954803 10.485535 21.038208 9.057159 C 20.86795 8.794983 20.684479 8.546021 20.475342 8.310303 Z"/>
    <path id="Path-copy-10" fill="#f0c47f" fill-rule="evenodd" stroke="none" d="M 13.7099 12.306824 C 11.675659 12.306824 9.999512 13.948151 9.960632 16.002228 L 9.960632 16.25119 C 9.934204 17.534882 10.955719 18.596069 12.239258 18.622498 L 22.177155 18.779663 C 22.185242 18.779663 22.193298 18.779663 22.201385 18.779663 C 23.473877 18.779663 24.521088 17.762543 24.547516 16.486938 L 24.547516 16.224731 C 24.573212 14.154541 22.923492 12.450745 20.86795 12.425049 L 13.757599 12.306824 C 13.741455 12.306824 13.725311 12.306824 13.7099 12.306824 Z"/>
    <path id="Path-copy-9" fill="#744242" fill-opacity="0.1741" fill-rule="evenodd" stroke="none" d="M 23.748352 13.865906 L 23.748352 13.865906 C 23.787964 13.970917 23.814392 14.075928 23.840088 14.19342 C 23.931824 14.691345 23.91861 15.215698 23.787964 15.713623 C 23.617737 16.395142 23.002014 16.866577 22.295319 16.866577 L 11.309448 16.670532 C 10.746582 16.657288 10.222595 16.342987 9.973816 15.831848 C 9.973816 15.883972 9.960632 15.936127 9.960632 16.002228 L 9.960632 16.25119 C 9.934204 17.534882 10.968933 18.596069 12.25174 18.609283 L 22.190369 18.766449 C 22.206512 18.767181 22.221924 18.767181 22.238068 18.767181 C 23.499573 18.767181 24.534302 17.741974 24.547516 16.473694 L 24.547516 16.224731 C 24.56073 15.359619 24.272339 14.53418 23.748352 13.865906 Z"/>
    <path id="Path-copy-8" fill="#f0c47f" fill-rule="evenodd" stroke="none" d="M 11.760773 17.665588 C 9.737518 17.665588 8.074615 19.289307 8.035706 21.335327 L 8.035706 21.596741 C 8.022491 22.881195 9.044037 23.929169 10.327545 23.955597 L 23.945038 24.178101 C 23.953094 24.178864 23.961182 24.178864 23.969238 24.178864 C 25.24176 24.178864 26.275757 23.16098 26.302185 21.885376 L 26.302185 21.623199 C 26.32785 19.552979 24.678162 17.849182 22.609406 17.823486 L 11.832703 17.666321 C 11.809204 17.665588 11.785004 17.665588 11.760773 17.665588 Z"/>
    <path id="Path-copy-7" fill="#744242" fill-opacity="0.1741" fill-rule="evenodd" stroke="none" d="M 25.254211 18.963257 L 25.254211 18.963257 C 25.28064 19.068298 25.307068 19.173279 25.332764 19.290802 C 25.437683 19.801941 25.411285 20.313049 25.28064 20.810974 C 25.112579 21.48291 24.510834 21.963928 23.815857 21.963928 C 23.806335 21.963928 23.797516 21.963928 23.787964 21.963928 L 9.148987 21.714996 C 8.72995 21.701782 8.337311 21.518188 8.04892 21.217102 L 8.04892 21.335327 L 8.04892 21.596741 C 8.022491 22.881195 9.057251 23.942383 10.340027 23.955597 L 23.945038 24.178101 C 23.953094 24.178864 23.961182 24.178864 23.969238 24.178864 C 25.24176 24.178864 26.275757 23.16098 26.302185 21.885376 L 26.302185 21.623199 C 26.314636 20.62738 25.935242 19.671204 25.254211 18.963257 Z"/>
    <path id="Path-copy-6" fill="#f0c47f" fill-rule="evenodd" stroke="none" d="M 9.482025 22.762939 C 7.437744 22.762939 5.764374 24.351776 5.737976 26.340118 L 5.737976 26.581116 C 5.724792 27.06308 5.881653 27.51947 6.156525 27.9133 L 27.840179 28.242432 C 28.141449 27.862122 28.298309 27.405731 28.311493 26.936554 L 28.311493 26.68277 C 28.337158 24.678802 26.689423 23.029541 24.636353 23.003937 L 9.531128 22.762939 C 9.514282 22.762939 9.498169 22.762939 9.482025 22.762939 Z"/>
    <path id="Path-copy-5" fill="#ffffff" fill-opacity="0.3571" fill-rule="evenodd" stroke="none" d="M 10.078766 23.340179 C 9.659729 23.340179 9.30603 23.667725 9.292816 24.099548 C 9.292816 24.51886 9.633331 24.859619 10.052338 24.872833 L 15.289886 24.951416 C 15.708923 24.951416 16.049438 24.623871 16.062653 24.204559 C 16.062653 23.785217 15.735352 23.431244 15.316315 23.431244 L 10.078766 23.340179 Z"/>
    <path id="Path-copy-4" fill="#ffffff" fill-opacity="0.3571" fill-rule="evenodd" stroke="none" d="M 12.016144 18.229614 C 11.597137 18.229614 11.244141 18.557129 11.244141 18.989685 C 11.230927 19.409027 11.571442 19.749786 11.990479 19.762268 L 15.184967 19.801941 C 15.193024 19.801941 15.200378 19.801941 15.208435 19.801941 C 15.617188 19.801941 15.957703 19.466309 15.957703 19.055054 C 15.957703 18.635742 15.630402 18.294983 15.211365 18.281738 L 12.016144 18.229614 Z"/>
    <path id="Path-copy-3" fill="#ffffff" fill-opacity="0.3571" fill-rule="evenodd" stroke="none" d="M 13.917572 12.948669 C 13.50882 12.948669 13.168304 13.284271 13.168304 13.695526 C 13.155853 14.114868 13.496338 14.455627 13.914642 14.468842 L 15.408051 14.49527 C 15.827087 14.49527 16.180054 14.167725 16.193268 13.748413 C 16.193268 13.329071 15.852783 12.975098 15.433746 12.975098 L 13.941071 12.948669 C 13.933716 12.948669 13.925659 12.948669 13.917572 12.948669 Z"/>
    <path id="Path-copy-2" fill="#f0c47f" fill-rule="evenodd" stroke="none" d="M 5.0401 27.819183 C 4.697388 27.819183 4.421448 28.154388 4.421448 28.563416 C 4.408997 29.400543 4.971863 30.09787 5.691772 30.113525 L 28.187469 30.531219 C 28.907379 30.531219 29.496674 29.865143 29.509857 29.02887 C 29.509857 28.610291 29.23468 28.269012 28.881683 28.253387 L 5.063599 27.820038 C 5.055511 27.819183 5.048187 27.819183 5.0401 27.819183 Z"/>
    <path id="Path-copy" fill="#f0c47f" fill-rule="evenodd" stroke="none" d="M 27.420929 24.261078 C 27.420929 24.29953 27.434143 24.324463 27.447357 24.350098 C 27.539093 24.845795 27.525879 25.353607 27.395264 25.836487 C 27.227203 26.488861 26.612976 26.942535 25.930481 26.942535 C 25.920929 26.942535 25.91214 26.942535 25.902588 26.942535 L 6.99472 26.637726 C 6.497162 26.624878 6.038513 26.383453 5.750854 25.976776 C 5.73764 26.103546 5.724426 26.218231 5.724426 26.345001 L 5.724426 26.586426 C 5.724426 27.056488 5.868256 27.527252 6.143463 27.921112 L 7.426971 27.933929 C 7.884888 27.933929 8.251831 28.302124 8.251831 28.746552 L 8.238617 29.280701 C 8.238617 29.674561 8.552704 29.992188 8.958527 30.005005 C 9.364349 30.005005 9.692383 29.687378 9.704865 29.293518 L 9.704865 28.772186 C 9.704865 28.3349 10.071808 27.983765 10.51944 27.983765 C 10.527527 27.983765 10.534851 27.984497 10.542938 27.984497 C 11.001587 27.984497 11.367798 28.352692 11.367798 28.797821 L 11.30249 32.55899 C 11.289276 33.00412 11.656189 33.372314 12.12735 33.385132 C 12.135406 33.385132 12.143494 33.385132 12.15155 33.385132 C 12.599213 33.385132 12.965393 33.034027 12.978607 32.597443 L 13.030731 28.823456 C 13.043915 28.386169 13.398376 28.035065 13.845306 28.035065 C 13.853363 28.035065 13.860718 28.035065 13.868774 28.035065 L 16.199524 28.073517 C 16.356567 28.073517 16.474701 28.187469 16.461517 28.327759 C 16.461517 28.823456 16.86734 29.229431 17.378082 29.242249 C 17.888855 29.242249 18.307892 28.848389 18.307892 28.352692 C 18.307892 28.213104 18.438507 28.09845 18.583099 28.09845 L 20.363434 28.136902 C 20.847778 28.136902 21.214691 28.517944 21.214691 28.975891 L 21.188293 30.398865 C 21.188293 30.779907 21.489899 31.097534 21.882507 31.097534 C 22.275116 31.097534 22.589966 30.805542 22.602417 30.4245 L 22.615631 29.000793 C 22.628845 28.543579 23.021454 28.175354 23.493347 28.175354 C 23.728912 28.187469 23.924835 28.378326 23.924835 28.606964 C 23.912354 29.013641 24.239655 29.344086 24.658691 29.356903 C 25.077728 29.356903 25.418243 29.039276 25.418243 28.632599 C 25.430725 28.403992 25.62738 28.213104 25.862976 28.213104 L 27.85318 28.251556 C 28.154816 27.869812 28.311859 27.412598 28.325043 26.929718 L 28.325043 26.688293 C 28.337524 25.798737 28.010223 24.934845 27.420929 24.261078 Z"/>
</svg>
