<?xml version="1.0" encoding="UTF-8"?>
<!-- Generated by Pixelmator Pro 3.4.1 -->
<svg width="60" height="111" viewBox="0 0 60 111" xmlns="http://www.w3.org/2000/svg">
    <path id="Path-copy-12" fill="#ffffff" fill-rule="evenodd" stroke="none" d="M 28.866974 6.384827 C 28.808655 6.384827 28.750336 6.384827 28.692017 6.384827 C 19.359985 6.450409 10.906281 12.010284 7.101318 20.560547 L 7.068512 20.62616 C 6.776947 21.276733 6.516357 21.927307 6.288544 22.608826 C 6.255737 22.707214 6.222961 22.803833 6.190155 22.902222 C 6.093567 23.195618 6.027954 23.454376 5.931396 23.747772 C 5.89859 23.942749 5.832977 24.10495 5.800171 24.267151 C 5.736389 24.462097 5.703583 24.593323 5.670776 24.755493 C 5.638 24.917694 5.572388 25.145508 5.541412 25.340454 C 5.508606 25.47168 5.4758 25.63385 5.4758 25.763245 C 5.410187 26.056641 5.346405 26.348206 5.313629 26.641602 C 5.313629 26.770996 5.280823 26.902191 5.248016 26.998779 C 5.21521 27.292175 5.182404 27.58374 5.151428 27.909912 L 5.151428 28.039307 C 5.118622 28.396484 5.118622 28.755493 5.085815 29.112671 L 5.085815 29.37323 L 5.085815 30.47757 L 5.118622 35.22467 L 5.248016 47.807739 L 5.280823 54.377136 L 5.313629 57.400391 L 5.442993 71.608917 C 5.442993 71.8367 5.442993 72.064514 5.4758 72.292297 C 5.4758 72.325073 5.4758 72.35788 5.4758 72.388855 C 5.508606 72.585693 5.541412 72.78064 5.572388 73.006622 L 5.605194 73.137817 C 5.638 73.332825 5.703583 73.527802 5.769196 73.690002 C 5.769196 73.755615 5.800171 73.788391 5.800171 73.852173 C 5.865784 74.016174 5.931396 74.211182 5.995148 74.373352 C 6.027954 74.438965 6.06076 74.46994 6.06076 74.535553 C 6.126373 74.664917 6.222961 74.828918 6.288544 74.991119 L 6.417938 75.186096 C 6.417938 75.282715 6.450745 75.381104 6.549133 75.510498 L 6.711334 75.738281 C 6.776947 75.83667 6.873505 75.966064 6.939117 76.064453 L 7.101318 76.25946 C 7.199707 76.388855 7.329102 76.487244 7.42749 76.583801 C 7.524078 76.715027 7.556885 76.746002 7.622498 76.811615 C 7.686279 76.877197 7.84845 77.006592 7.946869 77.10498 C 9.280792 78.20932 10.939087 78.794281 12.661163 78.794281 L 25.18045 78.674011 L 25.18045 78.674011 L 25.375427 101.197754 C 25.406403 103.473816 27.261505 105.261505 29.504791 105.261505 C 31.748047 105.23053 33.568542 103.377228 33.535736 101.132172 L 33.340729 78.599304 L 45.890991 78.502716 C 49.890961 78.46991 53.109161 75.186096 53.078186 71.186157 L 53.078186 70.081818 L 52.979767 58.408112 L 52.979767 56.9776 L 52.78479 34.80191 L 52.751984 30.05481 C 52.751984 29.697632 52.751984 29.340454 52.719177 28.983276 L 52.719177 28.68988 C 52.686371 28.332703 52.655396 28.006531 52.622589 27.682129 C 52.622589 27.58374 52.589813 27.487152 52.589813 27.355957 C 52.557007 27.129974 52.5242 26.902191 52.491394 26.674408 C 52.460419 26.512207 52.460419 26.348206 52.427612 26.218811 C 52.394806 26.056641 52.362 25.828857 52.329224 25.63385 C 52.265442 25.373291 52.199829 25.079895 52.134216 24.78833 C 52.10141 24.689911 52.068604 24.593323 52.068604 24.462097 C 51.060883 20.496765 49.04541 16.821167 46.217194 13.83075 L 46.022186 13.635773 C 45.761597 13.342407 45.468201 13.083618 45.209442 12.823029 L 45.014465 12.660828 C 44.331085 12.010284 43.583954 11.392517 42.802185 10.838531 L 42.769379 10.807556 C 42.379395 10.546967 41.98941 10.286377 41.599457 10.025787 L 41.533844 9.992981 C 37.747101 7.61853 33.357147 6.384827 28.866974 6.384827 Z"/>
    <path id="Path-copy-11" fill="none" stroke="#ffffff" stroke-width="8" stroke-linejoin="round" d="M 28.866974 6.384827 C 28.808655 6.384827 28.750336 6.384827 28.692017 6.384827 C 19.359985 6.450409 10.906281 12.010284 7.101318 20.560547 L 7.068512 20.62616 C 6.776947 21.276733 6.516357 21.927307 6.288544 22.608826 C 6.255737 22.707214 6.222961 22.803833 6.190155 22.902222 C 6.093567 23.195618 6.027954 23.454376 5.931396 23.747772 C 5.89859 23.942749 5.832977 24.10495 5.800171 24.267151 C 5.736389 24.462097 5.703583 24.593323 5.670776 24.755493 C 5.638 24.917694 5.572388 25.145508 5.541412 25.340454 C 5.508606 25.47168 5.4758 25.63385 5.4758 25.763245 C 5.410187 26.056641 5.346405 26.348206 5.313629 26.641602 C 5.313629 26.770996 5.280823 26.902191 5.248016 26.998779 C 5.21521 27.292175 5.182404 27.58374 5.151428 27.909912 L 5.151428 28.039307 C 5.118622 28.396484 5.118622 28.755493 5.085815 29.112671 L 5.085815 29.37323 L 5.085815 30.47757 L 5.118622 35.22467 L 5.248016 47.807739 L 5.280823 54.377136 L 5.313629 57.400391 L 5.442993 71.608917 C 5.442993 71.8367 5.442993 72.064514 5.4758 72.292297 C 5.4758 72.325073 5.4758 72.35788 5.4758 72.388855 C 5.508606 72.585693 5.541412 72.78064 5.572388 73.006622 L 5.605194 73.137817 C 5.638 73.332825 5.703583 73.527802 5.769196 73.690002 C 5.769196 73.755615 5.800171 73.788391 5.800171 73.852173 C 5.865784 74.016174 5.931396 74.211182 5.995148 74.373352 C 6.027954 74.438965 6.06076 74.46994 6.06076 74.535553 C 6.126373 74.664917 6.222961 74.828918 6.288544 74.991119 L 6.417938 75.186096 C 6.417938 75.282715 6.450745 75.381104 6.549133 75.510498 L 6.711334 75.738281 C 6.776947 75.83667 6.873505 75.966064 6.939117 76.064453 L 7.101318 76.25946 C 7.199707 76.388855 7.329102 76.487244 7.42749 76.583801 C 7.524078 76.715027 7.556885 76.746002 7.622498 76.811615 C 7.686279 76.877197 7.84845 77.006592 7.946869 77.10498 C 9.280792 78.20932 10.939087 78.794281 12.661163 78.794281 L 25.18045 78.674011 L 25.18045 78.674011 L 25.375427 101.197754 C 25.406403 103.473816 27.261505 105.261505 29.504791 105.261505 C 31.748047 105.23053 33.568542 103.377228 33.535736 101.132172 L 33.340729 78.599304 L 45.890991 78.502716 C 49.890961 78.46991 53.109161 75.186096 53.078186 71.186157 L 53.078186 70.081818 L 52.979767 58.408112 L 52.979767 56.9776 L 52.78479 34.80191 L 52.751984 30.05481 C 52.751984 29.697632 52.751984 29.340454 52.719177 28.983276 L 52.719177 28.68988 C 52.686371 28.332703 52.655396 28.006531 52.622589 27.682129 C 52.622589 27.58374 52.589813 27.487152 52.589813 27.355957 C 52.557007 27.129974 52.5242 26.902191 52.491394 26.674408 C 52.460419 26.512207 52.460419 26.348206 52.427612 26.218811 C 52.394806 26.056641 52.362 25.828857 52.329224 25.63385 C 52.265442 25.373291 52.199829 25.079895 52.134216 24.78833 C 52.10141 24.689911 52.068604 24.593323 52.068604 24.462097 C 51.060883 20.496765 49.04541 16.821167 46.217194 13.83075 L 46.022186 13.635773 C 45.761597 13.342407 45.468201 13.083618 45.209442 12.823029 L 45.014465 12.660828 C 44.331085 12.010284 43.583954 11.392517 42.802185 10.838531 L 42.769379 10.807556 C 42.379395 10.546967 41.98941 10.286377 41.599457 10.025787 L 41.533844 9.992981 C 37.747101 7.61853 33.357147 6.384827 28.866974 6.384827 Z"/>
    <path id="Path-copy-10" fill="#f0c47f" fill-rule="evenodd" stroke="none" d="M 33.373535 78.599304 L 25.211426 78.664917 L 25.406403 101.197754 C 25.406403 103.473816 27.261505 105.261505 29.504791 105.261505 C 31.748047 105.23053 33.568542 103.408234 33.535736 101.132172 L 33.373535 78.599304 Z"/>
    <path id="Path-copy-9" fill="#744242" fill-opacity="0.1741" fill-rule="evenodd" stroke="none" d="M 33.50293 78.46991 L 25.342621 78.568298 L 25.375427 82.305878 L 33.535736 82.20929 L 33.50293 78.46991 Z"/>
    <path id="Path-copy-8" fill="#744242" fill-opacity="0.1741" fill-rule="evenodd" stroke="none" d="M 27.338043 84.339569 C 27.011871 84.339569 26.70752 84.594696 26.70752 84.973755 L 26.838745 100.514404 C 26.838745 101.164948 27.097504 101.815521 27.585876 102.303894 C 27.707977 102.43692 27.864716 102.495239 28.019592 102.495239 C 28.354889 102.495239 28.692017 102.216431 28.692017 101.815521 L 28.560822 86.273041 C 28.560822 85.591492 28.269257 84.973755 27.780884 84.518158 C 27.647858 84.394226 27.491119 84.339569 27.338043 84.339569 Z"/>
    <path id="Path-copy-7" fill="#744242" fill-rule="evenodd" stroke="none" d="M 28.83963 6.384827 C 28.77951 6.384827 28.71936 6.384827 28.659241 6.384827 C 15.48941 6.481384 4.890839 17.276733 4.987427 30.444763 L 5.020233 35.22467 L 5.21521 57.367554 L 5.346405 71.608917 C 5.377411 75.588837 8.630219 78.796112 12.601044 78.796112 C 12.621094 78.796112 12.641113 78.796112 12.661163 78.794281 L 45.890991 78.502716 C 49.890961 78.46991 53.109161 75.186096 53.078186 71.186157 L 52.94696 56.9776 L 52.78479 34.80191 L 52.719177 30.05481 C 52.622589 16.914124 41.925629 6.384827 28.83963 6.384827 Z"/>
    <path id="Path-copy-6" fill="#ff8fc0" fill-rule="evenodd" stroke="none" d="M 52.883179 46.736206 C 38.120667 55.612671 22.091614 62.114685 5.313629 66.016235 L 5.346405 71.576111 C 5.346405 73.722778 6.32135 75.738281 7.946869 77.10498 C 23.813721 73.137817 38.966217 66.828979 52.979767 58.408112 L 52.979767 56.9776 L 52.883179 46.736206 Z"/>
    <path id="Path-copy-5" fill="#ff8fc0" fill-rule="evenodd" stroke="none" d="M 53.078186 70.081818 C 47.908295 73.20343 42.543396 76.031677 37.014526 78.599304 L 45.890991 78.502716 C 49.890961 78.46991 53.109161 75.186096 53.078186 71.186157 L 53.078186 70.081818 Z"/>
    <path id="Path-copy-4" fill="#ff8fc0" fill-rule="evenodd" stroke="none" d="M 37.502899 8.010315 C 28.041473 12.465851 18.188232 15.977448 8.045258 18.577881 C 5.995148 22.186035 4.95462 26.31543 4.987427 30.47757 L 4.987427 30.998749 C 19.684357 27.58374 33.861908 22.15509 47.095551 14.871307 C 44.526093 11.815308 41.242279 9.440826 37.502899 8.010315 Z"/>
    <path id="Path-copy-3" fill="#ff8fc0" fill-rule="evenodd" stroke="none" d="M 51.873627 23.84436 C 37.340698 32.494873 21.570435 38.834656 5.085815 42.670654 L 5.182404 54.34436 C 21.960419 50.44281 38.022247 43.938965 52.78479 35.029694 L 52.78479 34.80191 L 52.751984 30.05481 C 52.719177 27.942749 52.427612 25.861633 51.873627 23.84436 Z"/>
    <path id="Path-copy-2" fill="#ffffff" fill-opacity="0.3571" fill-rule="evenodd" stroke="none" d="M 18.261139 36.451111 C 18.24292 36.451111 18.22287 36.451111 18.20282 36.451111 L 14.20285 36.483887 C 12.382355 36.483887 10.919037 37.980011 10.919037 39.800507 L 11.114044 63.829468 C 11.114044 65.520569 12.480774 66.852692 14.170044 66.852692 L 16.739502 66.852692 C 19.503937 66.852692 21.747192 64.57663 21.714417 61.781189 L 21.552216 39.734894 C 21.552216 37.934448 20.087097 36.451111 18.261139 36.451111 Z"/>
    <path id="Path-copy" fill="#ffffff" fill-opacity="0.3571" fill-rule="evenodd" stroke="none" d="M 17.317169 16.40387 C 16.262054 16.40387 15.190552 16.821167 14.365021 17.756042 C 12.057983 20.323669 10.789673 23.673065 10.822449 27.12085 C 10.853455 29.037933 12.415161 30.59967 14.365021 30.59967 L 17.975037 30.566864 C 19.926727 30.534058 21.486603 28.974152 21.453827 27.022461 L 21.421021 20.454865 C 21.40097 18.002014 19.385498 16.40387 17.317169 16.40387 Z"/>
</svg>
