<?xml version="1.0" encoding="UTF-8"?>
<!-- Generated by Pixelmator Pro 3.4.1 -->
<svg width="56" height="111" viewBox="0 0 56 111" xmlns="http://www.w3.org/2000/svg">
    <path id="Path-copy-15" fill="#ffffff" fill-rule="evenodd" stroke="none" d="M 27.747192 5.965088 C 15.535828 5.965088 5.530579 14.820496 5.530579 25.683167 L 5.530579 72.229553 C 5.530579 75.587219 8.657227 78.350861 12.442383 78.350861 L 43.052002 78.350861 C 46.870361 78.350861 49.996948 75.587219 49.996948 72.229553 L 49.996948 25.683167 C 49.963745 14.820496 39.958557 5.965088 27.747192 5.965088 Z"/>
    <path id="Path-copy-14" fill="none" stroke="#ffffff" stroke-width="8" stroke-linejoin="round" d="M 27.747192 5.965088 C 15.535828 5.965088 5.530579 14.820496 5.530579 25.683167 L 5.530579 72.229553 C 5.530579 75.587219 8.657227 78.350861 12.442383 78.350861 L 43.052002 78.350861 C 46.870361 78.350861 49.996948 75.587219 49.996948 72.229553 L 49.996948 25.683167 C 49.963745 14.820496 39.958557 5.965088 27.747192 5.965088 Z"/>
    <path id="Path-copy-13" fill="#ffffff" fill-rule="evenodd" stroke="none" d="M 23.33667 78.350861 L 23.33667 82.136536 L 23.172546 101.098267 C 23.172546 103.369293 24.982117 105.245544 27.252808 105.245544 C 27.273132 105.245544 27.293396 105.245544 27.313721 105.245544 C 29.556763 105.245544 31.401367 103.415436 31.401367 101.162811 L 31.565552 82.202972 L 31.565552 78.417297 L 23.33667 78.350861 Z"/>
    <path id="Path-copy-12" fill="none" stroke="#ffffff" stroke-width="8" stroke-linejoin="round" d="M 23.33667 78.350861 L 23.33667 82.136536 L 23.172546 101.098267 C 23.172546 103.369293 24.982117 105.245544 27.252808 105.245544 C 27.273132 105.245544 27.293396 105.245544 27.313721 105.245544 C 29.556763 105.245544 31.401367 103.415436 31.401367 101.162811 L 31.565552 82.202972 L 31.565552 78.417297 L 23.33667 78.350861 Z"/>
    <path id="Path-copy-11" fill="#f0c47f" fill-rule="evenodd" stroke="none" d="M 23.369873 78.131317 L 23.172546 100.878723 C 23.172546 103.14975 24.982117 105.026001 27.252808 105.026001 C 27.273132 105.026001 27.293396 105.026001 27.313721 105.026001 C 29.556763 105.026001 31.401367 103.195892 31.401367 100.943268 L 31.598755 78.197754 L 23.369873 78.131317 Z"/>
    <path id="Path-copy-10" fill="#744242" fill-opacity="0.1741" fill-rule="evenodd" stroke="none" d="M 25.422974 83.876282 C 25.092773 83.876282 24.784729 84.136414 24.784729 84.518311 L 24.653748 100.18689 C 24.653748 100.878723 24.884338 101.537323 25.376831 102.029907 C 25.505981 102.170135 25.670166 102.232849 25.83429 102.232849 C 26.168213 102.232849 26.496521 101.967194 26.496521 101.568695 L 26.627502 85.835541 C 26.627502 85.176941 26.36554 84.518311 25.871216 84.057068 C 25.736572 83.931641 25.57605 83.876282 25.422974 83.876282 Z"/>
    <path id="Path-copy-9" fill="#744242" fill-opacity="0.1741" fill-rule="evenodd" stroke="none" d="M 23.369873 78.131317 L 23.33667 81.917023 L 31.565552 81.983429 L 31.598755 78.197754 L 23.369873 78.131317 Z"/>
    <path id="Path-copy-8" fill="#ff8fc0" fill-rule="evenodd" stroke="none" d="M 16.65918 51.20343 C 14.705688 51.20343 12.755981 51.769806 11.06073 52.90625 C 9.415344 53.992889 7.506165 54.585083 5.530579 54.585083 L 5.530579 72.229553 C 5.530579 75.587219 8.624023 78.350861 12.442383 78.350861 L 43.052002 78.350861 C 46.870361 78.350861 49.963745 75.587219 49.963745 72.229553 L 49.963745 54.55188 C 48.087769 54.518677 46.244995 53.926453 44.697388 52.90625 C 42.985596 51.769806 41.028442 51.20343 39.07312 51.20343 C 37.11969 51.20343 35.169922 51.769806 33.474731 52.90625 C 31.779541 54.026093 29.829773 54.585083 27.878174 54.585083 C 25.928406 54.585083 23.978638 54.026093 22.283386 52.90625 C 20.571594 51.769806 18.614441 51.20343 16.65918 51.20343 Z"/>
    <path id="Path-copy-7" fill="none" stroke="#ff8fc0" stroke-linejoin="round" d="M 16.65918 51.20343 C 14.705688 51.20343 12.755981 51.769806 11.06073 52.90625 C 9.415344 53.992889 7.506165 54.585083 5.530579 54.585083 L 5.530579 72.229553 C 5.530579 75.587219 8.624023 78.350861 12.442383 78.350861 L 43.052002 78.350861 C 46.870361 78.350861 49.963745 75.587219 49.963745 72.229553 L 49.963745 54.55188 C 48.087769 54.518677 46.244995 53.926453 44.697388 52.90625 C 42.985596 51.769806 41.028442 51.20343 39.07312 51.20343 C 37.11969 51.20343 35.169922 51.769806 33.474731 52.90625 C 31.779541 54.026093 29.829773 54.585083 27.878174 54.585083 C 25.928406 54.585083 23.978638 54.026093 22.283386 52.90625 C 20.571594 51.769806 18.614441 51.20343 16.65918 51.20343 Z"/>
    <path id="Path-copy-6" fill="#ffef8c" fill-rule="evenodd" stroke="none" d="M 27.747192 5.965088 C 15.535828 5.965088 5.530579 14.820496 5.530579 25.683167 L 5.530579 36.315247 C 7.506165 36.315247 9.446716 35.723022 11.093933 34.636383 L 11.06073 34.636383 C 12.755981 33.518372 14.705688 32.95752 16.65918 32.95752 C 18.614441 32.95752 20.571594 33.518372 22.283386 34.636383 C 23.978638 35.756226 25.928406 36.315247 27.878174 36.315247 C 29.829773 36.315247 31.779541 35.756226 33.474731 34.636383 C 35.169922 33.518372 37.11969 32.95752 39.07312 32.95752 C 41.028442 32.95752 42.985596 33.518372 44.697388 34.636383 C 46.244995 35.689819 48.087769 36.283875 49.963745 36.315247 L 49.963745 25.683167 C 49.963745 14.820496 39.958557 5.965088 27.747192 5.965088 Z"/>
    <path id="Path-copy-5" fill="none" stroke="#ffef8c" stroke-linejoin="round" d="M 27.747192 5.965088 C 15.535828 5.965088 5.530579 14.820496 5.530579 25.683167 L 5.530579 36.315247 C 7.506165 36.315247 9.446716 35.723022 11.093933 34.636383 L 11.06073 34.636383 C 12.755981 33.518372 14.705688 32.95752 16.65918 32.95752 C 18.614441 32.95752 20.571594 33.518372 22.283386 34.636383 C 23.978638 35.756226 25.928406 36.315247 27.878174 36.315247 C 29.829773 36.315247 31.779541 35.756226 33.474731 34.636383 C 35.169922 33.518372 37.11969 32.95752 39.07312 32.95752 C 41.028442 32.95752 42.985596 33.518372 44.697388 34.636383 C 46.244995 35.689819 48.087769 36.283875 49.963745 36.315247 L 49.963745 25.683167 C 49.963745 14.820496 39.958557 5.965088 27.747192 5.965088 Z"/>
    <path id="Path-copy-4" fill="#f0c47f" fill-rule="evenodd" stroke="none" d="M 16.65918 32.95752 C 14.705688 32.95752 12.755981 33.518372 11.06073 34.636383 C 9.415344 35.723022 7.506165 36.315247 5.530579 36.315247 L 5.530579 54.585083 C 7.506165 54.585083 9.415344 53.992889 11.06073 52.873047 C 12.755981 51.755035 14.705688 51.194214 16.65918 51.194214 C 18.614441 51.194214 20.571594 51.755035 22.283386 52.873047 C 23.978638 54.009491 25.928406 54.577698 27.878174 54.577698 C 29.829773 54.577698 31.779541 54.009491 33.474731 52.873047 C 35.169922 51.755035 37.11969 51.194214 39.07312 51.194214 C 41.028442 51.194214 42.985596 51.755035 44.697388 52.873047 C 46.244995 53.926453 48.087769 54.518677 49.963745 54.55188 L 49.963745 36.315247 C 48.087769 36.283875 46.244995 35.689819 44.697388 34.636383 C 42.985596 33.518372 41.028442 32.95752 39.07312 32.95752 C 37.11969 32.95752 35.169922 33.518372 33.474731 34.636383 C 31.779541 35.756226 29.829773 36.315247 27.878174 36.315247 C 25.928406 36.315247 23.978638 35.756226 22.283386 34.636383 C 20.571594 33.518372 18.614441 32.95752 16.65918 32.95752 Z"/>
    <path id="Path-copy-3" fill="none" stroke="#f0c47f" stroke-linejoin="round" d="M 16.65918 32.95752 C 14.705688 32.95752 12.755981 33.518372 11.06073 34.636383 C 9.415344 35.723022 7.506165 36.315247 5.530579 36.315247 L 5.530579 54.585083 C 7.506165 54.585083 9.415344 53.992889 11.06073 52.873047 C 12.755981 51.755035 14.705688 51.194214 16.65918 51.194214 C 18.614441 51.194214 20.571594 51.755035 22.283386 52.873047 C 23.978638 54.009491 25.928406 54.577698 27.878174 54.577698 C 29.829773 54.577698 31.779541 54.009491 33.474731 52.873047 C 35.169922 51.755035 37.11969 51.194214 39.07312 51.194214 C 41.028442 51.194214 42.985596 51.755035 44.697388 52.873047 C 46.244995 53.926453 48.087769 54.518677 49.963745 54.55188 L 49.963745 36.315247 C 48.087769 36.283875 46.244995 35.689819 44.697388 34.636383 C 42.985596 33.518372 41.028442 32.95752 39.07312 32.95752 C 37.11969 32.95752 35.169922 33.518372 33.474731 34.636383 C 31.779541 35.756226 29.829773 36.315247 27.878174 36.315247 C 25.928406 36.315247 23.978638 35.756226 22.283386 34.636383 C 20.571594 33.518372 18.614441 32.95752 16.65918 32.95752 Z"/>
    <path id="Path-copy-2" fill="#ffffff" fill-opacity="0.3571" fill-rule="evenodd" stroke="none" d="M 16.755066 30.489075 C 15.010071 30.489075 13.595276 31.904114 13.595276 33.649353 L 13.562073 56.494537 C 13.562073 58.073761 14.845886 59.390991 16.45813 59.390991 L 18.926208 59.390991 C 21.560303 59.390991 23.698242 57.250946 23.698242 54.618286 L 23.731445 33.649353 C 23.731445 31.872742 22.316589 30.489075 20.571594 30.489075 Z"/>
    <path id="Path-copy" fill="#ffffff" fill-opacity="0.3571" fill-rule="evenodd" stroke="none" d="M 19.848511 11.459137 C 18.852417 11.459137 17.841553 11.846558 17.050232 12.713654 C 14.845886 15.150757 13.628479 18.277832 13.628479 21.569092 C 13.628479 23.412109 15.107849 24.893555 16.952454 24.926758 L 20.40741 24.926758 C 22.250183 24.926758 23.731445 23.412109 23.731445 21.569092 L 23.764648 15.348145 C 23.764648 13.001465 21.837036 11.459137 19.848511 11.459137 Z"/>
</svg>
