<?xml version="1.0" encoding="UTF-8"?>
<!-- Generated by Pixelmator Pro 3.4.1 -->
<svg width="46" height="53" viewBox="0 0 46 53" xmlns="http://www.w3.org/2000/svg">
    <path id="Path-copy-42" fill="#ffffff" fill-rule="evenodd" stroke="none" d="M 25.471191 6.137604 C 25.083191 6.136536 24.693176 6.191559 24.322632 6.306458 C 23.504761 6.571594 23.534302 7.705811 24.334839 7.975403 C 24.651489 8.076324 24.934326 8.24353 25.167419 8.477905 C 26.049438 9.380707 26.111633 10.882446 25.508362 11.998962 C 25.038574 12.814819 24.319641 13.480408 23.450928 13.878174 C 23.484924 13.744568 23.502136 13.610931 23.502563 13.461334 C 23.502747 13.378113 23.502991 13.293976 23.503235 13.210754 L 23.503479 13.127563 C 23.50354 13.093903 23.486938 13.01062 23.470337 12.944214 L 23.453735 12.844116 C 23.437073 12.793579 23.437195 12.744019 23.420532 12.693481 C 23.403809 12.643921 23.40387 12.627075 23.388062 12.593384 C 23.388184 12.559692 23.354614 12.510071 23.337952 12.459534 L 23.304565 12.359406 C 23.288818 12.309814 23.255249 12.276062 23.238586 12.225525 C 23.221863 12.175903 23.205078 12.159058 23.205139 12.142212 C 23.189331 12.109436 23.139099 12.025146 23.10553 11.975525 L 23.072998 11.908112 C 23.022644 11.858398 22.973267 11.791901 22.939819 11.724487 L 22.856812 11.657898 C 22.840088 11.607361 22.806519 11.574524 22.772949 11.540771 L 22.690002 11.457336 C 22.657288 11.44043 22.623718 11.406677 22.590149 11.372925 L 22.507202 11.28949 L 22.407349 11.222839 L 22.307495 11.156158 C 22.273926 11.122406 22.240295 11.105469 22.207642 11.088562 L 22.090942 11.021851 C 22.345581 9.554688 21.915833 8.068787 20.934387 6.964661 C 20.886841 6.908447 20.829895 6.884918 20.774719 6.884766 C 20.598022 6.884277 20.430969 7.119446 20.582825 7.297485 C 21.430969 8.267517 21.811707 9.553223 21.624023 10.820496 L 21.524048 10.78656 C 21.491333 10.786469 21.457764 10.769531 21.424072 10.76947 C 21.189575 10.7099 20.958679 10.682159 20.736206 10.681519 C 18.68396 10.675873 17.261047 13.014038 18.460083 14.898468 C 17.342468 15.012268 16.223816 15.175598 15.188599 15.589722 C 14.153381 16.020691 13.233276 16.71936 12.813477 17.735474 C 12.477356 18.585327 12.541992 19.553223 12.990479 20.354767 C 12.990479 20.354767 13.006287 20.371643 13.006287 20.371643 C 13.05658 20.455933 13.105835 20.556091 13.172913 20.639496 C 13.289368 20.789429 13.421753 20.923462 13.555115 21.057556 C 13.605469 21.107239 13.671753 21.141083 13.737976 21.191772 C 13.087952 21.273163 12.453613 21.437836 11.851807 21.669922 C 10.482361 22.233643 9.261902 23.381226 9.007263 24.848419 C 8.973022 25.065216 8.972412 25.282135 8.988708 25.482269 L 8.988647 25.499084 C 8.988464 25.565491 8.988281 25.632782 9.004883 25.716064 L 9.004822 25.73288 C 9.004639 25.799255 9.021301 25.865692 9.037964 25.933044 L 9.037903 25.94989 C 9.053589 26.016296 9.070251 26.082733 9.086853 26.166931 C 9.185974 26.500061 9.352478 26.817444 9.551758 27.102234 L 9.58429 27.168701 L 9.668091 27.285797 L 9.717468 27.352325 L 9.817261 27.452637 L 9.884338 27.536987 L 9.967285 27.637238 L 10.016663 27.68692 C 8.965576 27.767242 7.947388 28.098206 7.061401 28.6633 C 6.108704 29.311401 5.40564 30.326691 5.319275 31.461487 L 5.318665 31.694305 C 5.332764 32.345062 5.547974 32.962738 5.914001 33.480774 C 6.013672 33.614746 6.113342 33.731903 6.229919 33.849091 C 6.545959 34.183746 6.96228 34.41864 7.41272 34.486267 L 8.05957 35.906372 L 12.486938 45.610413 C 12.652344 45.978302 12.885193 46.295898 13.150879 46.579926 C 13.317749 46.763641 13.500488 46.931488 13.700195 47.081635 L 13.717041 47.081696 C 13.899902 47.215881 14.116455 47.333374 14.316345 47.417114 L 14.349976 47.434052 C 14.449829 47.484802 14.549805 47.517822 14.632935 47.551697 L 14.68335 47.568665 C 14.80011 47.601715 14.900085 47.635651 15.016907 47.652802 L 15.066467 47.652924 C 15.149597 47.686829 15.249634 47.687103 15.350525 47.704193 L 15.433716 47.720337 C 15.533752 47.720612 15.650574 47.737762 15.767456 47.738068 L 23.357117 47.85907 L 28.294373 47.955902 L 28.695496 47.957001 L 28.812378 47.941437 L 28.89563 47.924835 L 28.995728 47.908295 C 29.062134 47.891632 29.129517 47.875 29.212769 47.858398 L 29.296021 47.842743 C 29.413025 47.809387 29.546814 47.776123 29.663818 47.726868 C 29.74707 47.693451 29.813599 47.659973 29.896851 47.627472 L 29.913757 47.610687 L 30.047607 47.560577 C 30.147766 47.511292 30.23114 47.444214 30.33136 47.394928 L 30.398804 47.344635 L 30.53186 47.244965 L 30.682617 47.145355 C 30.7323 47.095917 30.782959 47.045593 30.849487 46.996216 L 30.866394 46.962585 L 30.949768 46.896454 C 31.217957 46.612946 31.452576 46.296661 31.636841 45.930664 L 33.867859 41.449005 L 37.088928 34.968323 C 38.876709 33.905548 39.834351 31.45578 39.12262 29.485718 C 39.07251 29.351898 39.006592 29.202118 38.940552 29.068237 L 38.873535 28.951172 C 38.824341 28.834167 38.774109 28.733978 38.708008 28.633759 C 38.691284 28.600067 38.674561 28.567291 38.657776 28.5336 C 38.475342 28.249786 38.292786 27.998718 38.093323 27.764435 L 38.042969 27.714722 C 37.960022 27.614471 37.860291 27.51416 37.743713 27.396973 L 37.710144 27.36322 C 37.344666 26.994751 36.944397 26.693542 36.511353 26.425873 C 35.895325 26.039917 35.245422 25.737976 34.5625 25.536011 C 34.328979 25.468994 34.095398 25.417877 33.845886 25.367615 C 34.063965 24.934387 34.198059 24.467285 34.266663 24.000946 C 34.299988 23.784119 34.317383 23.567261 34.317993 23.350342 C 34.335449 23.133484 34.319214 22.916504 34.302917 22.7164 C 34.254272 22.382477 34.188782 22.065369 34.088623 21.764954 C 34.056274 21.631165 34.006104 21.51416 33.940125 21.38028 L 33.923401 21.330688 C 33.874146 21.213684 33.80719 21.096619 33.741089 20.979553 C 33.043396 19.709839 31.845398 18.806152 30.427979 18.468445 C 30.361694 18.451447 30.277588 18.434387 30.211182 18.434204 C 30.228149 18.384705 30.245056 18.351074 30.262024 18.317474 C 30.262085 18.283813 30.295044 18.200684 30.328857 18.151245 L 30.362793 18.034454 C 30.379822 17.967194 30.41272 17.917725 30.429688 17.851379 L 30.463623 17.751465 L 30.53064 17.534729 L 30.564697 17.384277 C 30.581726 17.317932 30.598694 17.250671 30.614807 17.184326 C 30.631836 17.117065 30.648743 17.084412 30.648865 17.033905 C 30.665771 17.001221 30.665955 16.933899 30.682922 16.884399 C 30.69989 16.833984 30.700073 16.784424 30.716064 16.733948 C 30.716248 16.684418 30.733215 16.633972 30.733337 16.584412 L 30.767395 16.43399 C 30.767517 16.383484 30.784485 16.333984 30.784668 16.283508 C 30.801636 16.234009 30.801758 16.183533 30.81781 16.134003 C 30.852295 15.817139 30.886902 15.483459 30.904602 15.166565 C 31.02655 13.331573 30.931763 11.412781 30.18573 9.709076 C 29.439636 8.005402 27.958923 6.550232 26.141418 6.194641 C 25.920898 6.157532 25.696533 6.138245 25.471191 6.137604 Z"/>
    <path id="Path-copy-41" fill="none" stroke="#ffffff" stroke-width="8" stroke-linejoin="round" d="M 25.471191 6.137604 C 25.083191 6.136536 24.693176 6.191559 24.322632 6.306458 C 23.504761 6.571594 23.534302 7.705811 24.334839 7.975403 C 24.651489 8.076324 24.934326 8.24353 25.167419 8.477905 C 26.049438 9.380707 26.111633 10.882446 25.508362 11.998962 C 25.038574 12.814819 24.319641 13.480408 23.450928 13.878174 C 23.484924 13.744568 23.502136 13.610931 23.502563 13.461334 C 23.502747 13.378113 23.502991 13.293976 23.503235 13.210754 L 23.503479 13.127563 C 23.50354 13.093903 23.486938 13.01062 23.470337 12.944214 L 23.453735 12.844116 C 23.437073 12.793579 23.437195 12.744019 23.420532 12.693481 C 23.403809 12.643921 23.40387 12.627075 23.388062 12.593384 C 23.388184 12.559692 23.354614 12.510071 23.337952 12.459534 L 23.304565 12.359406 C 23.288818 12.309814 23.255249 12.276062 23.238586 12.225525 C 23.221863 12.175903 23.205078 12.159058 23.205139 12.142212 C 23.189331 12.109436 23.139099 12.025146 23.10553 11.975525 L 23.072998 11.908112 C 23.022644 11.858398 22.973267 11.791901 22.939819 11.724487 L 22.856812 11.657898 C 22.840088 11.607361 22.806519 11.574524 22.772949 11.540771 L 22.690002 11.457336 C 22.657288 11.44043 22.623718 11.406677 22.590149 11.372925 L 22.507202 11.28949 L 22.407349 11.222839 L 22.307495 11.156158 C 22.273926 11.122406 22.240295 11.105469 22.207642 11.088562 L 22.090942 11.021851 C 22.345581 9.554688 21.915833 8.068787 20.934387 6.964661 C 20.886841 6.908447 20.829895 6.884918 20.774719 6.884766 C 20.598022 6.884277 20.430969 7.119446 20.582825 7.297485 C 21.430969 8.267517 21.811707 9.553223 21.624023 10.820496 L 21.524048 10.78656 C 21.491333 10.786469 21.457764 10.769531 21.424072 10.76947 C 21.189575 10.7099 20.958679 10.682159 20.736206 10.681519 C 18.68396 10.675873 17.261047 13.014038 18.460083 14.898468 C 17.342468 15.012268 16.223816 15.175598 15.188599 15.589722 C 14.153381 16.020691 13.233276 16.71936 12.813477 17.735474 C 12.477356 18.585327 12.541992 19.553223 12.990479 20.354767 C 12.990479 20.354767 13.006287 20.371643 13.006287 20.371643 C 13.05658 20.455933 13.105835 20.556091 13.172913 20.639496 C 13.289368 20.789429 13.421753 20.923462 13.555115 21.057556 C 13.605469 21.107239 13.671753 21.141083 13.737976 21.191772 C 13.087952 21.273163 12.453613 21.437836 11.851807 21.669922 C 10.482361 22.233643 9.261902 23.381226 9.007263 24.848419 C 8.973022 25.065216 8.972412 25.282135 8.988708 25.482269 L 8.988647 25.499084 C 8.988464 25.565491 8.988281 25.632782 9.004883 25.716064 L 9.004822 25.73288 C 9.004639 25.799255 9.021301 25.865692 9.037964 25.933044 L 9.037903 25.94989 C 9.053589 26.016296 9.070251 26.082733 9.086853 26.166931 C 9.185974 26.500061 9.352478 26.817444 9.551758 27.102234 L 9.58429 27.168701 L 9.668091 27.285797 L 9.717468 27.352325 L 9.817261 27.452637 L 9.884338 27.536987 L 9.967285 27.637238 L 10.016663 27.68692 C 8.965576 27.767242 7.947388 28.098206 7.061401 28.6633 C 6.108704 29.311401 5.40564 30.326691 5.319275 31.461487 L 5.318665 31.694305 C 5.332764 32.345062 5.547974 32.962738 5.914001 33.480774 C 6.013672 33.614746 6.113342 33.731903 6.229919 33.849091 C 6.545959 34.183746 6.96228 34.41864 7.41272 34.486267 L 8.05957 35.906372 L 12.486938 45.610413 C 12.652344 45.978302 12.885193 46.295898 13.150879 46.579926 C 13.317749 46.763641 13.500488 46.931488 13.700195 47.081635 L 13.717041 47.081696 C 13.899902 47.215881 14.116455 47.333374 14.316345 47.417114 L 14.349976 47.434052 C 14.449829 47.484802 14.549805 47.517822 14.632935 47.551697 L 14.68335 47.568665 C 14.80011 47.601715 14.900085 47.635651 15.016907 47.652802 L 15.066467 47.652924 C 15.149597 47.686829 15.249634 47.687103 15.350525 47.704193 L 15.433716 47.720337 C 15.533752 47.720612 15.650574 47.737762 15.767456 47.738068 L 23.357117 47.85907 L 28.294373 47.955902 L 28.695496 47.957001 L 28.812378 47.941437 L 28.89563 47.924835 L 28.995728 47.908295 C 29.062134 47.891632 29.129517 47.875 29.212769 47.858398 L 29.296021 47.842743 C 29.413025 47.809387 29.546814 47.776123 29.663818 47.726868 C 29.74707 47.693451 29.813599 47.659973 29.896851 47.627472 L 29.913757 47.610687 L 30.047607 47.560577 C 30.147766 47.511292 30.23114 47.444214 30.33136 47.394928 L 30.398804 47.344635 L 30.53186 47.244965 L 30.682617 47.145355 C 30.7323 47.095917 30.782959 47.045593 30.849487 46.996216 L 30.866394 46.962585 L 30.949768 46.896454 C 31.217957 46.612946 31.452576 46.296661 31.636841 45.930664 L 33.867859 41.449005 L 37.088928 34.968323 C 38.876709 33.905548 39.834351 31.45578 39.12262 29.485718 C 39.07251 29.351898 39.006592 29.202118 38.940552 29.068237 L 38.873535 28.951172 C 38.824341 28.834167 38.774109 28.733978 38.708008 28.633759 C 38.691284 28.600067 38.674561 28.567291 38.657776 28.5336 C 38.475342 28.249786 38.292786 27.998718 38.093323 27.764435 L 38.042969 27.714722 C 37.960022 27.614471 37.860291 27.51416 37.743713 27.396973 L 37.710144 27.36322 C 37.344666 26.994751 36.944397 26.693542 36.511353 26.425873 C 35.895325 26.039917 35.245422 25.737976 34.5625 25.536011 C 34.328979 25.468994 34.095398 25.417877 33.845886 25.367615 C 34.063965 24.934387 34.198059 24.467285 34.266663 24.000946 C 34.299988 23.784119 34.317383 23.567261 34.317993 23.350342 C 34.335449 23.133484 34.319214 22.916504 34.302917 22.7164 C 34.254272 22.382477 34.188782 22.065369 34.088623 21.764954 C 34.056274 21.631165 34.006104 21.51416 33.940125 21.38028 L 33.923401 21.330688 C 33.874146 21.213684 33.80719 21.096619 33.741089 20.979553 C 33.043396 19.709839 31.845398 18.806152 30.427979 18.468445 C 30.361694 18.451447 30.277588 18.434387 30.211182 18.434204 C 30.228149 18.384705 30.245056 18.351074 30.262024 18.317474 C 30.262085 18.283813 30.295044 18.200684 30.328857 18.151245 L 30.362793 18.034454 C 30.379822 17.967194 30.41272 17.917725 30.429688 17.851379 L 30.463623 17.751465 L 30.53064 17.534729 L 30.564697 17.384277 C 30.581726 17.317932 30.598694 17.250671 30.614807 17.184326 C 30.631836 17.117065 30.648743 17.084412 30.648865 17.033905 C 30.665771 17.001221 30.665955 16.933899 30.682922 16.884399 C 30.69989 16.833984 30.700073 16.784424 30.716064 16.733948 C 30.716248 16.684418 30.733215 16.633972 30.733337 16.584412 L 30.767395 16.43399 C 30.767517 16.383484 30.784485 16.333984 30.784668 16.283508 C 30.801636 16.234009 30.801758 16.183533 30.81781 16.134003 C 30.852295 15.817139 30.886902 15.483459 30.904602 15.166565 C 31.02655 13.331573 30.931763 11.412781 30.18573 9.709076 C 29.439636 8.005402 27.958923 6.550232 26.141418 6.194641 C 25.920898 6.157532 25.696533 6.138245 25.471191 6.137604 Z"/>
    <path id="Path-copy-40" fill="#f0c47f" fill-rule="evenodd" stroke="none" d="M 25.493164 6.294312 C 25.103271 6.293274 24.717896 6.354828 24.345459 6.470673 C 23.527649 6.718994 23.541321 7.853149 24.357727 8.139618 C 24.674377 8.24054 24.957214 8.407715 25.190308 8.64212 C 26.072327 9.529022 26.134521 11.046631 25.53125 12.146362 C 24.927002 13.261963 23.807617 14.009644 22.605103 14.406494 C 21.419434 14.804321 20.151367 14.900879 18.88324 15.014221 C 17.631958 15.126709 16.363708 15.273743 15.194641 15.753906 C 14.192139 16.169067 13.239319 16.883545 12.819519 17.899597 C 12.002563 19.872009 13.478638 21.987213 15.544861 21.99292 C 15.643005 21.993164 15.743103 21.987854 15.845032 21.97876 C 16.448242 21.920593 17.075623 21.901764 17.716064 21.903534 C 19.191467 21.907593 20.739441 22.022217 22.236267 22.026337 C 23.360107 22.029419 24.456055 21.969818 25.471069 21.754761 C 26.80603 21.475159 28.174988 21.078796 29.162048 20.146545 C 30.433228 18.932739 30.805725 17.081604 30.927429 15.33075 C 31.049438 13.478943 30.937866 11.56012 30.208557 9.873291 C 29.462524 8.169617 27.981812 6.714447 26.164307 6.358826 C 25.940002 6.316132 25.715698 6.294952 25.493164 6.294312 Z"/>
    <path id="Path-copy-39" fill="#f0c47f" fill-rule="evenodd" stroke="none" d="M 25.493164 6.294312 C 25.103271 6.293274 24.717896 6.354828 24.345459 6.470673 C 23.527649 6.718994 23.541321 7.853149 24.357727 8.139618 C 24.674377 8.24054 24.957214 8.407715 25.190308 8.64212 C 26.072327 9.529022 26.134521 11.046631 25.53125 12.146362 C 24.927002 13.261963 23.807617 14.009644 22.605103 14.406494 C 21.419434 14.804321 20.151367 14.900879 18.88324 15.014221 C 17.631958 15.126709 16.363708 15.273743 15.194641 15.753906 C 14.192139 16.169067 13.239319 16.883545 12.819519 17.899597 C 12.002563 19.872009 13.478638 21.987213 15.544861 21.99292 C 15.643005 21.993164 15.743103 21.987854 15.845032 21.97876 C 16.448242 21.920593 17.075623 21.901764 17.716064 21.903534 C 19.191467 21.907593 20.739441 22.022217 22.236267 22.026337 C 23.360107 22.029419 24.456055 21.969818 25.471069 21.754761 C 26.80603 21.475159 28.174988 21.078796 29.162048 20.146545 C 30.433228 18.932739 30.805725 17.081604 30.927429 15.33075 C 31.049438 13.478943 30.937866 11.56012 30.208557 9.873291 C 29.462524 8.169617 27.981812 6.714447 26.164307 6.358826 C 25.940002 6.316132 25.715698 6.294952 25.493164 6.294312 Z"/>
    <path id="Path-copy-38" fill="#f0c47f" fill-rule="evenodd" stroke="none" d="M 7.395752 34.486267 L 12.486755 45.610443 C 13.083435 46.896729 14.348999 47.717377 15.767212 47.754944 L 28.294189 47.955933 C 28.309143 47.956909 28.323181 47.95697 28.338135 47.957001 C 29.738708 47.960876 31.00592 47.16684 31.636719 45.913879 L 37.088745 34.968384 L 7.395752 34.486267 Z"/>
    <path id="Path-copy-37" fill="#ffffff" fill-opacity="0.1473" fill-rule="evenodd" stroke="none" d="M 23.356934 47.8591 L 23.356934 47.8591 C 23.372803 47.860077 23.389648 47.860138 23.405579 47.860168 L 23.405579 47.860168 L 23.356934 47.8591 Z M 7.395752 34.486267 L 8.042603 35.889557 L 26.858765 36.207947 C 28.99408 36.247498 30.355774 38.46991 29.399658 40.385803 L 26.699402 45.832916 C 26.074219 47.073761 24.809875 47.864044 23.441101 47.860291 C 23.429871 47.860229 23.417725 47.860199 23.405579 47.860168 L 23.405579 47.860168 L 28.294189 47.955933 C 28.309143 47.956909 28.323181 47.95697 28.338135 47.957001 C 29.738708 47.960876 31.00592 47.16684 31.636719 45.913879 L 36.400574 36.351135 L 37.088745 34.968384 L 32.150513 34.888367 L 7.395752 34.486267 Z"/>
    <path id="Path-copy-36" fill="#ffffff" fill-opacity="0.1473" fill-rule="evenodd" stroke="none" d="M 13.602112 37.756165 C 12.613892 37.753418 11.95752 38.776337 12.369202 39.671295 L 13.993774 43.212738 C 14.109924 43.463623 14.360046 43.630737 14.643311 43.6315 L 16.478577 43.670227 C 16.661804 43.670746 16.812744 43.52063 16.896729 43.254395 L 18.025146 39.554138 C 18.277161 38.687195 17.64563 37.81781 16.745361 37.798492 L 13.625488 37.756226 C 13.617981 37.756195 13.609619 37.756165 13.602112 37.756165 Z"/>
    <path id="Path-copy-35" fill="#744242" fill-opacity="0.1741" fill-rule="evenodd" stroke="none" d="M 30.817444 16.117249 L 30.817444 16.117249 C 30.433167 16.466797 29.965027 16.715149 29.447754 16.796936 L 27.812683 17.059814 C 26.544373 17.256409 25.30835 17.603577 24.123352 18.083679 L 22.886902 18.564575 C 21.233948 19.226654 19.480713 19.638794 17.712341 19.767639 L 14.675903 19.992981 C 14.598267 19.998383 14.521606 20.000977 14.444031 20.000763 C 13.80542 19.998993 13.176697 19.812134 12.641968 19.453491 L 12.641968 19.453491 C 12.72406 19.870728 12.906189 20.271393 13.155762 20.622681 C 13.728699 21.381592 14.605408 21.825317 15.536621 21.827881 C 15.631042 21.828125 15.72644 21.82373 15.821777 21.814636 C 16.42688 21.75647 17.056152 21.73764 17.699402 21.739441 C 19.151428 21.743408 20.673218 21.853271 22.150452 21.857361 C 23.300415 21.860535 24.423462 21.799133 25.464722 21.573853 C 26.782837 21.294189 28.16864 20.897888 29.138855 19.966522 C 30.192505 18.984924 30.613403 17.550903 30.817444 16.117249 Z"/>
    <path id="Path-copy-34" fill="#f0c47f" fill-rule="evenodd" stroke="none" d="M 29.196838 18.328613 C 27.931885 18.325104 26.650818 18.714233 25.454651 19.188721 C 23.868103 19.835083 22.314819 20.631104 20.64502 20.943451 C 19.830261 21.100159 18.998962 21.136169 18.164978 21.133881 C 17.51239 21.13208 16.858948 21.106903 16.207275 21.098572 C 15.994141 21.092346 15.780029 21.088989 15.564087 21.088379 C 14.29718 21.084869 13.005737 21.187897 11.834778 21.669922 C 10.448547 22.233612 9.244873 23.381226 8.990234 24.848419 C 8.752808 26.181946 9.583191 27.502533 10.665771 28.222626 C 11.398315 28.708954 12.266052 28.694519 13.116577 28.78009 C 14.700989 28.918152 16.302307 29.022614 17.886963 29.059723 C 18.44696 29.073425 19.006042 29.081512 19.565125 29.083038 C 22.108215 29.090057 24.64978 28.971802 27.179504 28.718872 C 29.298706 28.507782 31.56897 28.113892 33.041138 26.565918 C 34.212463 25.268616 34.617676 23.434418 34.08844 21.764984 C 33.526428 20.111359 32.145203 18.856567 30.427795 18.468506 C 30.021362 18.372925 29.610107 18.329742 29.196838 18.328613 Z"/>
    <path id="Path-copy-33" fill="#744242" fill-opacity="0.1741" fill-rule="evenodd" stroke="none" d="M 33.740906 20.979614 C 33.685913 22.614685 32.414429 23.945374 30.779785 24.074554 L 28.676636 24.218353 C 27.058838 24.33075 25.456421 24.62738 23.903137 25.089661 L 22.284302 25.585388 C 20.217285 26.199554 18.075317 26.51059 15.930542 26.504669 C 15.823059 26.504395 15.715515 26.503143 15.608948 26.501923 L 11.738342 26.440765 C 10.6875 26.421021 9.688293 26.001282 8.939514 25.282104 L 8.939514 25.282104 C 8.936218 26.466675 9.68396 27.569183 10.66571 28.222626 C 11.398315 28.708954 12.265991 28.711365 13.116577 28.78009 C 14.700989 28.918152 16.302246 29.022614 17.886902 29.059723 C 18.497375 29.078217 19.10791 29.088318 19.718445 29.090027 C 22.210083 29.096893 24.700256 28.970062 27.179443 28.735687 C 29.298645 28.524628 31.585754 28.113953 33.041077 26.565918 C 34.212463 25.268646 34.617676 23.434418 34.08844 21.765015 C 34.00592 21.497375 33.889832 21.230591 33.740906 20.979614 Z"/>
    <path id="Path-copy-32" fill="#f0c47f" fill-rule="evenodd" stroke="none" d="M 31.678284 25.142883 C 30.568481 25.139801 29.450806 25.283508 28.356323 25.502075 C 26.303833 25.913391 24.317139 26.57547 22.280396 27.037354 C 20.036072 27.535095 17.744751 27.786804 15.447571 27.780487 C 15.010925 27.779266 14.574341 27.768707 14.136841 27.74881 C 13.194519 27.693848 12.251404 27.599609 11.316467 27.597046 C 11.043457 27.596283 10.772278 27.603943 10.501099 27.621918 C 9.282654 27.701752 8.047729 27.981628 7.044495 28.663269 C 6.042236 29.343964 5.28833 30.476898 5.301758 31.694275 C 5.298401 32.912506 6.194946 34.299652 7.395874 34.486237 L 37.088867 34.968353 C 38.876648 33.905548 39.867981 31.440002 39.139404 29.485779 C 38.410889 27.515686 36.562622 26.125916 34.5625 25.536041 C 33.619873 25.260437 32.65155 25.145569 31.678284 25.142883 Z"/>
    <path id="Path-copy-31" fill="#4c2b2b" fill-opacity="0.3527" fill-rule="evenodd" stroke="none" d="M 36.511292 26.425903 L 36.726929 26.877136 C 37.373901 28.246765 37.303101 29.848175 36.531921 31.12973 C 35.718384 32.531799 34.219177 33.375671 32.602661 33.371216 C 32.586792 33.371155 32.570862 33.371124 32.555908 33.371094 L 9.018433 32.972321 C 7.600159 32.952515 6.250916 32.313965 5.335754 31.227814 C 5.302673 31.377319 5.302246 31.527832 5.301758 31.694275 C 5.298462 32.895691 6.194946 34.299652 7.395874 34.486237 L 37.088867 34.968353 C 38.876648 33.905548 39.83429 31.455811 39.12262 29.485748 C 38.609131 28.199677 37.693909 27.129425 36.511292 26.425903 Z"/>
    <path id="Path-copy-30" fill="#4c2b2b" fill-opacity="0.3527" fill-rule="evenodd" stroke="none" d="M 31.43158 26.439148 C 30.907104 26.437714 30.385254 26.477417 29.87085 26.557343 C 29.053345 26.671936 28.235535 26.903412 27.467102 27.201416 C 27.116211 27.317322 26.78186 27.516479 26.514648 27.783142 C 26.229675 28.065643 26.145325 28.465576 26.26123 28.833344 C 26.394226 29.083344 26.610596 29.268127 26.893677 29.352112 C 27.160828 29.436066 27.444031 29.47052 27.727356 29.471283 C 28.33313 29.492584 28.94458 29.50177 29.55603 29.503448 C 29.987061 29.504639 30.419006 29.502106 30.847229 29.496735 C 30.913574 29.498779 30.980896 29.499908 31.047302 29.500092 C 31.513855 29.501373 31.979614 29.451233 32.432373 29.350586 C 33.066772 29.185913 33.684753 28.837006 33.969788 28.220703 C 34.15509 27.80423 34.256836 27.187439 33.89032 26.852661 C 33.474426 26.451324 32.640381 26.48175 32.106567 26.46347 C 31.881287 26.447876 31.656006 26.439789 31.43158 26.439148 Z"/>
    <path id="Path-copy-29" fill="#ffffff" fill-opacity="0.3571" fill-rule="evenodd" stroke="none" d="M 28.983337 19.522095 C 28.226074 19.52002 27.295715 19.871765 26.802368 20.092957 C 26.384827 20.29187 25.93335 20.607574 25.916138 21.075012 C 25.930908 21.47522 26.180481 21.843353 26.563477 21.978088 C 26.854004 22.066772 27.153992 22.108765 27.449402 22.109558 C 27.543884 22.109833 27.638306 22.105408 27.730896 22.09726 C 27.778564 22.099243 27.825317 22.100342 27.872986 22.100464 C 28.292786 22.101624 28.710876 22.036377 29.116028 21.917847 C 29.950806 21.636841 30.688904 20.47113 29.806458 19.751556 C 29.593689 19.587341 29.304077 19.52298 28.983337 19.522095 Z"/>
    <path id="Path-copy-28" fill="#ffffff" fill-opacity="0.3571" fill-rule="evenodd" stroke="none" d="M 27.910583 11.18396 C 27.819885 11.183716 27.72998 11.243286 27.710999 11.354492 C 27.608704 12.154541 27.339172 12.938232 26.903442 13.620483 C 26.618896 14.087189 26.850952 14.68808 27.384399 14.840088 L 27.450745 14.857086 C 27.520813 14.875977 27.591858 14.885529 27.661011 14.885712 C 28.070557 14.886841 28.440735 14.569977 28.470886 14.141846 C 28.506287 13.175201 28.37616 12.223999 28.094421 11.305084 C 28.057251 11.223633 27.984436 11.184143 27.910583 11.18396 Z"/>
    <path id="Path-copy-27" fill="#4c2b2b" fill-opacity="0.3527" fill-rule="evenodd" stroke="none" d="M 23.449768 28.20755 C 23.109436 28.206604 22.807617 28.487183 22.658203 28.756042 C 22.608459 28.840057 22.574524 28.940002 22.557434 29.040009 C 22.539917 29.273682 22.68988 29.491028 22.906616 29.558014 C 22.974792 29.582489 23.043945 29.593903 23.113098 29.594086 C 23.280457 29.594574 23.443359 29.527679 23.573608 29.409302 C 23.807983 29.177155 24.126953 28.459991 23.693665 28.258698 C 23.611511 28.223877 23.529236 28.207764 23.449768 28.20755 Z"/>
    <path id="Path-copy-26" fill="#4c2b2b" fill-opacity="0.3527" fill-rule="evenodd" stroke="none" d="M 31.476379 30.123993 C 31.305298 30.123535 31.134094 30.164185 30.978638 30.247894 C 30.593689 30.49649 30.692078 31.097931 31.075806 31.299072 C 31.241943 31.382751 31.442017 31.400116 31.625244 31.400635 C 31.657959 31.403534 31.689758 31.404541 31.721558 31.404633 C 31.885132 31.40509 32.039551 31.369049 32.193115 31.285339 C 32.410583 31.085846 32.461975 30.752197 32.295288 30.50119 C 32.082825 30.255646 31.780212 30.124847 31.476379 30.123993 Z"/>
    <path id="Path-copy-25" fill="#4c2b2b" fill-opacity="0.3527" fill-rule="evenodd" stroke="none" d="M 34.766724 31.34201 C 34.495605 31.341278 34.267822 31.543518 34.560364 31.925812 C 34.643127 32.075623 34.793457 32.160187 34.959839 32.17746 C 35.126282 32.161102 35.260376 32.010925 35.260925 31.827698 C 35.27771 31.499573 35.005127 31.342682 34.766724 31.34201 Z"/>
    <path id="Path-copy-24" fill="#4c2b2b" fill-opacity="0.3527" fill-rule="evenodd" stroke="none" d="M 34.796692 27.945374 C 34.677002 27.945038 34.56189 27.973724 34.471069 28.03891 C 34.303345 28.154388 34.253601 28.238403 34.402832 28.355682 C 34.55304 28.488861 34.686768 28.472412 34.819214 28.58963 C 34.952576 28.706879 34.952332 28.79007 35.085938 28.840942 C 35.109253 28.846619 35.132629 28.849487 35.15509 28.849548 C 35.26355 28.849854 35.364685 28.788422 35.420105 28.691345 C 35.653076 28.280579 35.199646 27.946503 34.796692 27.945374 Z"/>
    <path id="Path-copy-23" fill="#4c2b2b" fill-opacity="0.3527" fill-rule="evenodd" stroke="none" d="M 26.744019 31.071106 C 26.696289 31.070984 26.649536 31.075531 26.605591 31.086609 C 26.188293 31.185516 26.019348 31.768463 26.4198 32.003296 C 26.535583 32.070007 26.652344 32.103973 26.78595 32.138 C 26.879333 32.173798 26.973694 32.191833 27.065369 32.192078 C 27.18689 32.192413 27.306641 32.162811 27.419922 32.10611 C 27.57074 32.00647 27.637634 31.80658 27.588623 31.623199 C 27.501587 31.316284 27.082458 31.072052 26.744019 31.071106 Z"/>
    <path id="Path-copy-22" fill="#4c2b2b" fill-opacity="0.3527" fill-rule="evenodd" stroke="none" d="M 20.761597 30.008331 C 20.732605 30.00824 20.701721 30.010956 20.669922 30.019287 C 20.419189 30.084991 20.100952 30.550659 20.01709 30.784149 C 19.966187 30.93454 19.999451 31.084229 20.099121 31.201385 C 20.178345 31.295074 20.30072 31.345917 20.422241 31.346252 C 20.454041 31.346344 20.484924 31.342682 20.515747 31.336212 C 20.666504 31.270264 20.800476 31.153748 20.90094 31.00351 C 20.984497 30.886871 21.05127 30.754272 21.102112 30.620728 C 21.178528 30.362885 21.048645 30.009125 20.761597 30.008331 Z"/>
    <path id="Path-copy-21" fill="#4c2b2b" fill-opacity="0.3527" fill-rule="evenodd" stroke="none" d="M 15.90686 22.46051 C 15.888184 22.460449 15.870361 22.460388 15.8526 22.462219 C 15.469177 22.494812 14.950989 22.927185 15.03302 23.344421 C 15.066162 23.544586 15.215332 23.695526 15.41626 23.728821 C 15.582642 23.729279 15.733337 23.680145 15.866333 23.59729 L 16.400879 23.348206 C 16.484192 23.297943 16.568481 23.248627 16.635132 23.165588 C 16.921387 22.754059 16.260254 22.461487 15.90686 22.46051 Z"/>
    <path id="Path-copy-20" fill="#4c2b2b" fill-opacity="0.3527" fill-rule="evenodd" stroke="none" d="M 13.153015 28.738159 C 12.899597 28.737457 12.630127 28.816193 12.515686 28.944885 C 12.364746 29.111816 12.380859 29.361511 12.530945 29.529266 C 12.625061 29.638916 12.738098 29.678497 12.858704 29.678833 C 13.013916 29.67926 13.180481 29.613342 13.331177 29.548309 C 13.481934 29.481415 13.614929 29.381744 13.682678 29.23233 C 13.797729 28.880188 13.488647 28.739075 13.153015 28.738159 Z"/>
    <path id="Path-copy-19" fill="#4c2b2b" fill-opacity="0.3527" fill-rule="evenodd" stroke="none" d="M 9.248108 30.670197 C 9.155518 30.669922 9.061951 30.695862 8.973938 30.753571 C 8.572998 31.036713 8.888489 31.571442 9.221863 31.705109 C 9.293823 31.725891 9.372314 31.741058 9.448975 31.741272 C 9.496643 31.741394 9.544373 31.735931 9.588318 31.722961 C 9.739014 31.656982 9.839478 31.506744 9.856812 31.340363 C 9.896973 31.001099 9.580017 30.671112 9.248108 30.670197 Z"/>
    <path id="Path-copy-18" fill="#4c2b2b" fill-opacity="0.3527" fill-rule="evenodd" stroke="none" d="M 15.742798 29.03891 C 15.695129 29.038757 15.653076 29.043335 15.617493 29.053497 C 15.116943 29.169006 15.098206 29.870178 15.66571 29.871735 L 16.033142 29.872742 C 16.054626 29.87561 16.077087 29.876617 16.099548 29.876678 C 16.209839 29.876984 16.319336 29.842682 16.416748 29.773773 C 16.880615 29.402008 16.142029 29.040009 15.742798 29.03891 Z"/>
    <path id="Path-copy-17" fill="#4c2b2b" fill-opacity="0.3527" fill-rule="evenodd" stroke="none" d="M 17.653259 15.713989 C 17.60553 15.713837 17.561584 15.718384 17.523254 15.727631 C 16.922607 15.875549 16.402588 16.608093 17.303589 16.727417 L 17.937256 16.813324 C 18.010132 16.822876 18.086792 16.829651 18.162537 16.829834 C 18.348572 16.830383 18.531006 16.789734 18.638 16.647888 C 18.988098 16.148682 18.127258 15.715271 17.653259 15.713989 Z"/>
    <path id="Path-copy-16" fill="#4c2b2b" fill-opacity="0.3527" fill-rule="evenodd" stroke="none" d="M 22.460999 16.896912 C 22.003845 16.89566 22.430054 17.608337 22.538879 17.826477 C 22.57135 17.90979 22.638489 17.977295 22.704712 18.027039 C 22.730896 18.035522 22.756104 18.040253 22.781372 18.040344 C 22.854309 18.040527 22.921692 18.006104 22.971436 17.94455 C 23.273376 17.611603 22.990906 16.993744 22.574097 16.909393 C 22.532043 16.900879 22.493774 16.897034 22.460999 16.896912 Z"/>
    <path id="Path-copy-15" fill="#4c2b2b" fill-opacity="0.3527" fill-rule="evenodd" stroke="none" d="M 23.96405 14.984406 C 23.849976 14.9841 23.734009 15.009033 23.663757 15.043396 C 23.346375 15.2099 23.412048 15.459717 23.762573 15.494324 C 23.813049 15.502899 23.862549 15.50769 23.913086 15.507843 C 23.962585 15.507996 24.013123 15.503448 24.062683 15.495178 C 24.162781 15.478638 24.246155 15.412476 24.280029 15.329346 C 24.377991 15.069702 24.174438 14.984985 23.96405 14.984406 Z"/>
    <path id="Path-copy-14" fill="#4c2b2b" fill-opacity="0.3527" fill-rule="evenodd" stroke="none" d="M 19.565186 18.062286 C 19.539001 18.062195 19.511841 18.064026 19.484741 18.068604 C 19.384705 18.068329 19.301331 18.117645 19.251526 18.21756 C 19.103027 18.487366 19.371094 18.586243 19.608582 18.586914 C 19.694641 18.587158 19.776917 18.575226 19.834045 18.552948 C 20.168152 18.420166 20.135132 18.187256 19.78479 18.102173 C 19.711914 18.077637 19.639038 18.0625 19.565186 18.062286 Z"/>
    <path id="Path-copy-13" fill="#4c2b2b" fill-opacity="0.3527" fill-rule="evenodd" stroke="none" d="M 26.500366 16.036255 C 25.887085 16.034546 26.254333 16.762024 26.561401 16.956421 C 26.640747 17.013672 26.728577 17.0401 26.818298 17.040344 C 26.860413 17.040466 26.902466 17.034973 26.94458 17.023865 C 27.061646 16.957794 27.145203 16.824341 27.145569 16.690613 C 27.129639 16.357727 26.880798 16.072815 26.563965 16.039246 C 26.541504 16.037292 26.520935 16.036316 26.500366 16.036255 Z"/>
    <path id="Path-copy-12" fill="#4c2b2b" fill-opacity="0.3527" fill-rule="evenodd" stroke="none" d="M 23.198181 21.47934 C 22.585754 21.477661 22.953125 22.189209 23.260132 22.399506 C 23.339478 22.456757 23.434753 22.483215 23.524536 22.483459 C 23.565674 22.483582 23.605896 22.478058 23.643311 22.466949 C 23.777222 22.384094 23.843933 22.267426 23.84436 22.117828 C 23.82843 21.783997 23.579529 21.51593 23.262695 21.4823 C 23.240234 21.480408 23.21875 21.479401 23.198181 21.47934 Z"/>
    <path id="Path-copy-11" fill="#4c2b2b" fill-opacity="0.3527" fill-rule="evenodd" stroke="none" d="M 16.021423 17.864563 C 15.765259 17.863831 15.521851 17.979095 15.431396 18.240631 C 15.286316 18.625427 15.631165 18.691833 15.972412 18.69278 C 16.148193 18.693268 16.323059 18.676941 16.430603 18.677216 C 16.513794 18.677429 16.597961 18.660828 16.66449 18.62738 C 16.747803 18.578064 16.798645 18.461304 16.765259 18.361206 C 16.748718 18.244263 16.699402 18.160919 16.615479 18.093384 C 16.46344 17.948059 16.237427 17.865143 16.021423 17.864563 Z"/>
    <path id="Path-copy-10" fill="#4c2b2b" fill-opacity="0.3527" fill-rule="evenodd" stroke="none" d="M 19.896606 23.309265 C 19.765686 23.308899 19.649597 23.361877 19.586548 23.506622 C 19.419189 23.856781 19.818604 24.125275 20.068909 24.226013 C 20.146362 24.274841 20.235107 24.300323 20.325806 24.300568 C 20.39032 24.300751 20.455811 24.287842 20.518494 24.259979 C 20.63562 24.177094 20.703369 24.027679 20.653259 23.877014 C 20.620056 23.726379 20.53717 23.610229 20.420532 23.525757 C 20.29364 23.417877 20.08075 23.309784 19.896606 23.309265 Z"/>
    <path id="Path-copy-9" fill="#4c2b2b" fill-opacity="0.3527" fill-rule="evenodd" stroke="none" d="M 12.921082 24.006134 C 12.78833 24.005768 12.66571 24.058716 12.595215 24.205322 C 12.444702 24.538696 12.844116 24.806244 13.093384 24.923798 C 13.169006 24.970764 13.254944 24.991577 13.341919 24.991821 C 13.410156 24.992004 13.478455 24.980042 13.543945 24.95871 C 13.661072 24.874878 13.727905 24.708649 13.678711 24.574829 C 13.645447 24.42514 13.545776 24.307983 13.429138 24.207611 C 13.313477 24.110077 13.107178 24.006653 12.921082 24.006134 Z"/>
    <path id="Path-copy-8" fill="#4c2b2b" fill-opacity="0.3527" fill-rule="evenodd" stroke="none" d="M 31.664124 20.368195 C 31.613647 20.368042 31.560303 20.384735 31.505981 20.422913 C 31.222107 20.622223 31.620972 21.09082 31.870605 21.091492 C 31.954834 21.07489 32.021362 21.008698 32.038452 20.925537 C 32.080139 20.719971 31.897888 20.368835 31.664124 20.368195 Z"/>
    <path id="Path-copy-7" fill="#4c2b2b" fill-opacity="0.3527" fill-rule="evenodd" stroke="none" d="M 22.942932 23.500031 C 22.893433 23.499878 22.841919 23.514709 22.78949 23.549133 C 22.505676 23.748444 22.887695 24.21698 23.15509 24.217712 C 23.221497 24.20108 23.288086 24.134888 23.305115 24.050781 C 23.360901 23.844299 23.177612 23.500671 22.942932 23.500031 Z"/>
    <path id="Path-copy-6" fill="#f0c47f" fill-rule="evenodd" stroke="none" d="M 20.748718 10.684479 C 18.340271 10.677826 17.08783 13.586792 18.77533 15.316437 C 19.340332 15.894867 20.03894 16.155762 20.724304 16.157654 C 22.120178 16.16153 23.458252 15.094666 23.485168 13.461365 C 23.522095 11.943115 22.308228 10.688782 20.789856 10.68457 C 20.775818 10.68457 20.762756 10.684509 20.748718 10.684479 Z"/>
    <path id="Path-copy-5" fill="#744242" fill-opacity="0.1741" fill-rule="evenodd" stroke="none" d="M 21.406677 10.752686 L 21.406677 10.752686 C 22.47229 11.523254 22.835815 12.942566 22.28186 14.124695 C 21.823792 15.11731 20.852539 15.720459 19.804443 15.71759 C 19.585693 15.71698 19.36322 15.690186 19.141785 15.634399 L 19.141785 15.634399 C 19.629822 15.985443 20.187561 16.15155 20.737305 16.153046 C 21.762939 16.155884 22.762085 15.586426 23.231445 14.577972 C 23.969727 13.012085 23.074402 11.174286 21.406677 10.752686 Z"/>
    <path id="Path-copy-4" fill="#ffffff" fill-opacity="0.3571" fill-rule="evenodd" stroke="none" d="M 19.955017 11.311523 C 19.827881 11.311157 19.695984 11.343536 19.570496 11.415161 C 18.884949 11.830261 18.449097 12.563019 18.429993 13.380127 L 18.429932 13.396973 C 18.428711 13.841064 18.80188 14.138489 19.187073 14.139526 C 19.366638 14.140015 19.548157 14.076965 19.696289 13.934326 C 19.864075 13.768372 20.031006 13.585571 20.165222 13.401733 C 20.399963 13.052734 20.567444 12.668915 20.685425 12.252258 C 20.817749 11.742126 20.415955 11.312805 19.955017 11.311523 Z"/>
    <path id="Path-copy-3" fill="#ffffff" fill-opacity="0.3571" fill-rule="evenodd" stroke="none" d="M 19.320496 11.546326 C 19.259705 11.546143 19.196106 11.56189 19.136169 11.597229 C 18.784912 11.813171 18.567017 12.180023 18.565918 12.58017 C 18.565308 12.798035 18.746277 12.945313 18.936096 12.945831 C 19.022095 12.946075 19.109131 12.916382 19.182251 12.848328 C 19.282532 12.765411 19.350037 12.682373 19.433472 12.599396 C 19.550903 12.416473 19.634583 12.232513 19.685669 12.015747 C 19.751831 11.766296 19.548584 11.546936 19.320496 11.546326 Z"/>
    <path id="Path-copy-2" fill="#f0c47f" fill-rule="evenodd" stroke="none" d="M 20.75354 6.870789 C 20.56842 6.8703 20.399414 7.117615 20.565369 7.297546 C 21.497375 8.367859 21.859802 9.836761 21.522156 11.237335 C 21.481445 11.418579 21.636292 11.540588 21.780273 11.540955 C 21.873779 11.541229 21.962769 11.490051 21.989258 11.371399 C 22.376953 9.804504 21.964478 8.152252 20.916931 6.947937 C 20.866577 6.893555 20.809631 6.870972 20.75354 6.870789 Z"/>
    <path id="Path-copy" fill="#744242" fill-opacity="0.1741" fill-rule="evenodd" stroke="none" d="M 18.459045 15.049133 C 18.480408 15.092163 18.506531 15.130585 18.536316 15.166199 L 18.536316 15.166199 C 18.510254 15.126862 18.484192 15.08844 18.459045 15.049133 Z M 22.813232 15.028412 C 22.648682 15.027954 22.472717 15.101318 22.329407 15.192566 C 22.095276 15.325623 21.894592 15.541992 21.627136 15.57489 C 21.596252 15.578552 21.565369 15.580322 21.534546 15.580261 C 21.20636 15.579346 20.912476 15.350403 20.577026 15.287781 C 20.500366 15.274475 20.422791 15.2677 20.344238 15.267487 C 20.049744 15.266663 19.74939 15.349976 19.459412 15.40155 C 19.378967 15.415344 19.296692 15.422607 19.214417 15.422363 C 18.95166 15.421631 18.69104 15.34613 18.536316 15.166199 L 18.536316 15.166199 C 19.035461 15.886566 19.830505 16.454407 20.688782 16.456787 C 20.700012 16.456787 20.712158 16.456848 20.724304 16.455933 C 21.692017 16.442719 22.576965 15.944031 23.096252 15.128296 C 23.013245 15.057922 22.9151 15.028687 22.813232 15.028412 Z"/>
</svg>
