<?xml version="1.0" encoding="UTF-8"?>
<!-- Generated by Pixelmator Pro 3.4.1 -->
<svg width="59" height="113" viewBox="0 0 59 113" xmlns="http://www.w3.org/2000/svg">
    <path id="Path-copy-17" fill="#ffffff" fill-rule="evenodd" stroke="none" d="M 33.232132 79.598358 L 33.266373 83.366943 L 33.401443 102.238373 C 33.367203 104.445099 31.569473 106.244751 29.328491 106.244751 C 29.307556 106.244751 29.286636 106.244751 29.265701 106.244751 C 27.087509 106.244751 25.287872 104.492676 25.187042 102.306854 L 25.051971 83.433533 L 25.017731 79.66684 L 33.232132 79.598358 Z"/>
    <path id="Path-copy-16" fill="none" stroke="#ffffff" stroke-width="8" stroke-linejoin="round" d="M 33.232132 79.598358 L 33.266373 83.366943 L 33.401443 102.238373 C 33.367203 104.445099 31.569473 106.244751 29.328491 106.244751 C 29.307556 106.244751 29.286636 106.244751 29.265701 106.244751 C 27.087509 106.244751 25.287872 104.492676 25.187042 102.306854 L 25.051971 83.433533 L 25.017731 79.66684 L 33.232132 79.598358 Z"/>
    <path id="Path-copy-15" fill="#ffffff" fill-rule="evenodd" stroke="none" d="M 29.279022 6.958557 C 29.686127 6.958557 30.05899 6.958557 30.433762 6.992798 L 31.010178 7.027039 L 31.485764 7.061279 C 31.723557 7.093628 31.993698 7.127869 32.231491 7.162109 L 32.40271 7.162109 C 44.383774 8.723938 53.34581 18.907288 53.34581 30.991089 L 53.34581 71.857666 C 53.34581 72.23053 53.34581 72.605286 53.277328 72.943909 C 53.243088 73.215942 53.208832 73.487976 53.174591 73.723877 L 53.14035 73.723877 C 52.904465 74.606567 52.563934 75.422668 52.088348 76.134155 L 52.191071 76.134155 C 50.867035 78.2724 48.525223 79.596436 46.012207 79.596436 L 12.612427 79.596436 C 11.866699 79.596436 11.11908 79.495636 10.407593 79.257843 L 10.202133 79.189331 C 10.067062 79.12085 9.897751 79.088531 9.762695 79.02002 C 7.011871 77.865295 5.214142 75.184875 5.214142 72.198181 L 5.214142 30.991089 C 5.214142 18.532532 14.718338 8.147522 27.140762 7.061279 L 27.378571 7.061279 C 27.650604 7.027039 27.888397 7.027039 28.158539 6.992798 C 28.533295 6.992798 28.906158 6.958557 29.279022 6.958557 Z"/>
    <path id="Path-copy-14" fill="none" stroke="#ffffff" stroke-width="8" stroke-linejoin="round" d="M 29.279022 6.958557 C 29.686127 6.958557 30.05899 6.958557 30.433762 6.992798 L 31.010178 7.027039 L 31.485764 7.061279 C 31.723557 7.093628 31.993698 7.127869 32.231491 7.162109 L 32.40271 7.162109 C 44.383774 8.723938 53.34581 18.907288 53.34581 30.991089 L 53.34581 71.857666 C 53.34581 72.23053 53.34581 72.605286 53.277328 72.943909 C 53.243088 73.215942 53.208832 73.487976 53.174591 73.723877 L 53.14035 73.723877 C 52.904465 74.606567 52.563934 75.422668 52.088348 76.134155 L 52.191071 76.134155 C 50.867035 78.2724 48.525223 79.596436 46.012207 79.596436 L 12.612427 79.596436 C 11.866699 79.596436 11.11908 79.495636 10.407593 79.257843 L 10.202133 79.189331 C 10.067062 79.12085 9.897751 79.088531 9.762695 79.02002 C 7.011871 77.865295 5.214142 75.184875 5.214142 72.198181 L 5.214142 30.991089 C 5.214142 18.532532 14.718338 8.147522 27.140762 7.061279 L 27.378571 7.061279 C 27.650604 7.027039 27.888397 7.027039 28.158539 6.992798 C 28.533295 6.992798 28.906158 6.958557 29.279022 6.958557 Z"/>
    <path id="Path-copy-13" fill="#f0c47f" fill-rule="evenodd" stroke="none" d="M 33.197891 79.461395 L 33.367203 102.10141 C 33.401443 104.376617 31.569473 106.208588 29.294235 106.242859 C 27.055161 106.242859 25.187042 104.443207 25.152802 102.169891 L 24.98349 79.529877 L 33.197891 79.461395 Z"/>
    <path id="Path-copy-12" fill="#744242" fill-opacity="0.1741" fill-rule="evenodd" stroke="none" d="M 33.197891 79.461395 L 33.232132 83.22998 L 25.017731 83.262329 L 24.98349 79.495636 L 33.197891 79.461395 Z"/>
    <path id="Path-copy-11" fill="#744242" fill-opacity="0.1741" fill-rule="evenodd" stroke="none" d="M 31.143341 85.172302 C 31.466736 85.172302 31.773026 85.421509 31.773026 85.80957 L 31.908081 101.422272 C 31.908081 102.10141 31.636047 102.746307 31.194702 103.256134 C 31.055832 103.385498 30.892227 103.442566 30.734329 103.442566 C 30.391907 103.442566 30.074203 103.174347 30.074203 102.780548 L 29.939148 87.133606 C 29.939148 86.454468 30.211182 85.80957 30.686768 85.368225 C 30.819931 85.233154 30.983536 85.172302 31.143341 85.172302 Z"/>
    <path id="Path-copy-10" fill="#f0c47f" fill-rule="evenodd" stroke="none" d="M 29.296143 6.958557 C 42.532776 6.958557 53.292542 17.718323 53.292542 30.956848 L 53.292542 71.857666 C 53.292542 76.134155 49.830246 79.596436 45.553726 79.596436 L 12.526825 79.596436 C 8.453857 79.596436 5.12854 76.305359 5.12854 72.198181 L 5.12854 30.991089 C 5.12854 17.718323 15.88829 6.958557 29.15918 6.958557 Z"/>
    <path id="Path-copy-9" fill="#ff9900" fill-rule="evenodd" stroke="none" d="M 5.229355 70.398529 C 20.674637 73.691528 36.355804 75.626221 52.139709 76.134155 C 50.815659 78.2724 48.473862 79.596436 45.960831 79.596436 L 12.561066 79.596436 C 8.522354 79.596436 5.263596 76.337708 5.229355 72.299011 L 5.229355 70.398529 Z"/>
    <path id="Path-copy-8" fill="#ff9900" fill-rule="evenodd" stroke="none" d="M 5.670715 26.239014 C 20.044952 31.114746 35.107864 33.566895 50.24115 33.566895 C 51.22467 33.566895 52.208191 33.557373 53.191711 33.536469 L 53.191711 37.744507 C 37.135773 38.322815 21.115982 39.816162 5.195114 42.1922 L 5.195114 30.956848 C 5.195114 29.360779 5.366333 27.79895 5.670715 26.239014 Z"/>
    <path id="Path-copy-7" fill="#ff9900" fill-rule="evenodd" stroke="none" d="M 53.225952 40.154785 L 53.225952 52.170105 C 50.281097 52.289948 47.336243 52.348938 44.393295 52.348938 C 31.278412 52.348938 18.174942 51.178955 5.229355 48.879028 L 5.229355 44.669067 C 21.148331 42.258789 37.170029 40.731201 53.225952 40.154785 Z"/>
    <path id="Path-copy-6" fill="#ff9900" fill-rule="evenodd" stroke="none" d="M 5.229355 51.355896 C 18.123566 53.61969 31.173782 54.761108 44.235397 54.761108 C 47.231613 54.761108 50.229736 54.702148 53.225952 54.580383 L 53.225952 57.941864 C 48.943741 57.677429 44.655823 57.546173 40.367889 57.546173 C 28.607483 57.546173 16.845184 58.539215 5.229355 60.555725 L 5.229355 51.355896 Z"/>
    <path id="Path-copy-5" fill="#ff9900" fill-rule="evenodd" stroke="none" d="M 29.19342 6.958557 C 39.852356 6.958557 49.219589 13.917419 52.24054 24.133087 C 38.96965 22.401917 26.07164 18.397461 14.191391 12.252838 C 18.433655 8.824768 23.727936 6.958557 29.19342 6.958557 Z"/>
    <path id="Path-copy-4" fill="#ff9900" fill-rule="evenodd" stroke="none" d="M 12.256683 13.983978 C 24.916901 20.604187 38.663376 24.880737 52.818848 26.611877 C 53.088989 28.036743 53.225952 29.497742 53.225952 30.922607 L 53.225952 31.091919 C 52.251953 31.112854 51.277939 31.122375 50.303925 31.122375 C 35.336151 31.122375 20.465378 28.674011 6.281372 23.862946 C 7.436096 20.128601 9.471634 16.734802 12.256683 13.983978 Z"/>
    <path id="Path-copy-3" fill="#ff9900" fill-rule="evenodd" stroke="none" d="M 40.305115 59.975494 C 44.613968 59.975494 48.922821 60.112457 53.225952 60.384521 L 53.225952 72.299011 C 53.225952 72.774597 53.191711 73.250183 53.088989 73.723877 C 37.000717 73.284424 20.979019 71.315491 5.229355 67.919739 L 5.229355 62.998352 C 16.824265 60.987549 28.565643 59.975494 40.305115 59.975494 Z"/>
    <path id="Path-copy-2" fill="#ffffff" fill-opacity="0.3571" fill-rule="evenodd" stroke="none" d="M 37.135773 37.847229 L 41.311462 37.88147 C 43.211929 37.88147 44.773758 39.475647 44.739517 41.376099 L 44.570206 66.426392 C 44.570206 68.191803 43.111099 69.618561 41.345703 69.618561 L 38.697617 69.618561 C 35.779388 69.58432 33.469925 67.208252 33.469925 64.322388 L 33.639236 41.309509 C 33.673477 39.374817 35.235321 37.847229 37.135773 37.847229 Z"/>
    <path id="Path-copy" fill="#ffffff" fill-opacity="0.3571" fill-rule="evenodd" stroke="none" d="M 39.087601 18.580078 C 40.196686 18.580078 41.320984 19.017639 42.194168 19.99353 C 44.570206 22.673981 45.894257 26.136292 45.860016 29.733643 C 45.860016 31.771057 44.197342 33.367157 42.159912 33.367157 L 38.391342 33.332916 C 36.355804 33.332916 34.725479 31.668335 34.759735 29.667053 L 34.793976 22.810944 C 34.816803 20.250366 36.920807 18.580078 39.087601 18.580078 Z"/>
</svg>
