<?xml version="1.0" encoding="UTF-8"?>
<!-- Generated by Pixelmator Pro 3.4.1 -->
<svg width="30" height="52" viewBox="0 0 30 52" xmlns="http://www.w3.org/2000/svg">
    <path id="Path-copy-15" fill="#ffffff" fill-rule="evenodd" stroke="none" d="M 14.451981 6.082184 C 9.308884 6.082184 5.094971 9.81131 5.094971 14.385712 L 5.094971 33.986969 C 5.094971 35.40094 6.411819 36.564728 8.006027 36.564728 L 20.897949 36.564728 C 22.506134 36.564728 23.822983 35.40094 23.822983 33.986969 L 23.822983 14.385712 C 23.809006 9.81131 19.595078 6.082184 14.451981 6.082184 Z"/>
    <path id="Path-copy-14" fill="none" stroke="#ffffff" stroke-width="8" stroke-linejoin="round" d="M 14.451981 6.082184 C 9.308884 6.082184 5.094971 9.81131 5.094971 14.385712 L 5.094971 33.986969 C 5.094971 35.40094 6.411819 36.564728 8.006027 36.564728 L 20.897949 36.564728 C 22.506134 36.564728 23.822983 35.40094 23.822983 33.986969 L 23.822983 14.385712 C 23.809006 9.81131 19.595078 6.082184 14.451981 6.082184 Z"/>
    <path id="Path-copy-13" fill="#ffffff" fill-rule="evenodd" stroke="none" d="M 12.594406 36.564728 L 12.594406 38.158936 L 12.525269 46.143951 C 12.525269 47.100311 13.287415 47.890442 14.243774 47.890442 C 14.252319 47.890442 14.260864 47.890442 14.269409 47.890442 C 15.214127 47.890442 15.991028 47.119751 15.991028 46.171143 L 16.060181 38.18692 L 16.060181 36.592712 L 12.594406 36.564728 Z"/>
    <path id="Path-copy-12" fill="none" stroke="#ffffff" stroke-width="8" stroke-linejoin="round" d="M 12.594406 36.564728 L 12.594406 38.158936 L 12.525269 46.143951 C 12.525269 47.100311 13.287415 47.890442 14.243774 47.890442 C 14.252319 47.890442 14.260864 47.890442 14.269409 47.890442 C 15.214127 47.890442 15.991028 47.119751 15.991028 46.171143 L 16.060181 38.18692 L 16.060181 36.592712 L 12.594406 36.564728 Z"/>
    <path id="Path-copy-11" fill="#f0c47f" fill-rule="evenodd" stroke="none" d="M 12.608398 36.47229 L 12.525269 46.051514 C 12.525269 47.007874 13.287415 47.797974 14.243774 47.797974 C 14.252319 47.797974 14.260864 47.797974 14.269409 47.797974 C 15.214127 47.797974 15.991028 47.027283 15.991028 46.078705 L 16.074158 36.500244 L 12.608398 36.47229 Z"/>
    <path id="Path-copy-10" fill="#744242" fill-opacity="0.1741" fill-rule="evenodd" stroke="none" d="M 13.473083 38.891571 C 13.33403 38.891571 13.204285 39.001099 13.204285 39.161926 L 13.149124 45.760162 C 13.149124 46.051514 13.246231 46.328857 13.453674 46.536285 C 13.508057 46.595337 13.577194 46.621735 13.646332 46.621735 C 13.786957 46.621735 13.925247 46.509888 13.925247 46.342072 L 13.980408 39.716644 C 13.980408 39.43927 13.870087 39.161926 13.66188 38.967712 C 13.605164 38.914886 13.537567 38.891571 13.473083 38.891571 Z"/>
    <path id="Path-copy-9" fill="#744242" fill-opacity="0.1741" fill-rule="evenodd" stroke="none" d="M 12.608398 36.47229 L 12.594406 38.066498 L 16.060181 38.094452 L 16.074158 36.500244 L 12.608398 36.47229 Z"/>
    <path id="Path-copy-8" fill="#ff9900" fill-rule="evenodd" stroke="none" d="M 9.782028 25.132629 C 8.95929 25.132629 8.138092 25.371124 7.424118 25.849701 C 6.731125 26.307281 5.927032 26.556671 5.094971 26.556671 L 5.094971 33.986969 C 5.094971 35.40094 6.397842 36.564728 8.006027 36.564728 L 20.897949 36.564728 C 22.506134 36.564728 23.809006 35.40094 23.809006 33.986969 L 23.809006 26.542694 C 23.01889 26.528717 22.242767 26.279327 21.590942 25.849701 C 20.86998 25.371124 20.045685 25.132629 19.222168 25.132629 C 18.399429 25.132629 17.578247 25.371124 16.864273 25.849701 C 16.150299 26.321289 15.329117 26.556671 14.507141 26.556671 C 13.685959 26.556671 12.864777 26.321289 12.150803 25.849701 C 11.42984 25.371124 10.605545 25.132629 9.782028 25.132629 Z"/>
    <path id="Path-copy-7" fill="none" stroke="#ff9900" stroke-linejoin="round" d="M 9.782028 25.132629 C 8.95929 25.132629 8.138092 25.371124 7.424118 25.849701 C 6.731125 26.307281 5.927032 26.556671 5.094971 26.556671 L 5.094971 33.986969 C 5.094971 35.40094 6.397842 36.564728 8.006027 36.564728 L 20.897949 36.564728 C 22.506134 36.564728 23.809006 35.40094 23.809006 33.986969 L 23.809006 26.542694 C 23.01889 26.528717 22.242767 26.279327 21.590942 25.849701 C 20.86998 25.371124 20.045685 25.132629 19.222168 25.132629 C 18.399429 25.132629 17.578247 25.371124 16.864273 25.849701 C 16.150299 26.321289 15.329117 26.556671 14.507141 26.556671 C 13.685959 26.556671 12.864777 26.321289 12.150803 25.849701 C 11.42984 25.371124 10.605545 25.132629 9.782028 25.132629 Z"/>
    <path id="Path-copy-6" fill="#ff9900" fill-rule="evenodd" stroke="none" d="M 14.451981 6.082184 C 9.308884 6.082184 5.094971 9.81131 5.094971 14.385712 L 5.094971 18.863007 C 5.927032 18.863007 6.744339 18.613617 7.43811 18.156006 L 7.424118 18.156006 C 8.138092 17.685242 8.95929 17.449036 9.782028 17.449036 C 10.605545 17.449036 11.42984 17.685242 12.150803 18.156006 C 12.864777 18.627625 13.685959 18.863007 14.507141 18.863007 C 15.329117 18.863007 16.150299 18.627625 16.864273 18.156006 C 17.578247 17.685242 18.399429 17.449036 19.222168 17.449036 C 20.045685 17.449036 20.86998 17.685242 21.590942 18.156006 C 22.242767 18.59964 23.01889 18.849792 23.809006 18.863007 L 23.809006 14.385712 C 23.809006 9.81131 19.595078 6.082184 14.451981 6.082184 Z"/>
    <path id="Path-copy-5" fill="none" stroke="#ff9900" stroke-linejoin="round" d="M 14.451981 6.082184 C 9.308884 6.082184 5.094971 9.81131 5.094971 14.385712 L 5.094971 18.863007 C 5.927032 18.863007 6.744339 18.613617 7.43811 18.156006 L 7.424118 18.156006 C 8.138092 17.685242 8.95929 17.449036 9.782028 17.449036 C 10.605545 17.449036 11.42984 17.685242 12.150803 18.156006 C 12.864777 18.627625 13.685959 18.863007 14.507141 18.863007 C 15.329117 18.863007 16.150299 18.627625 16.864273 18.156006 C 17.578247 17.685242 18.399429 17.449036 19.222168 17.449036 C 20.045685 17.449036 20.86998 17.685242 21.590942 18.156006 C 22.242767 18.59964 23.01889 18.849792 23.809006 18.863007 L 23.809006 14.385712 C 23.809006 9.81131 19.595078 6.082184 14.451981 6.082184 Z"/>
    <path id="Path-copy-4" fill="#ff9900" fill-rule="evenodd" stroke="none" d="M 9.782028 17.449036 C 8.95929 17.449036 8.138092 17.685242 7.424118 18.156006 C 6.731125 18.613617 5.927032 18.863007 5.094971 18.863007 L 5.094971 26.556671 C 5.927032 26.556671 6.731125 26.307281 7.424118 25.835724 C 8.138092 25.364899 8.95929 25.128723 9.782028 25.128723 C 10.605545 25.128723 11.42984 25.364899 12.150803 25.835724 C 12.864777 26.31427 13.685959 26.553558 14.507141 26.553558 C 15.329117 26.553558 16.150299 26.31427 16.864273 25.835724 C 17.578247 25.364899 18.399429 25.128723 19.222168 25.128723 C 20.045685 25.128723 20.86998 25.364899 21.590942 25.835724 C 22.242767 26.279327 23.01889 26.528717 23.809006 26.542694 L 23.809006 18.863007 C 23.01889 18.849792 22.242767 18.59964 21.590942 18.156006 C 20.86998 17.685242 20.045685 17.449036 19.222168 17.449036 C 18.399429 17.449036 17.578247 17.685242 16.864273 18.156006 C 16.150299 18.627625 15.329117 18.863007 14.507141 18.863007 C 13.685959 18.863007 12.864777 18.627625 12.150803 18.156006 C 11.42984 17.685242 10.605545 17.449036 9.782028 17.449036 Z"/>
    <path id="Path-copy-3" fill="none" stroke="#ff9900" stroke-linejoin="round" d="M 9.782028 17.449036 C 8.95929 17.449036 8.138092 17.685242 7.424118 18.156006 C 6.731125 18.613617 5.927032 18.863007 5.094971 18.863007 L 5.094971 26.556671 C 5.927032 26.556671 6.731125 26.307281 7.424118 25.835724 C 8.138092 25.364899 8.95929 25.128723 9.782028 25.128723 C 10.605545 25.128723 11.42984 25.364899 12.150803 25.835724 C 12.864777 26.31427 13.685959 26.553558 14.507141 26.553558 C 15.329117 26.553558 16.150299 26.31427 16.864273 25.835724 C 17.578247 25.364899 18.399429 25.128723 19.222168 25.128723 C 20.045685 25.128723 20.86998 25.364899 21.590942 25.835724 C 22.242767 26.279327 23.01889 26.528717 23.809006 26.542694 L 23.809006 18.863007 C 23.01889 18.849792 22.242767 18.59964 21.590942 18.156006 C 20.86998 17.685242 20.045685 17.449036 19.222168 17.449036 C 18.399429 17.449036 17.578247 17.685242 16.864273 18.156006 C 16.150299 18.627625 15.329117 18.863007 14.507141 18.863007 C 13.685959 18.863007 12.864777 18.627625 12.150803 18.156006 C 11.42984 17.685242 10.605545 17.449036 9.782028 17.449036 Z"/>
    <path id="Path-copy-2" fill="#ffffff" fill-opacity="0.3571" fill-rule="evenodd" stroke="none" d="M 9.822418 16.409546 C 9.087479 16.409546 8.491592 17.005432 8.491592 17.740387 L 8.4776 27.360779 C 8.4776 28.025787 9.018326 28.580505 9.697342 28.580505 L 10.736832 28.580505 C 11.846252 28.580505 12.746689 27.679291 12.746689 26.570648 L 12.760666 17.740387 C 12.760666 16.992249 12.16478 16.409546 11.42984 16.409546 Z"/>
    <path id="Path-copy" fill="#ffffff" fill-opacity="0.3571" fill-rule="evenodd" stroke="none" d="M 11.12529 8.395813 C 10.705765 8.395813 10.280014 8.55896 9.946732 8.924072 C 9.018326 9.950378 8.505569 11.267212 8.505569 12.653229 C 8.505569 13.429352 9.128647 14.053223 9.905548 14.0672 L 11.360687 14.0672 C 12.13681 14.0672 12.760666 13.429352 12.760666 12.653229 L 12.774658 10.033508 C 12.774658 9.045288 11.962784 8.395813 11.12529 8.395813 Z"/>
</svg>
