<?xml version="1.0" encoding="UTF-8"?>
<!-- Generated by Pixelmator Pro 3.4.1 -->
<svg width="73" height="115" viewBox="0 0 73 115" xmlns="http://www.w3.org/2000/svg">
    <path id="Path-copy-19" fill="#ffffff" fill-rule="evenodd" stroke="none" d="M 36.009094 6.878967 C 38.023132 9.659973 37.766907 13.464081 35.401611 15.926086 C 34.313965 17.013763 32.939636 17.68573 31.629761 18.420349 C 30.893311 18.83609 30.190918 19.316284 29.583435 19.891479 L 29.518921 19.954224 C 29.391724 20.050964 29.262695 20.178192 29.135498 20.30719 L 29.038757 20.402161 C 28.943787 20.531189 28.846985 20.658417 28.752014 20.785645 C 28.719788 20.817871 28.6875 20.850159 28.655273 20.914642 C 28.528076 21.074127 28.431274 21.233582 28.336304 21.425323 C 28.207275 21.649292 28.112366 21.873291 28.047852 22.09729 C 27.988708 22.09549 27.929565 22.09549 27.872253 22.09549 C 22.89978 22.09549 18.839417 26.087769 18.776733 31.081665 L 18.776733 31.719604 C 18.744446 33.158447 19.255127 34.534607 20.247864 35.620483 C 16.60321 36.867615 14.108948 40.256042 14.044434 44.094177 L 14.044434 44.732117 C 14.044434 45.884277 14.365173 47.00238 15.003052 47.96283 C 11.231201 49.145447 8.641968 52.598389 8.577454 56.561981 L 8.577454 57.169434 C 8.545166 58.384308 8.896362 59.534668 9.600586 60.525574 L 9.600586 60.525574 L 7.011353 60.495117 C 6.991638 60.493317 6.971924 60.493317 6.952209 60.493317 C 6.115417 60.493317 5.443481 61.15451 5.443481 61.996704 C 5.413025 63.756317 6.787354 65.162933 8.545166 65.19519 L 15.291565 65.322388 L 10.080811 65.227417 L 10.080811 65.227417 L 12.956726 76.161377 C 13.436951 77.983704 15.067566 79.261292 16.954407 79.293549 L 17.529602 82.203552 L 22.197388 105.255859 C 22.613098 107.300385 24.403198 108.803772 26.513977 108.835999 L 36.360291 108.995483 L 43.873596 109.122711 L 44.162048 109.122711 C 45.056213 109.122711 45.919861 108.868256 46.686768 108.388062 C 46.783569 108.323547 46.88031 108.228577 46.975281 108.164063 C 47.166992 108.004578 47.358765 107.845123 47.518188 107.653381 C 47.61499 107.55661 47.679504 107.461639 47.774475 107.364899 C 47.901672 107.173157 48.030701 106.949188 48.157898 106.757446 C 48.34967 106.40625 48.478638 106.055054 48.573608 105.6698 L 53.945618 82.778748 L 54.615784 79.901001 C 54.968811 79.901001 55.320007 79.868744 55.638916 79.773773 C 57.110046 79.422577 58.292664 78.3349 58.708435 76.896057 L 61.90686 66.057068 L 63.472961 66.057068 C 63.492676 66.058868 63.51239 66.058868 63.532104 66.058868 C 65.232605 66.058868 66.63739 64.695251 66.669678 62.957153 C 66.669678 62.125702 65.997681 61.421509 65.168091 61.421509 L 62.609314 61.358795 C 63.313477 60.398346 63.69696 59.247986 63.729187 58.065369 L 63.729187 57.425659 C 63.729187 57.169434 63.729187 56.882721 63.69696 56.626465 C 63.69696 56.594238 63.69696 56.561981 63.69696 56.561981 C 63.664673 56.275269 63.632446 56.019043 63.60022 55.762817 C 63.60022 55.73056 63.60022 55.73056 63.60022 55.698303 C 63.537476 55.443848 63.505249 55.155365 63.408447 54.899109 C 62.641541 51.958679 60.435791 49.623901 57.558044 48.632996 C 58.22998 47.706604 58.613464 46.58667 58.645691 45.436279 L 58.645691 44.7966 C 58.645691 44.348633 58.613464 43.870209 58.54895 43.422241 L 58.54895 43.389984 C 58.516663 43.23053 58.484436 43.101501 58.484436 42.974274 C 58.453979 42.847046 58.453979 42.814819 58.421692 42.718048 C 58.389465 42.623077 58.389465 42.59082 58.389465 42.526306 C 57.653015 39.618103 55.576233 37.218811 52.730774 36.132935 C 53.753906 35.109802 54.329102 33.735413 54.329102 32.29657 L 54.329102 31.65686 C 54.329102 31.400635 54.329102 31.176636 54.329102 30.92041 L 54.329102 30.825439 C 54.329102 30.569214 54.264587 30.345215 54.232361 30.121246 L 54.232361 29.994019 C 54.200073 29.77002 54.13739 29.546051 54.105103 29.289795 L 54.105103 29.259338 C 53.977905 28.779114 53.816589 28.29892 53.592651 27.820496 C 52.506775 25.326233 50.333252 23.439392 47.679504 22.704712 C 47.709961 22.545227 47.742188 22.416229 47.742188 22.289001 C 47.806702 21.77655 47.838989 21.265869 47.838989 20.753357 C 47.806702 20.210449 47.774475 19.635254 47.679504 19.092316 C 47.390991 17.332703 46.751282 15.639404 45.792664 14.136047 C 45.600952 13.847534 45.376953 13.560852 45.185242 13.272339 L 45.056213 13.080627 C 42.78772 10.202881 39.429749 8.350098 36.009094 6.878967 Z"/>
    <path id="Path-copy-18" fill="none" stroke="#ffffff" stroke-width="8" stroke-linejoin="round" d="M 36.009094 6.878967 C 38.023132 9.659973 37.766907 13.464081 35.401611 15.926086 C 34.313965 17.013763 32.939636 17.68573 31.629761 18.420349 C 30.893311 18.83609 30.190918 19.316284 29.583435 19.891479 L 29.518921 19.954224 C 29.391724 20.050964 29.262695 20.178192 29.135498 20.30719 L 29.038757 20.402161 C 28.943787 20.531189 28.846985 20.658417 28.752014 20.785645 C 28.719788 20.817871 28.6875 20.850159 28.655273 20.914642 C 28.528076 21.074127 28.431274 21.233582 28.336304 21.425323 C 28.207275 21.649292 28.112366 21.873291 28.047852 22.09729 C 27.988708 22.09549 27.929565 22.09549 27.872253 22.09549 C 22.89978 22.09549 18.839417 26.087769 18.776733 31.081665 L 18.776733 31.719604 C 18.744446 33.158447 19.255127 34.534607 20.247864 35.620483 C 16.60321 36.867615 14.108948 40.256042 14.044434 44.094177 L 14.044434 44.732117 C 14.044434 45.884277 14.365173 47.00238 15.003052 47.96283 C 11.231201 49.145447 8.641968 52.598389 8.577454 56.561981 L 8.577454 57.169434 C 8.545166 58.384308 8.896362 59.534668 9.600586 60.525574 L 9.600586 60.525574 L 7.011353 60.495117 C 6.991638 60.493317 6.971924 60.493317 6.952209 60.493317 C 6.115417 60.493317 5.443481 61.15451 5.443481 61.996704 C 5.413025 63.756317 6.787354 65.162933 8.545166 65.19519 L 15.291565 65.322388 L 10.080811 65.227417 L 10.080811 65.227417 L 12.956726 76.161377 C 13.436951 77.983704 15.067566 79.261292 16.954407 79.293549 L 17.529602 82.203552 L 22.197388 105.255859 C 22.613098 107.300385 24.403198 108.803772 26.513977 108.835999 L 36.360291 108.995483 L 43.873596 109.122711 L 44.162048 109.122711 C 45.056213 109.122711 45.919861 108.868256 46.686768 108.388062 C 46.783569 108.323547 46.88031 108.228577 46.975281 108.164063 C 47.166992 108.004578 47.358765 107.845123 47.518188 107.653381 C 47.61499 107.55661 47.679504 107.461639 47.774475 107.364899 C 47.901672 107.173157 48.030701 106.949188 48.157898 106.757446 C 48.34967 106.40625 48.478638 106.055054 48.573608 105.6698 L 53.945618 82.778748 L 54.615784 79.901001 C 54.968811 79.901001 55.320007 79.868744 55.638916 79.773773 C 57.110046 79.422577 58.292664 78.3349 58.708435 76.896057 L 61.90686 66.057068 L 63.472961 66.057068 C 63.492676 66.058868 63.51239 66.058868 63.532104 66.058868 C 65.232605 66.058868 66.63739 64.695251 66.669678 62.957153 C 66.669678 62.125702 65.997681 61.421509 65.168091 61.421509 L 62.609314 61.358795 C 63.313477 60.398346 63.69696 59.247986 63.729187 58.065369 L 63.729187 57.425659 C 63.729187 57.169434 63.729187 56.882721 63.69696 56.626465 C 63.69696 56.594238 63.69696 56.561981 63.69696 56.561981 C 63.664673 56.275269 63.632446 56.019043 63.60022 55.762817 C 63.60022 55.73056 63.60022 55.73056 63.60022 55.698303 C 63.537476 55.443848 63.505249 55.155365 63.408447 54.899109 C 62.641541 51.958679 60.435791 49.623901 57.558044 48.632996 C 58.22998 47.706604 58.613464 46.58667 58.645691 45.436279 L 58.645691 44.7966 C 58.645691 44.348633 58.613464 43.870209 58.54895 43.422241 L 58.54895 43.389984 C 58.516663 43.23053 58.484436 43.101501 58.484436 42.974274 C 58.453979 42.847046 58.453979 42.814819 58.421692 42.718048 C 58.389465 42.623077 58.389465 42.59082 58.389465 42.526306 C 57.653015 39.618103 55.576233 37.218811 52.730774 36.132935 C 53.753906 35.109802 54.329102 33.735413 54.329102 32.29657 L 54.329102 31.65686 C 54.329102 31.400635 54.329102 31.176636 54.329102 30.92041 L 54.329102 30.825439 C 54.329102 30.569214 54.264587 30.345215 54.232361 30.121246 L 54.232361 29.994019 C 54.200073 29.77002 54.13739 29.546051 54.105103 29.289795 L 54.105103 29.259338 C 53.977905 28.779114 53.816589 28.29892 53.592651 27.820496 C 52.506775 25.326233 50.333252 23.439392 47.679504 22.704712 C 47.709961 22.545227 47.742188 22.416229 47.742188 22.289001 C 47.806702 21.77655 47.838989 21.265869 47.838989 20.753357 C 47.806702 20.210449 47.774475 19.635254 47.679504 19.092316 C 47.390991 17.332703 46.751282 15.639404 45.792664 14.136047 C 45.600952 13.847534 45.376953 13.560852 45.185242 13.272339 L 45.056213 13.080627 C 42.78772 10.202881 39.429749 8.350098 36.009094 6.878967 Z"/>
    <path id="Path-copy-17" fill="#f0c47f" fill-rule="evenodd" stroke="none" d="M 16.954407 79.325806 L 22.197388 105.286346 C 22.613098 107.332642 24.403198 108.803772 26.513977 108.835999 L 44.162048 109.122711 C 44.185364 109.124512 44.206848 109.124512 44.230164 109.124512 C 46.280029 109.124512 48.098755 107.694611 48.573608 105.6698 L 54.615784 79.901001 L 16.954407 79.325806 Z"/>
    <path id="Path-copy-16" fill="#ffffff" fill-opacity="0.3571" fill-rule="evenodd" stroke="none" d="M 25.822327 86.871338 C 24.568054 86.871338 23.607605 88.007385 23.860229 89.26886 L 24.978394 94.673126 C 25.139648 95.599518 25.969238 96.303711 26.897461 96.303711 L 28.431274 96.334167 C 29.391724 96.334167 30.223145 95.696289 30.414856 94.768097 L 31.692505 89.365631 C 31.980957 88.1185 31.052795 86.935852 29.74292 86.935852 L 25.874329 86.871338 C 25.856384 86.871338 25.840271 86.871338 25.822327 86.871338 Z"/>
    <path id="Path-copy-15" fill="#744242" fill-opacity="0.1741" fill-rule="evenodd" stroke="none" d="M 16.954407 79.134094 L 17.529602 82.062683 L 40.101685 82.416138 C 43.20343 82.481079 45.471924 85.407867 44.76947 88.466309 L 40.773621 105.551086 C 40.293396 107.610504 38.471069 109.026093 36.360291 109.026093 L 44.162048 109.121674 C 44.185364 109.123474 44.208618 109.123474 44.230164 109.123474 C 46.312317 109.123474 48.098755 107.684418 48.573608 105.679108 L 53.945618 82.641571 L 54.615784 79.745422 L 46.815796 79.617371 L 16.954407 79.134094 Z"/>
    <path id="Path-copy-14" fill="#f0c47f" fill-rule="evenodd" stroke="none" d="M 10.080811 65.257904 L 12.956726 76.389252 C 13.436951 78.249664 15.067566 79.553986 16.954407 79.586914 L 54.648071 80.207031 C 54.671326 80.208862 54.696411 80.208862 54.719727 80.208862 C 56.576111 80.208862 58.204895 78.944824 58.740662 77.139282 L 61.937317 66.073761 L 10.080811 65.257904 Z"/>
    <path id="Path-copy-13" fill="#744242" fill-opacity="0.1741" fill-rule="evenodd" stroke="none" d="M 45.568665 80.077148 L 45.568665 80.077148 C 45.579407 80.077148 45.590149 80.077148 45.600952 80.077148 L 45.600952 80.077148 L 45.568665 80.077148 Z M 10.080811 65.257904 L 10.750977 67.870148 L 42.979431 68.39151 C 47.455505 68.424438 50.619934 72.831238 49.372803 77.205139 C 48.899719 78.911896 47.369507 80.077148 45.64032 80.077148 C 45.627808 80.077148 45.613464 80.077148 45.600952 80.077148 L 45.600952 80.077148 L 54.648071 80.207031 C 54.673157 80.208862 54.696411 80.208862 54.721497 80.208862 C 56.577881 80.208862 58.204895 78.975922 58.740662 77.139282 L 61.937317 66.073761 L 10.080811 65.257904 Z"/>
    <path id="Path-copy-12" fill="#ff8fc0" fill-rule="evenodd" stroke="none" d="M 36.009094 6.878967 L 36.009094 6.878967 C 38.023132 9.627686 37.766907 13.464081 35.401611 15.926086 C 34.313965 16.981506 32.939636 17.653442 31.629761 18.420349 C 30.318115 19.187286 29.038757 20.083221 28.336304 21.425323 C 27.599854 22.769226 27.696594 24.622009 28.846985 25.582458 C 34.378479 25.645172 41.028076 25.836914 46.55957 25.901398 C 48.605896 22.321259 48.030701 17.621216 45.760376 14.10376 C 43.522339 10.618591 39.813232 8.541809 36.009094 6.878967 Z"/>
    <path id="Path-copy-11" fill="#744242" fill-opacity="0.1741" fill-rule="evenodd" stroke="none" d="M 44.418274 12.313721 L 44.418274 12.313721 C 44.577759 12.888885 44.705017 13.433594 44.76947 14.041077 C 45.083069 17.024506 42.712463 19.637054 39.720032 19.637054 C 39.66626 19.637054 39.612488 19.637054 39.558777 19.635254 L 30.029602 19.508026 C 29.327209 20.018707 28.752014 20.658417 28.304077 21.425323 C 27.599854 22.769226 27.664368 24.622009 28.846985 25.582458 C 34.378479 25.677429 41.028076 25.836914 46.55957 25.933655 C 48.605896 22.321259 48.030701 17.621216 45.792664 14.136047 C 45.376953 13.496338 44.928955 12.888885 44.418274 12.313721 Z"/>
    <path id="Path-copy-10" fill="#ff8fc0" fill-rule="evenodd" stroke="none" d="M 27.899109 22.065002 C 22.932068 22.065002 18.839417 26.069824 18.744446 31.081665 L 18.744446 31.689117 C 18.679993 34.821289 21.174255 37.410522 24.308228 37.475037 L 48.573608 37.858521 C 48.593323 37.858521 48.613037 37.858521 48.632751 37.858521 C 51.739868 37.858521 54.296814 35.37677 54.361328 32.264313 L 54.361328 31.624634 C 54.424072 26.573364 50.395935 22.416229 45.376953 22.353516 L 28.015564 22.065002 C 27.976135 22.065002 27.936707 22.065002 27.899109 22.065002 Z"/>
    <path id="Path-copy-9" fill="#744242" fill-opacity="0.1741" fill-rule="evenodd" stroke="none" d="M 52.410034 25.869141 L 52.410034 25.869141 C 52.506775 26.125366 52.571289 26.381622 52.633972 26.668335 C 52.857971 27.883209 52.825745 29.162598 52.506775 30.377472 C 52.091064 32.040344 50.587708 33.190704 48.862122 33.190704 L 22.037903 32.71228 C 20.663574 32.680023 19.384155 31.913086 18.776733 30.665955 C 18.776733 30.793182 18.744446 30.92041 18.744446 31.081665 L 18.744446 31.689117 C 18.679993 34.821289 21.206482 37.410522 24.338684 37.44281 L 48.605896 37.826233 C 48.645325 37.828064 48.682922 37.828064 48.722351 37.828064 C 51.802551 37.828064 54.329102 35.326599 54.361328 32.232056 L 54.361328 31.624634 C 54.393616 29.513794 53.689392 27.499756 52.410034 25.869141 Z"/>
    <path id="Path-copy-8" fill="#ff8fc0" fill-rule="evenodd" stroke="none" d="M 23.139893 35.140259 C 18.199768 35.140259 14.139404 39.102051 14.044434 44.094177 L 14.044434 44.732117 C 14.012146 47.866058 16.506409 50.423035 19.640381 50.487549 L 52.890198 51.030518 C 52.909912 51.032288 52.929626 51.032288 52.949341 51.032288 C 56.056458 51.032288 58.581177 48.548767 58.645691 45.436279 L 58.645691 44.7966 C 58.708435 39.745361 54.680298 35.588196 49.629028 35.525513 L 23.315491 35.142029 C 23.258179 35.140259 23.199036 35.140259 23.139893 35.140259 Z"/>
    <path id="Path-copy-7" fill="#744242" fill-opacity="0.1741" fill-rule="evenodd" stroke="none" d="M 56.086914 38.306458 L 56.086914 38.306458 C 56.151428 38.562714 56.215942 38.818939 56.278625 39.105652 C 56.534851 40.352783 56.470398 41.599915 56.151428 42.814819 C 55.741089 44.454346 54.271729 45.628021 52.574829 45.628021 C 52.551575 45.628021 52.53009 45.628021 52.506775 45.628021 L 16.762695 45.020569 C 15.739502 44.988342 14.780884 44.540344 14.07666 43.805725 L 14.07666 44.094177 L 14.07666 44.732117 C 14.012146 47.866058 16.538696 50.455322 19.670837 50.487549 L 52.890198 51.030518 C 52.909912 51.032288 52.929626 51.032288 52.949341 51.032288 C 56.056458 51.032288 58.581177 48.548767 58.645691 45.436279 L 58.645691 44.7966 C 58.676147 42.366821 57.749756 40.033813 56.086914 38.306458 Z"/>
    <path id="Path-copy-6" fill="#ff8fc0" fill-rule="evenodd" stroke="none" d="M 17.575928 47.577576 C 12.584412 47.577576 8.498474 51.454224 8.434082 56.305695 L 8.434082 56.893707 C 8.401855 58.069702 8.784851 59.183289 9.455994 60.144196 L 62.401062 60.947296 C 63.136658 60.019318 63.519653 58.905762 63.55188 57.760986 L 63.55188 57.141724 C 63.614502 52.252136 59.591248 48.228027 54.578247 48.165588 L 17.695801 47.577576 C 17.654663 47.577576 17.615295 47.577576 17.575928 47.577576 Z"/>
    <path id="Path-copy-5" fill="#ffffff" fill-opacity="0.3571" fill-rule="evenodd" stroke="none" d="M 19.032959 48.985962 C 18.009827 48.985962 17.146118 49.785156 17.113892 50.838745 C 17.113892 51.861938 17.945313 52.693359 18.968445 52.725586 L 31.756958 52.917328 C 32.780151 52.917328 33.611572 52.118164 33.643799 51.095001 C 33.643799 50.071838 32.844666 49.208191 31.821472 49.208191 L 19.032959 48.985962 Z"/>
    <path id="Path-copy-4" fill="#ffffff" fill-opacity="0.3571" fill-rule="evenodd" stroke="none" d="M 23.763489 36.516418 C 22.740356 36.516418 21.878418 37.315552 21.878418 38.370972 C 21.846191 39.394135 22.677612 40.225555 23.700745 40.256042 L 31.500732 40.352783 C 31.520447 40.352783 31.538391 40.352783 31.558105 40.352783 C 32.556152 40.352783 33.387573 39.533905 33.387573 38.530457 C 33.387573 37.507324 32.58844 36.675873 31.565247 36.643616 L 23.763489 36.516418 Z"/>
    <path id="Path-copy-3" fill="#ffffff" fill-opacity="0.3571" fill-rule="evenodd" stroke="none" d="M 28.406189 23.631104 C 27.408142 23.631104 26.576721 24.450012 26.576721 25.45343 C 26.546265 26.476593 27.377686 27.308014 28.399048 27.340271 L 32.045471 27.404785 C 33.068604 27.404785 33.930542 26.605591 33.962769 25.582458 C 33.962769 24.559296 33.131348 23.695618 32.108215 23.695618 L 28.463562 23.631104 C 28.445618 23.631104 28.425903 23.631104 28.406189 23.631104 Z"/>
    <path id="Path-copy-2" fill="#f0c47f" fill-rule="evenodd" stroke="none" d="M 6.730042 59.914551 C 5.89325 59.914551 5.219482 60.732422 5.219482 61.730408 C 5.189026 63.77301 6.563416 65.474487 8.321228 65.512634 L 63.248962 66.531799 C 65.006836 66.531799 66.445679 64.906616 66.477905 62.86615 C 66.477905 61.844849 65.805969 61.012115 64.944092 60.973969 L 6.787354 59.916656 C 6.767639 59.914551 6.749756 59.914551 6.730042 59.914551 Z"/>
    <path id="Path-copy" fill="#744242" fill-rule="evenodd" stroke="none" d="M 61.37738 51.232941 C 61.37738 51.326782 61.409668 51.387604 61.441895 51.450134 C 61.665894 52.659607 61.633606 53.898651 61.314697 55.076843 C 60.904358 56.66861 59.404541 57.775574 57.738098 57.775574 C 57.714844 57.775574 57.693298 57.775574 57.670044 57.775574 L 11.502686 57.031799 C 10.287781 57.000549 9.167847 56.411438 8.465454 55.419189 C 8.433167 55.728516 8.40094 56.00827 8.40094 56.317596 L 8.40094 56.906677 C 8.40094 58.053589 8.752136 59.202271 9.424072 60.163239 L 12.558044 60.194519 C 13.676208 60.194519 14.572144 61.092926 14.572144 62.177277 L 14.539856 63.480591 C 14.539856 64.441559 15.306763 65.216614 16.297668 65.247894 C 17.288574 65.247894 18.089539 64.472839 18.119995 63.511871 L 18.119995 62.239838 C 18.119995 61.172852 19.01593 60.316162 20.109009 60.316162 C 20.128662 60.316162 20.146606 60.317902 20.166321 60.317902 C 21.286255 60.317902 22.180359 61.216309 22.180359 62.302399 L 22.020874 71.479462 C 21.988647 72.565552 22.884583 73.463959 24.034973 73.495239 C 24.054688 73.495239 24.074402 73.495239 24.094055 73.495239 C 25.187134 73.495239 26.081238 72.638519 26.113525 71.573303 L 26.240723 62.36496 C 26.27301 61.297974 27.138489 60.441284 28.229675 60.441284 C 28.24939 60.441284 28.267334 60.441284 28.287048 60.441284 L 33.978027 60.535095 C 34.36145 60.535095 34.649963 60.813141 34.617676 61.155487 C 34.617676 62.36496 35.608582 63.355469 36.855713 63.386749 C 38.102844 63.386749 39.126038 62.425781 39.126038 61.216309 C 39.126038 60.875702 39.445007 60.595917 39.797974 60.595917 L 44.14502 60.689758 C 45.327637 60.689758 46.223572 61.619476 46.223572 62.736847 L 46.159119 66.208862 C 46.159119 67.13855 46.895569 67.913605 47.854187 67.913605 C 48.812866 67.913605 49.581543 67.201111 49.612 66.271423 L 49.644287 62.797668 C 49.676514 61.682037 50.635193 60.7836 51.787354 60.7836 C 52.362549 60.813141 52.840942 61.27887 52.840942 61.83667 C 52.810486 62.828949 53.60968 63.635254 54.632813 63.666534 C 55.655945 63.666534 56.487366 62.89151 56.487366 61.899231 C 56.517883 61.341431 56.998047 60.875702 57.573242 60.875702 L 62.4328 60.969543 C 63.16925 60.038116 63.552734 58.922485 63.584961 57.744263 L 63.584961 57.155182 C 63.615417 54.984741 62.816223 52.876831 61.37738 51.232941 Z"/>
</svg>
