<?xml version="1.0" encoding="UTF-8"?>
<!-- Generated by Pixelmator Pro 3.4.1 -->
<svg width="31" height="52" viewBox="0 0 31 52" xmlns="http://www.w3.org/2000/svg">
    <path id="Path-copy-15" fill="#ffffff" fill-rule="evenodd" stroke="none" d="M 15.178757 6.082184 C 10.03566 6.082184 5.821732 9.81131 5.821732 14.385712 L 5.821732 33.986969 C 5.821732 35.40094 7.13858 36.564728 8.732788 36.564728 L 21.62471 36.564728 C 23.23291 36.564728 24.549759 35.40094 24.549759 33.986969 L 24.549759 14.385712 C 24.535767 9.81131 20.321854 6.082184 15.178757 6.082184 Z"/>
    <path id="Path-copy-14" fill="none" stroke="#ffffff" stroke-width="8" stroke-linejoin="round" d="M 15.178757 6.082184 C 10.03566 6.082184 5.821732 9.81131 5.821732 14.385712 L 5.821732 33.986969 C 5.821732 35.40094 7.13858 36.564728 8.732788 36.564728 L 21.62471 36.564728 C 23.23291 36.564728 24.549759 35.40094 24.549759 33.986969 L 24.549759 14.385712 C 24.535767 9.81131 20.321854 6.082184 15.178757 6.082184 Z"/>
    <path id="Path-copy-13" fill="#ffffff" fill-rule="evenodd" stroke="none" d="M 13.321182 36.564728 L 13.321182 38.158936 L 13.252029 46.143951 C 13.252029 47.100311 14.014175 47.890442 14.970551 47.890442 C 14.979095 47.890442 14.98764 47.890442 14.996185 47.890442 C 15.940903 47.890442 16.717804 47.119751 16.717804 46.171143 L 16.786942 38.18692 L 16.786942 36.592712 L 13.321182 36.564728 Z"/>
    <path id="Path-copy-12" fill="none" stroke="#ffffff" stroke-width="8" stroke-linejoin="round" d="M 13.321182 36.564728 L 13.321182 38.158936 L 13.252029 46.143951 C 13.252029 47.100311 14.014175 47.890442 14.970551 47.890442 C 14.979095 47.890442 14.98764 47.890442 14.996185 47.890442 C 15.940903 47.890442 16.717804 47.119751 16.717804 46.171143 L 16.786942 38.18692 L 16.786942 36.592712 L 13.321182 36.564728 Z"/>
    <path id="Path-copy-11" fill="#f0c47f" fill-rule="evenodd" stroke="none" d="M 13.335159 36.47229 L 13.252029 46.051514 C 13.252029 47.007874 14.014175 47.797974 14.970551 47.797974 C 14.979095 47.797974 14.98764 47.797974 14.996185 47.797974 C 15.940903 47.797974 16.717804 47.027283 16.717804 46.078705 L 16.800934 36.500244 L 13.335159 36.47229 Z"/>
    <path id="Path-copy-10" fill="#744242" fill-opacity="0.1741" fill-rule="evenodd" stroke="none" d="M 14.19986 38.891571 C 14.060791 38.891571 13.931046 39.001099 13.931046 39.161926 L 13.875885 45.760162 C 13.875885 46.051514 13.973007 46.328857 14.180435 46.536285 C 14.234818 46.595337 14.303955 46.621735 14.373108 46.621735 C 14.513733 46.621735 14.652008 46.509888 14.652008 46.342072 L 14.707169 39.716644 C 14.707169 39.43927 14.596848 39.161926 14.388641 38.967712 C 14.331924 38.914886 14.264343 38.891571 14.19986 38.891571 Z"/>
    <path id="Path-copy-9" fill="#744242" fill-opacity="0.1741" fill-rule="evenodd" stroke="none" d="M 13.335159 36.47229 L 13.321182 38.066498 L 16.786942 38.094452 L 16.800934 36.500244 L 13.335159 36.47229 Z"/>
    <path id="Path-copy-8" fill="#f0c47f" fill-rule="evenodd" stroke="none" d="M 10.508789 25.132629 C 9.68605 25.132629 8.864868 25.371124 8.150894 25.849701 C 7.457901 26.307281 6.653793 26.556671 5.821732 26.556671 L 5.821732 33.986969 C 5.821732 35.40094 7.124603 36.564728 8.732788 36.564728 L 21.62471 36.564728 C 23.23291 36.564728 24.535767 35.40094 24.535767 33.986969 L 24.535767 26.542694 C 23.745667 26.528717 22.969543 26.279327 22.317719 25.849701 C 21.596756 25.371124 20.772461 25.132629 19.948944 25.132629 C 19.126205 25.132629 18.305008 25.371124 17.591034 25.849701 C 16.87706 26.321289 16.055878 26.556671 15.233917 26.556671 C 14.412735 26.556671 13.591537 26.321289 12.877563 25.849701 C 12.156601 25.371124 11.332306 25.132629 10.508789 25.132629 Z"/>
    <path id="Path-copy-7" fill="none" stroke="#f0c47f" stroke-linejoin="round" d="M 10.508789 25.132629 C 9.68605 25.132629 8.864868 25.371124 8.150894 25.849701 C 7.457901 26.307281 6.653793 26.556671 5.821732 26.556671 L 5.821732 33.986969 C 5.821732 35.40094 7.124603 36.564728 8.732788 36.564728 L 21.62471 36.564728 C 23.23291 36.564728 24.535767 35.40094 24.535767 33.986969 L 24.535767 26.542694 C 23.745667 26.528717 22.969543 26.279327 22.317719 25.849701 C 21.596756 25.371124 20.772461 25.132629 19.948944 25.132629 C 19.126205 25.132629 18.305008 25.371124 17.591034 25.849701 C 16.87706 26.321289 16.055878 26.556671 15.233917 26.556671 C 14.412735 26.556671 13.591537 26.321289 12.877563 25.849701 C 12.156601 25.371124 11.332306 25.132629 10.508789 25.132629 Z"/>
    <path id="Path-copy-6" fill="#f0c47f" fill-rule="evenodd" stroke="none" d="M 15.178757 6.082184 C 10.03566 6.082184 5.821732 9.81131 5.821732 14.385712 L 5.821732 18.863007 C 6.653793 18.863007 7.4711 18.613617 8.164871 18.156006 L 8.150894 18.156006 C 8.864868 17.685242 9.68605 17.449036 10.508789 17.449036 C 11.332306 17.449036 12.156601 17.685242 12.877563 18.156006 C 13.591537 18.627625 14.412735 18.863007 15.233917 18.863007 C 16.055878 18.863007 16.87706 18.627625 17.591034 18.156006 C 18.305008 17.685242 19.126205 17.449036 19.948944 17.449036 C 20.772461 17.449036 21.596756 17.685242 22.317719 18.156006 C 22.969543 18.59964 23.745667 18.849792 24.535767 18.863007 L 24.535767 14.385712 C 24.535767 9.81131 20.321854 6.082184 15.178757 6.082184 Z"/>
    <path id="Path-copy-5" fill="none" stroke="#f0c47f" stroke-linejoin="round" d="M 15.178757 6.082184 C 10.03566 6.082184 5.821732 9.81131 5.821732 14.385712 L 5.821732 18.863007 C 6.653793 18.863007 7.4711 18.613617 8.164871 18.156006 L 8.150894 18.156006 C 8.864868 17.685242 9.68605 17.449036 10.508789 17.449036 C 11.332306 17.449036 12.156601 17.685242 12.877563 18.156006 C 13.591537 18.627625 14.412735 18.863007 15.233917 18.863007 C 16.055878 18.863007 16.87706 18.627625 17.591034 18.156006 C 18.305008 17.685242 19.126205 17.449036 19.948944 17.449036 C 20.772461 17.449036 21.596756 17.685242 22.317719 18.156006 C 22.969543 18.59964 23.745667 18.849792 24.535767 18.863007 L 24.535767 14.385712 C 24.535767 9.81131 20.321854 6.082184 15.178757 6.082184 Z"/>
    <path id="Path-copy-4" fill="#f0c47f" fill-rule="evenodd" stroke="none" d="M 10.508789 17.449036 C 9.68605 17.449036 8.864868 17.685242 8.150894 18.156006 C 7.457901 18.613617 6.653793 18.863007 5.821732 18.863007 L 5.821732 26.556671 C 6.653793 26.556671 7.457901 26.307281 8.150894 25.835724 C 8.864868 25.364899 9.68605 25.128723 10.508789 25.128723 C 11.332306 25.128723 12.156601 25.364899 12.877563 25.835724 C 13.591537 26.31427 14.412735 26.553558 15.233917 26.553558 C 16.055878 26.553558 16.87706 26.31427 17.591034 25.835724 C 18.305008 25.364899 19.126205 25.128723 19.948944 25.128723 C 20.772461 25.128723 21.596756 25.364899 22.317719 25.835724 C 22.969543 26.279327 23.745667 26.528717 24.535767 26.542694 L 24.535767 18.863007 C 23.745667 18.849792 22.969543 18.59964 22.317719 18.156006 C 21.596756 17.685242 20.772461 17.449036 19.948944 17.449036 C 19.126205 17.449036 18.305008 17.685242 17.591034 18.156006 C 16.87706 18.627625 16.055878 18.863007 15.233917 18.863007 C 14.412735 18.863007 13.591537 18.627625 12.877563 18.156006 C 12.156601 17.685242 11.332306 17.449036 10.508789 17.449036 Z"/>
    <path id="Path-copy-3" fill="none" stroke="#f0c47f" stroke-linejoin="round" d="M 10.508789 17.449036 C 9.68605 17.449036 8.864868 17.685242 8.150894 18.156006 C 7.457901 18.613617 6.653793 18.863007 5.821732 18.863007 L 5.821732 26.556671 C 6.653793 26.556671 7.457901 26.307281 8.150894 25.835724 C 8.864868 25.364899 9.68605 25.128723 10.508789 25.128723 C 11.332306 25.128723 12.156601 25.364899 12.877563 25.835724 C 13.591537 26.31427 14.412735 26.553558 15.233917 26.553558 C 16.055878 26.553558 16.87706 26.31427 17.591034 25.835724 C 18.305008 25.364899 19.126205 25.128723 19.948944 25.128723 C 20.772461 25.128723 21.596756 25.364899 22.317719 25.835724 C 22.969543 26.279327 23.745667 26.528717 24.535767 26.542694 L 24.535767 18.863007 C 23.745667 18.849792 22.969543 18.59964 22.317719 18.156006 C 21.596756 17.685242 20.772461 17.449036 19.948944 17.449036 C 19.126205 17.449036 18.305008 17.685242 17.591034 18.156006 C 16.87706 18.627625 16.055878 18.863007 15.233917 18.863007 C 14.412735 18.863007 13.591537 18.627625 12.877563 18.156006 C 12.156601 17.685242 11.332306 17.449036 10.508789 17.449036 Z"/>
    <path id="Path-copy-2" fill="#ffffff" fill-opacity="0.3571" fill-rule="evenodd" stroke="none" d="M 10.549194 16.409546 C 9.81424 16.409546 9.218353 17.005432 9.218353 17.740387 L 9.204376 27.360779 C 9.204376 28.025787 9.745102 28.580505 10.424103 28.580505 L 11.463608 28.580505 C 12.573029 28.580505 13.47345 27.679291 13.47345 26.570648 L 13.487442 17.740387 C 13.487442 16.992249 12.891556 16.409546 12.156601 16.409546 Z"/>
    <path id="Path-copy" fill="#ffffff" fill-opacity="0.3571" fill-rule="evenodd" stroke="none" d="M 11.852051 8.395813 C 11.432526 8.395813 11.00679 8.55896 10.673492 8.924072 C 9.745102 9.950378 9.232346 11.267212 9.232346 12.653229 C 9.232346 13.429352 9.855423 14.053223 10.632324 14.0672 L 12.087463 14.0672 C 12.863586 14.0672 13.487442 13.429352 13.487442 12.653229 L 13.501419 10.033508 C 13.501419 9.045288 12.68956 8.395813 11.852051 8.395813 Z"/>
</svg>
