<?xml version="1.0" encoding="UTF-8"?>
<!-- Generated by Pixelmator Pro 3.4.1 -->
<svg width="57" height="114" viewBox="0 0 57 114" xmlns="http://www.w3.org/2000/svg">
    <path id="Path-copy-15" fill="#ffffff" fill-rule="evenodd" stroke="none" d="M 27.580292 6.778564 C 14.99884 6.778564 4.690369 15.89856 4.690369 27.085754 L 4.690369 75.022766 C 4.690369 78.480774 7.911774 81.326965 11.811646 81.326965 L 43.348969 81.326965 C 47.283051 81.326965 50.504425 78.480774 50.504425 75.022766 L 50.504425 27.085754 C 50.470215 15.89856 40.161774 6.778564 27.580292 6.778564 Z"/>
    <path id="Path-copy-14" fill="none" stroke="#ffffff" stroke-width="8" stroke-linejoin="round" d="M 27.580292 6.778564 C 14.99884 6.778564 4.690369 15.89856 4.690369 27.085754 L 4.690369 75.022766 C 4.690369 78.480774 7.911774 81.326965 11.811646 81.326965 L 43.348969 81.326965 C 47.283051 81.326965 50.504425 78.480774 50.504425 75.022766 L 50.504425 27.085754 C 50.470215 15.89856 40.161774 6.778564 27.580292 6.778564 Z"/>
    <path id="Path-copy-13" fill="#ffffff" fill-rule="evenodd" stroke="none" d="M 23.036163 81.326965 L 23.036163 85.225769 L 22.867004 104.753967 C 22.867004 107.092865 24.731415 109.025177 27.070953 109.025177 C 27.091858 109.025177 27.112762 109.025177 27.133667 109.025177 C 29.444733 109.025177 31.345245 107.140381 31.345245 104.820465 L 31.514404 85.294159 L 31.514404 81.395355 L 23.036163 81.326965 Z"/>
    <path id="Path-copy-12" fill="none" stroke="#ffffff" stroke-width="8" stroke-linejoin="round" d="M 23.036163 81.326965 L 23.036163 85.225769 L 22.867004 104.753967 C 22.867004 107.092865 24.731415 109.025177 27.070953 109.025177 C 27.091858 109.025177 27.112762 109.025177 27.133667 109.025177 C 29.444733 109.025177 31.345245 107.140381 31.345245 104.820465 L 31.514404 85.294159 L 31.514404 81.395355 L 23.036163 81.326965 Z"/>
    <path id="Path-copy-11" fill="#f0c47f" fill-rule="evenodd" stroke="none" d="M 23.070374 81.100861 L 22.867004 104.527863 C 22.867004 106.86676 24.731415 108.799072 27.070953 108.799072 C 27.091858 108.799072 27.112762 108.799072 27.133667 108.799072 C 29.444733 108.799072 31.345245 106.914276 31.345245 104.59436 L 31.548615 81.169281 L 23.070374 81.100861 Z"/>
    <path id="Path-copy-10" fill="#744242" fill-opacity="0.1741" fill-rule="evenodd" stroke="none" d="M 25.185638 87.017456 C 24.845459 87.017456 24.528076 87.28537 24.528076 87.67868 L 24.393127 103.815369 C 24.393127 104.527863 24.630676 105.206177 25.138123 105.71347 C 25.271179 105.85788 25.440308 105.922455 25.609467 105.922455 C 25.953461 105.922455 26.291748 105.648865 26.291748 105.238464 L 26.426697 89.035278 C 26.426697 88.356964 26.156799 87.67868 25.647461 87.203674 C 25.508728 87.074463 25.343384 87.017456 25.185638 87.017456 Z"/>
    <path id="Path-copy-9" fill="#744242" fill-opacity="0.1741" fill-rule="evenodd" stroke="none" d="M 23.070374 81.100861 L 23.036163 84.999664 L 31.514404 85.068054 L 31.548615 81.169281 L 23.070374 81.100861 Z"/>
    <path id="Path-copy-8" fill="#7cdcf3" fill-rule="evenodd" stroke="none" d="M 16.15625 53.368469 C 14.143585 53.368469 12.134735 53.951782 10.388153 55.122162 C 8.692902 56.241272 6.725861 56.851166 4.690369 56.851166 L 4.690369 75.022766 C 4.690369 78.480774 7.877563 81.326965 11.811646 81.326965 L 43.348969 81.326965 C 47.283051 81.326965 50.470215 78.480774 50.470215 75.022766 L 50.470215 56.816956 C 48.537384 56.782776 46.638763 56.172852 45.04422 55.122162 C 43.280548 53.951782 41.264099 53.368469 39.249542 53.368469 C 37.236877 53.368469 35.228027 53.951782 33.481445 55.122162 C 31.734863 56.275452 29.726013 56.851166 27.71524 56.851166 C 25.70639 56.851166 23.69754 56.275452 21.950958 55.122162 C 20.187256 53.951782 18.170807 53.368469 16.15625 53.368469 Z"/>
    <path id="Path-copy-7" fill="none" stroke="#7cdcf3" stroke-linejoin="round" d="M 16.15625 53.368469 C 14.143585 53.368469 12.134735 53.951782 10.388153 55.122162 C 8.692902 56.241272 6.725861 56.851166 4.690369 56.851166 L 4.690369 75.022766 C 4.690369 78.480774 7.877563 81.326965 11.811646 81.326965 L 43.348969 81.326965 C 47.283051 81.326965 50.470215 78.480774 50.470215 75.022766 L 50.470215 56.816956 C 48.537384 56.782776 46.638763 56.172852 45.04422 55.122162 C 43.280548 53.951782 41.264099 53.368469 39.249542 53.368469 C 37.236877 53.368469 35.228027 53.951782 33.481445 55.122162 C 31.734863 56.275452 29.726013 56.851166 27.71524 56.851166 C 25.70639 56.851166 23.69754 56.275452 21.950958 55.122162 C 20.187256 53.951782 18.170807 53.368469 16.15625 53.368469 Z"/>
    <path id="Path-copy-6" fill="#84d161" fill-rule="evenodd" stroke="none" d="M 27.580292 6.778564 C 14.99884 6.778564 4.690369 15.89856 4.690369 27.085754 L 4.690369 38.035461 C 6.725861 38.035461 8.725189 37.425568 10.422363 36.306458 L 10.388153 36.306458 C 12.134735 35.15506 14.143585 34.577454 16.15625 34.577454 C 18.170807 34.577454 20.187256 35.15506 21.950958 36.306458 C 23.69754 37.459778 25.70639 38.035461 27.71524 38.035461 C 29.726013 38.035461 31.734863 37.459778 33.481445 36.306458 C 35.228027 35.15506 37.236877 34.577454 39.249542 34.577454 C 41.264099 34.577454 43.280548 35.15506 45.04422 36.306458 C 46.638763 37.391357 48.537384 38.003174 50.470215 38.035461 L 50.470215 27.085754 C 50.470215 15.89856 40.161774 6.778564 27.580292 6.778564 Z"/>
    <path id="Path-copy-5" fill="none" stroke="#84d161" stroke-linejoin="round" d="M 27.580292 6.778564 C 14.99884 6.778564 4.690369 15.89856 4.690369 27.085754 L 4.690369 38.035461 C 6.725861 38.035461 8.725189 37.425568 10.422363 36.306458 L 10.388153 36.306458 C 12.134735 35.15506 14.143585 34.577454 16.15625 34.577454 C 18.170807 34.577454 20.187256 35.15506 21.950958 36.306458 C 23.69754 37.459778 25.70639 38.035461 27.71524 38.035461 C 29.726013 38.035461 31.734863 37.459778 33.481445 36.306458 C 35.228027 35.15506 37.236877 34.577454 39.249542 34.577454 C 41.264099 34.577454 43.280548 35.15506 45.04422 36.306458 C 46.638763 37.391357 48.537384 38.003174 50.470215 38.035461 L 50.470215 27.085754 C 50.470215 15.89856 40.161774 6.778564 27.580292 6.778564 Z"/>
    <path id="Path-copy-4" fill="#ff9900" fill-rule="evenodd" stroke="none" d="M 16.15625 34.577454 C 14.143585 34.577454 12.134735 35.15506 10.388153 36.306458 C 8.692902 37.425568 6.725861 38.035461 4.690369 38.035461 L 4.690369 56.851166 C 6.725861 56.851166 8.692902 56.241272 10.388153 55.087952 C 12.134735 53.936584 14.143585 53.358948 16.15625 53.358948 C 18.170807 53.358948 20.187256 53.936584 21.950958 55.087952 C 23.69754 56.258362 25.70639 56.843567 27.71524 56.843567 C 29.726013 56.843567 31.734863 56.258362 33.481445 55.087952 C 35.228027 53.936584 37.236877 53.358948 39.249542 53.358948 C 41.264099 53.358948 43.280548 53.936584 45.04422 55.087952 C 46.638763 56.172852 48.537384 56.782776 50.470215 56.816956 L 50.470215 38.035461 C 48.537384 38.003174 46.638763 37.391357 45.04422 36.306458 C 43.280548 35.15506 41.264099 34.577454 39.249542 34.577454 C 37.236877 34.577454 35.228027 35.15506 33.481445 36.306458 C 31.734863 37.459778 29.726013 38.035461 27.71524 38.035461 C 25.70639 38.035461 23.69754 37.459778 21.950958 36.306458 C 20.187256 35.15506 18.170807 34.577454 16.15625 34.577454 Z"/>
    <path id="Path-copy-3" fill="none" stroke="#ff9900" stroke-linejoin="round" d="M 16.15625 34.577454 C 14.143585 34.577454 12.134735 35.15506 10.388153 36.306458 C 8.692902 37.425568 6.725861 38.035461 4.690369 38.035461 L 4.690369 56.851166 C 6.725861 56.851166 8.692902 56.241272 10.388153 55.087952 C 12.134735 53.936584 14.143585 53.358948 16.15625 53.358948 C 18.170807 53.358948 20.187256 53.936584 21.950958 55.087952 C 23.69754 56.258362 25.70639 56.843567 27.71524 56.843567 C 29.726013 56.843567 31.734863 56.258362 33.481445 55.087952 C 35.228027 53.936584 37.236877 53.358948 39.249542 53.358948 C 41.264099 53.358948 43.280548 53.936584 45.04422 55.087952 C 46.638763 56.172852 48.537384 56.782776 50.470215 56.816956 L 50.470215 38.035461 C 48.537384 38.003174 46.638763 37.391357 45.04422 36.306458 C 43.280548 35.15506 41.264099 34.577454 39.249542 34.577454 C 37.236877 34.577454 35.228027 35.15506 33.481445 36.306458 C 31.734863 37.459778 29.726013 38.035461 27.71524 38.035461 C 25.70639 38.035461 23.69754 37.459778 21.950958 36.306458 C 20.187256 35.15506 18.170807 34.577454 16.15625 34.577454 Z"/>
    <path id="Path-copy-2" fill="#ffffff" fill-opacity="0.3571" fill-rule="evenodd" stroke="none" d="M 16.255066 32.035278 C 14.457184 32.035278 12.999481 33.492554 12.999481 35.289978 L 12.965271 58.817688 C 12.965271 60.444061 14.288025 61.800659 15.949097 61.800659 L 18.492004 61.800659 C 21.205933 61.800659 23.408661 59.59668 23.408661 56.885376 L 23.442871 35.289978 C 23.442871 33.460266 21.985168 32.035278 20.187256 32.035278 Z"/>
    <path id="Path-copy" fill="#ffffff" fill-opacity="0.3571" fill-rule="evenodd" stroke="none" d="M 19.442261 12.436768 C 18.415985 12.436768 17.374481 12.835754 16.559174 13.72876 C 14.288025 16.238647 13.033691 19.459167 13.033691 22.848755 C 13.033691 24.746887 14.557922 26.272583 16.458435 26.306763 L 20.018127 26.306763 C 21.916748 26.306763 23.442871 24.746887 23.442871 22.848755 L 23.477081 16.441956 C 23.477081 14.025146 21.491028 12.436768 19.442261 12.436768 Z"/>
</svg>
