<?xml version="1.0" encoding="UTF-8"?>
<!-- Generated by Pixelmator Pro 3.4.1 -->
<svg width="83" height="117" viewBox="0 0 83 117" xmlns="http://www.w3.org/2000/svg">
    <path id="Path-copy-31" fill="#ffffff" fill-rule="evenodd" stroke="none" d="M 42.109619 6.83313 C 41.779419 6.83313 41.489929 7.032166 41.36554 7.373688 C 41.284119 7.534241 41.284119 7.735535 41.36554 7.936829 C 37.409851 7.936829 33.494873 8.62439 29.742737 9.915833 C 29.702026 9.834412 29.661316 9.752991 29.582153 9.71228 C 29.450989 9.581085 29.274597 9.52002 29.098145 9.52002 C 28.892334 9.52002 28.684265 9.60144 28.532776 9.752991 L 27.725342 10.682526 C 24.25592 12.134521 20.985535 14.151917 18.119995 16.614899 L 16.102539 17.218781 C 15.740662 17.340912 15.498718 17.78418 15.618591 18.186768 C 15.659302 18.39032 15.819824 18.550903 16.023376 18.632324 C 14.528442 20.165741 13.157837 21.819031 11.986328 23.553741 C 11.932007 23.544678 11.882263 23.537903 11.83252 23.537903 C 11.699097 23.537903 11.581482 23.576355 11.461609 23.635162 C 11.181152 23.836456 11.099731 24.200562 11.301025 24.483276 C -2.74176 46.557281 10.857727 75.773651 36.765259 79.202362 L 36.724548 82.271484 L 36.602417 90.58313 C 36.602417 92.964691 35.998535 95.305542 34.908447 97.4021 C 34.141724 98.897064 33.698425 100.550354 33.698425 102.205902 C 33.617004 107.088867 36.643127 111.083008 40.435974 111.123718 C 40.474426 111.123718 40.512878 111.125977 40.551331 111.125977 C 44.294373 111.125977 47.417786 107.240417 47.458496 102.447906 C 47.539917 100.751648 47.175781 99.098358 46.409058 97.605652 C 45.400391 95.466095 44.875671 93.125275 44.916382 90.743713 L 45.117676 79.405914 C 57.667725 78.114502 68.643616 70.325287 73.972168 58.865356 C 79.298401 47.403137 78.208313 34.007202 71.065918 23.553741 L 70.217773 21.658447 C 70.125061 21.375732 69.858154 21.215149 69.593567 21.215149 C 69.518921 21.215149 69.442017 21.228729 69.371887 21.253601 C 67.392944 18.792908 65.092834 16.614899 62.509949 14.758057 L 61.460571 13.14325 C 61.333923 12.939697 61.109985 12.831116 60.867981 12.831116 C 60.730042 12.831116 60.585266 12.86731 60.451843 12.941956 C 60.372681 13.023376 60.29126 13.102539 60.250549 13.22464 C 58.918396 12.417236 57.588562 11.691223 56.215698 11.044373 C 56.215698 11.003662 56.215698 10.96521 56.256409 10.9245 C 56.297119 10.478973 56.014404 10.117096 55.609558 10.035675 L 52.140137 9.551697 C 50.405457 8.986267 48.627808 8.583679 46.852356 8.341675 C 46.773193 8.140381 46.571899 8.01825 46.368347 7.977539 C 45.036255 7.735535 43.70636 7.373688 42.414917 6.887421 C 42.310913 6.851227 42.209106 6.83313 42.109619 6.83313 Z"/>
    <path id="Path-copy-30" fill="none" stroke="#ffffff" stroke-width="8" stroke-linejoin="round" d="M 42.109619 6.83313 C 41.779419 6.83313 41.489929 7.032166 41.36554 7.373688 C 41.284119 7.534241 41.284119 7.735535 41.36554 7.936829 C 37.409851 7.936829 33.494873 8.62439 29.742737 9.915833 C 29.702026 9.834412 29.661316 9.752991 29.582153 9.71228 C 29.450989 9.581085 29.274597 9.52002 29.098145 9.52002 C 28.892334 9.52002 28.684265 9.60144 28.532776 9.752991 L 27.725342 10.682526 C 24.25592 12.134521 20.985535 14.151917 18.119995 16.614899 L 16.102539 17.218781 C 15.740662 17.340912 15.498718 17.78418 15.618591 18.186768 C 15.659302 18.39032 15.819824 18.550903 16.023376 18.632324 C 14.528442 20.165741 13.157837 21.819031 11.986328 23.553741 C 11.932007 23.544678 11.882263 23.537903 11.83252 23.537903 C 11.699097 23.537903 11.581482 23.576355 11.461609 23.635162 C 11.181152 23.836456 11.099731 24.200562 11.301025 24.483276 C -2.74176 46.557281 10.857727 75.773651 36.765259 79.202362 L 36.724548 82.271484 L 36.602417 90.58313 C 36.602417 92.964691 35.998535 95.305542 34.908447 97.4021 C 34.141724 98.897064 33.698425 100.550354 33.698425 102.205902 C 33.617004 107.088867 36.643127 111.083008 40.435974 111.123718 C 40.474426 111.123718 40.512878 111.125977 40.551331 111.125977 C 44.294373 111.125977 47.417786 107.240417 47.458496 102.447906 C 47.539917 100.751648 47.175781 99.098358 46.409058 97.605652 C 45.400391 95.466095 44.875671 93.125275 44.916382 90.743713 L 45.117676 79.405914 C 57.667725 78.114502 68.643616 70.325287 73.972168 58.865356 C 79.298401 47.403137 78.208313 34.007202 71.065918 23.553741 L 70.217773 21.658447 C 70.125061 21.375732 69.858154 21.215149 69.593567 21.215149 C 69.518921 21.215149 69.442017 21.228729 69.371887 21.253601 C 67.392944 18.792908 65.092834 16.614899 62.509949 14.758057 L 61.460571 13.14325 C 61.333923 12.939697 61.109985 12.831116 60.867981 12.831116 C 60.730042 12.831116 60.585266 12.86731 60.451843 12.941956 C 60.372681 13.023376 60.29126 13.102539 60.250549 13.22464 C 58.918396 12.417236 57.588562 11.691223 56.215698 11.044373 C 56.215698 11.003662 56.215698 10.96521 56.256409 10.9245 C 56.297119 10.478973 56.014404 10.117096 55.609558 10.035675 L 52.140137 9.551697 C 50.405457 8.986267 48.627808 8.583679 46.852356 8.341675 C 46.773193 8.140381 46.571899 8.01825 46.368347 7.977539 C 45.036255 7.735535 43.70636 7.373688 42.414917 6.887421 C 42.310913 6.851227 42.209106 6.83313 42.109619 6.83313 Z"/>
    <path id="Path-copy-29" fill="#f0c47f" fill-rule="evenodd" stroke="none" d="M 36.765259 78.234375 L 36.563965 90.62384 C 36.563965 93.005402 35.957825 95.346252 34.867737 97.483521 C 34.101013 98.937775 33.698425 100.591064 33.657715 102.246613 C 33.576294 107.129578 36.602417 111.123718 40.435974 111.164429 C 40.476685 111.164429 40.515137 111.164429 40.553589 111.164429 C 44.294373 111.164429 47.379333 107.31958 47.458496 102.488617 C 47.499207 100.833069 47.135071 99.139069 46.409058 97.646362 C 45.35968 95.506805 44.875671 93.125275 44.916382 90.743713 L 45.117676 78.397217 L 36.765259 78.234375 Z"/>
    <path id="Path-copy-28" fill="#744242" fill-opacity="0.1741" fill-rule="evenodd" stroke="none" d="M 36.765259 78.234375 L 36.724548 82.309906 L 45.076965 82.472748 L 45.158386 78.356506 L 36.765259 78.234375 Z"/>
    <path id="Path-copy-27" fill="#744242" fill-opacity="0.1741" fill-rule="evenodd" stroke="none" d="M 37.394043 98.141663 C 37.172363 98.141663 36.955261 98.254761 36.844421 98.492249 C 36.199829 99.663788 35.876404 100.9552 35.876404 102.285065 C 35.835693 105.351898 37.369141 108.016174 39.427246 108.742157 C 39.501892 108.769318 39.57428 108.780609 39.646667 108.780609 C 40.01532 108.780609 40.336487 108.461731 40.23468 108.056885 C 39.630798 104.86792 38.864136 101.721924 38.015991 98.61438 C 37.927795 98.304504 37.65863 98.141663 37.394043 98.141663 Z"/>
    <path id="Path-copy-26" fill="#ff8fc0" fill-rule="evenodd" stroke="none" d="M 29.080078 52.905823 C 28.853882 52.905823 28.627747 52.928436 28.40155 52.973663 C 26.746033 53.29483 25.655884 54.749084 24.568054 56.040527 C 23.604553 57.225647 22.301819 58.410767 20.784241 58.410767 C 20.64856 58.410767 20.510559 58.399445 20.370361 58.381348 C 17.706116 58.017212 16.819519 54.183655 14.155273 53.740356 C 13.965271 53.70871 13.777527 53.695129 13.589844 53.695129 C 12.587891 53.695129 11.624451 54.088684 10.604431 54.224365 C 10.405396 54.247009 10.20636 54.258301 10.005066 54.258301 C 8.828979 54.258301 7.661987 53.857971 6.730164 53.134247 L 6.730164 53.134247 C 10.765015 68.065857 23.921204 78.718384 39.377502 79.566498 C 40.008545 79.600433 40.639526 79.616272 41.265991 79.616272 C 55.982788 79.616272 69.306335 70.62381 74.686829 56.76651 L 74.686829 56.76651 C 73.881714 57.379425 72.931763 57.739014 71.941162 57.739014 C 71.886902 57.739014 71.8349 57.736755 71.782837 57.734497 C 70.086609 57.693787 68.471741 56.886383 66.859192 56.282501 C 65.782593 55.852783 64.599731 55.511292 63.450806 55.511292 C 62.876343 55.511292 62.310913 55.597229 61.774902 55.798523 C 59.669312 56.646637 58.140381 59.21817 56.041565 59.21817 C 55.844788 59.21817 55.645752 59.195557 55.437683 59.148071 C 53.580872 58.743225 52.814148 56.483795 51.079468 55.757813 C 50.706238 55.608521 50.333069 55.542938 49.9599 55.542938 C 48.207092 55.542938 46.528931 57.035645 45.429749 58.501221 C 44.097656 60.276611 42.68634 62.416168 40.38623 62.576752 C 40.282166 62.585815 40.18042 62.590332 40.078613 62.590332 C 38.343933 62.590332 36.778809 61.323792 35.82666 59.914764 C 34.817932 58.422058 34.211853 56.685089 33.121704 55.233093 C 32.169556 53.962036 30.658752 52.905823 29.080078 52.905823 Z"/>
    <path id="Path-copy-25" fill="#744242" fill-rule="evenodd" stroke="none" d="M 41.440186 7.932312 C 27.435852 7.932312 14.727478 16.114441 8.878784 28.886444 C 9.471313 29.013123 10.061584 29.07196 10.645142 29.07196 C 11.181152 29.07196 11.710388 29.022156 12.228333 28.927185 C 12.915833 28.859314 13.617004 28.784668 14.299988 28.784668 C 15.263489 28.784668 16.188477 28.931702 16.991394 29.451965 C 19.210083 30.863556 19.574219 34.537231 22.116394 35.263397 C 22.36969 35.335785 22.622986 35.367462 22.874023 35.367462 C 24.466248 35.367462 25.983826 34.039581 26.958618 32.680054 C 28.12793 31.105591 29.218018 29.207672 31.115601 28.644409 C 31.504578 28.519958 31.898132 28.46344 32.289429 28.46344 C 34.205017 28.46344 36.098083 29.804871 37.572693 31.146301 C 39.388794 32.799927 41.284119 34.738586 43.74707 34.738586 C 43.771973 34.738586 43.799072 34.738586 43.826233 34.738586 C 46.210022 34.738586 48.084961 32.985413 49.880737 31.469788 C 51.402832 30.148712 53.268738 28.854797 55.188904 28.854797 C 55.555298 28.854797 55.926208 28.902283 56.297119 29.006348 C 58.479675 29.657837 60.008545 32.055695 62.159424 32.055695 C 62.27478 32.055695 62.392334 32.048889 62.509949 32.033081 C 64.043396 31.872467 65.092834 30.499329 66.547058 30.015259 C 66.938354 29.890839 67.334106 29.836548 67.732178 29.836548 C 69.012268 29.836548 70.299194 30.399811 71.468506 30.985718 C 72.759888 31.630432 74.092041 32.356567 75.505554 32.519409 C 70.742493 18.028198 57.305847 8.178894 42.050842 7.936829 C 41.84729 7.93457 41.643738 7.932312 41.440186 7.932312 Z"/>
    <path id="Path-copy-24" fill="#f0c47f" fill-rule="evenodd" stroke="none" d="M 32.312012 28.301056 C 31.900391 28.301056 31.486511 28.363342 31.07489 28.501709 C 29.218018 29.076019 28.12793 30.969604 26.958618 32.616455 C 25.947632 34.002625 24.457214 35.356506 22.846863 35.356506 C 22.591309 35.356506 22.335754 35.324219 22.075684 35.250427 C 19.574219 34.51004 19.210083 30.764343 16.991394 29.325134 C 16.188477 28.794617 15.249878 28.644714 14.28418 28.644714 C 13.598877 28.644714 12.900024 28.720825 12.228333 28.790039 C 11.719421 28.882263 11.210571 28.923798 10.706177 28.923798 C 10.088745 28.923798 9.478088 28.861511 8.878784 28.748505 C 5.409363 36.484375 4.72406 45.251221 6.902039 53.439148 C 7.833862 54.214142 9.003174 54.627014 10.181458 54.627014 C 10.380493 54.627014 10.579529 54.615479 10.776306 54.592407 C 11.773682 54.451721 12.76886 54.013489 13.791138 54.013489 C 13.969788 54.013489 14.148499 54.027313 14.327148 54.057312 C 16.991394 54.509369 17.877991 58.418823 20.582947 58.790161 C 20.718628 58.810913 20.85437 58.820129 20.987793 58.820129 C 22.473694 58.820129 23.778687 57.611572 24.778381 56.402954 C 25.827759 55.127502 26.917908 53.605225 28.573486 53.275391 C 28.799622 53.229279 29.025818 53.206238 29.251953 53.206238 C 30.830627 53.206238 32.341431 54.283325 33.293579 55.579559 C 34.383728 57.060303 34.989868 58.831665 36.039246 60.353943 C 37.005005 61.811615 38.563293 63.119385 40.322876 63.119385 C 40.39978 63.119385 40.478943 63.117065 40.558105 63.110168 C 42.858215 62.946411 44.269531 60.764496 45.601624 58.912415 C 46.698547 57.422424 48.394836 55.934753 50.129517 55.934753 C 50.504944 55.934753 50.880432 56.001648 51.251343 56.156189 C 52.986023 56.855042 53.752747 59.15918 55.609558 59.613586 C 55.804077 59.65509 55.991821 59.675842 56.174988 59.675842 C 58.294189 59.675842 59.829895 57.030334 61.946838 56.197693 C 62.487366 55.976257 63.057312 55.884033 63.636292 55.884033 C 64.780701 55.884033 65.959045 56.239197 67.031067 56.64978 C 68.643616 57.267883 70.258484 58.088989 71.993164 58.130493 C 72.047485 58.132813 72.099487 58.135132 72.151489 58.135132 C 73.144409 58.135132 74.094299 57.768402 74.899475 57.143341 C 77.925598 49.241394 78.126892 40.476868 75.505554 32.369629 C 74.092041 32.245117 72.759888 31.50473 71.468506 30.847382 C 70.301453 30.282288 68.991943 29.717224 67.720886 29.717224 C 67.322815 29.717224 66.92926 29.772583 66.547058 29.899414 C 65.092834 30.393005 64.004944 31.79303 62.509949 31.956787 C 62.392334 31.972931 62.27478 31.979858 62.159424 31.979858 C 60.00177 31.979858 58.400513 29.535004 56.256409 28.870728 C 55.892273 28.764648 55.525879 28.716217 55.161743 28.716217 C 53.257446 28.716217 51.368958 30.035522 49.880737 31.382477 C 48.084961 32.927795 46.130859 34.715332 43.785522 34.715332 C 43.758362 34.715332 43.731262 34.715332 43.70636 34.715332 C 41.324829 34.673798 39.348083 32.738678 37.572693 31.052673 C 36.109375 29.661865 34.236694 28.301056 32.312012 28.301056 Z"/>
    <path id="Path-copy-23" fill="#f0c47f" fill-rule="evenodd" stroke="none" d="M 35.702271 10.913208 C 35.654785 10.913208 35.605042 10.915466 35.552979 10.9245 L 31.316895 11.367798 C 30.226746 11.485413 30.337585 13.027893 31.362122 13.027893 C 31.400574 13.027893 31.439026 13.025635 31.477478 13.023376 L 35.71582 12.57782 C 36.794678 12.462463 36.695129 10.913208 35.702271 10.913208 Z"/>
    <path id="Path-copy-22" fill="#f0c47f" fill-rule="evenodd" stroke="none" d="M 44.633667 15.513489 C 44.337341 15.513489 44.052429 15.723816 43.989075 16.008789 C 43.866943 16.370667 44.068237 16.775482 44.432373 16.895355 C 45.522461 17.259491 46.531189 17.743469 47.458496 18.39032 C 47.589661 18.487579 47.741211 18.532806 47.890442 18.532806 C 48.107605 18.532806 48.324707 18.435547 48.467224 18.268188 C 48.709229 17.944763 48.627808 17.460754 48.26593 17.259491 C 47.216492 16.533478 46.085632 15.968079 44.875671 15.565491 C 44.796509 15.529297 44.715088 15.513489 44.633667 15.513489 Z"/>
    <path id="Path-copy-21" fill="#f0c47f" fill-rule="evenodd" stroke="none" d="M 53.680359 18.973816 C 53.379578 18.973816 53.096863 19.138947 52.947571 19.439758 C 52.422852 20.649719 51.656189 21.699158 50.685913 22.626465 C 50.364746 22.94989 50.364746 23.433868 50.647461 23.757294 C 50.80127 23.954041 51.036438 24.055847 51.273926 24.055847 C 51.472961 24.055847 51.669739 23.983459 51.816772 23.836456 C 52.947571 22.787048 53.834167 21.497864 54.440308 20.125031 C 54.641602 19.681763 54.440308 19.195496 53.997009 19.034912 C 53.890686 18.994202 53.784424 18.973816 53.680359 18.973816 Z"/>
    <path id="Path-copy-20" fill="#f0c47f" fill-rule="evenodd" stroke="none" d="M 43.229126 11.293152 C 43.161316 11.293152 43.091187 11.304474 43.018799 11.327087 C 41.849548 11.650513 40.718689 12.175232 39.709961 12.819824 C 39.388794 13.023376 39.307373 13.466644 39.549377 13.79007 C 39.673767 13.964233 39.879578 14.061462 40.092224 14.061462 C 40.22113 14.061462 40.354553 14.027527 40.476685 13.950653 C 41.36554 13.344513 42.333496 12.901245 43.382935 12.61853 C 43.74707 12.498657 43.948364 12.134521 43.866943 11.811096 C 43.769714 11.487671 43.514099 11.293152 43.229126 11.293152 Z"/>
    <path id="Path-copy-19" fill="#f0c47f" fill-rule="evenodd" stroke="none" d="M 23.959656 14.782959 C 23.866882 14.782959 23.77417 14.801025 23.690491 14.837219 C 23.326355 15.040771 23.244934 15.443359 23.448486 15.766785 C 24.052368 16.775482 24.819092 17.662048 25.748596 18.349609 C 25.868469 18.453644 26.02002 18.505676 26.169312 18.505676 C 26.366089 18.505676 26.560547 18.412933 26.675903 18.227478 C 26.877197 17.944763 26.798035 17.582886 26.55603 17.340912 C 25.748596 16.734772 25.061096 15.968079 24.536377 15.081482 C 24.396118 14.882446 24.176758 14.782959 23.959656 14.782959 Z"/>
    <path id="Path-copy-18" fill="#f0c47f" fill-rule="evenodd" stroke="none" d="M 16.860229 21.50238 C 16.489319 21.50238 16.111633 21.805481 16.18396 22.30304 L 16.991394 25.611877 C 17.061523 25.928497 17.344238 26.152405 17.629211 26.152405 C 17.67218 26.152405 17.715149 26.147888 17.758118 26.136597 C 18.119995 26.057434 18.362 25.693298 18.282837 25.331421 L 17.475403 21.981873 C 17.375916 21.649414 17.1203 21.50238 16.860229 21.50238 Z"/>
    <path id="Path-copy-17" fill="#f0c47f" fill-rule="evenodd" stroke="none" d="M 28.772461 23.508484 C 28.47168 23.508484 28.179932 23.673615 28.008057 23.958557 C 27.806763 24.361145 27.967346 24.845154 28.369934 25.089417 L 32.124329 27.106842 C 32.248718 27.156616 32.368591 27.181458 32.47937 27.181458 C 33.243835 27.181458 33.669006 26.104919 32.931702 25.611877 L 29.136597 23.594452 C 29.019043 23.535645 28.894592 23.508484 28.772461 23.508484 Z"/>
    <path id="Path-copy-16" fill="#f0c47f" fill-rule="evenodd" stroke="none" d="M 37.156555 20.645203 C 37.133911 20.645203 37.111328 20.647461 37.086426 20.649719 C 35.917114 20.728882 34.747864 21.011597 33.657715 21.536316 C 33.293579 21.658447 33.173706 22.061035 33.33429 22.425171 C 33.454163 22.63324 33.682617 22.753113 33.924622 22.753113 C 34.010559 22.753113 34.098755 22.739532 34.182434 22.707886 C 35.150452 22.264587 36.159119 22.020325 37.167847 21.941162 C 37.531982 21.900452 37.773987 21.617737 37.773987 21.294312 C 37.773987 20.916626 37.491272 20.645203 37.156555 20.645203 Z"/>
    <path id="Path-copy-15" fill="#f0c47f" fill-rule="evenodd" stroke="none" d="M 45.762207 23.69397 C 45.015869 23.69397 44.475342 24.818024 45.31897 25.369873 L 49.073303 27.952698 C 49.256531 28.097473 49.441956 28.158508 49.618408 28.158508 C 50.376038 28.158508 50.932434 27.025421 50.082031 26.500702 L 46.327637 23.917847 C 46.139954 23.759552 45.945435 23.69397 45.762207 23.69397 Z"/>
    <path id="Path-copy-14" fill="#f0c47f" fill-rule="evenodd" stroke="none" d="M 62.661499 20.846497 C 62.638855 20.846497 62.614014 20.848755 62.59137 20.851013 C 62.227234 20.891724 61.985229 21.174438 62.02594 21.536316 L 62.308655 24.806702 C 62.326782 25.200256 62.616272 25.383423 62.912537 25.383423 C 63.25177 25.383423 63.602356 25.13916 63.559387 24.68457 L 63.276672 21.416443 C 63.240479 21.113403 62.989441 20.846497 62.661499 20.846497 Z"/>
    <path id="Path-copy-13" fill="#f0c47f" fill-rule="evenodd" stroke="none" d="M 66.574219 24.734314 C 66.3797 24.734314 66.191956 24.815735 66.063049 24.967285 C 65.255676 25.774719 64.326111 26.459991 63.276672 26.90329 C 62.914795 27.066132 62.751953 27.468689 62.874084 27.832825 C 62.993958 28.131378 63.269897 28.298737 63.550354 28.298737 C 63.649841 28.298737 63.74939 28.278381 63.842102 28.235413 C 65.052124 27.710693 66.182922 26.90329 67.110229 25.935303 C 67.392944 25.652588 67.352234 25.168579 67.071777 24.926575 C 66.920227 24.79541 66.743835 24.734314 66.574219 24.734314 Z"/>
    <path id="Path-copy-12" fill="#f0c47f" fill-rule="evenodd" stroke="none" d="M 56.32428 15.875336 C 55.851563 15.875336 55.396973 16.366119 55.731689 16.895355 L 57.42572 19.923737 C 57.565918 20.190613 57.787598 20.301453 58.009216 20.301453 C 58.488708 20.301453 58.968201 19.788025 58.635681 19.236206 L 56.901001 16.210083 C 56.751709 15.972595 56.536865 15.875336 56.32428 15.875336 Z"/>
    <path id="Path-copy-11" fill="#f0c47f" fill-rule="evenodd" stroke="none" d="M 60.88385 12.849213 C 60.377197 12.849213 59.879639 13.419159 60.250549 13.991364 L 62.349365 17.098907 C 62.496399 17.379333 62.720276 17.492432 62.941956 17.492432 C 63.457642 17.492432 63.971008 16.881775 63.518677 16.291504 L 61.460571 13.183929 C 61.309021 12.946472 61.096436 12.849213 60.88385 12.849213 Z"/>
    <path id="Path-copy-10" fill="#f0c47f" fill-rule="evenodd" stroke="none" d="M 51.538574 9.447632 C 50.817078 9.447632 50.624817 10.967468 51.452637 11.003662 L 55.367554 11.569092 C 55.381165 11.569092 55.394714 11.57135 55.408264 11.57135 C 56.260925 11.57135 56.444153 10.313843 55.568848 10.076385 L 51.696899 9.470276 C 51.64032 9.454407 51.588318 9.447632 51.538574 9.447632 Z"/>
    <path id="Path-copy-9" fill="#f0c47f" fill-rule="evenodd" stroke="none" d="M 50.145386 12.675049 C 49.593506 12.675049 49.141174 13.396545 49.677185 13.869232 L 52.219299 16.250793 L 52.180847 16.250793 C 52.327881 16.381958 52.488464 16.436218 52.642273 16.436218 C 53.191833 16.436218 53.646423 15.714752 53.108154 15.242065 L 50.60675 12.860535 C 50.457458 12.72934 50.296875 12.675049 50.145386 12.675049 Z"/>
    <path id="Path-copy-8" fill="#f0c47f" fill-rule="evenodd" stroke="none" d="M 42.109619 6.83313 C 41.777161 6.83313 41.480896 7.032166 41.324829 7.373688 C 41.164246 7.816956 41.40625 8.300964 41.849548 8.461548 C 43.222351 8.945557 44.633667 9.350403 46.085632 9.633118 C 46.133118 9.639893 46.178406 9.644409 46.223633 9.644409 C 46.610352 9.644409 46.94281 9.343597 47.015198 8.945557 C 47.09436 8.502258 46.813904 8.09967 46.368347 7.977539 C 44.997803 7.735535 43.70636 7.373688 42.414917 6.887421 C 42.310913 6.851227 42.209106 6.83313 42.109619 6.83313 Z"/>
    <path id="Path-copy-7" fill="#f0c47f" fill-rule="evenodd" stroke="none" d="M 29.046143 9.506439 C 28.847107 9.506439 28.657166 9.58786 28.532776 9.752991 L 25.94989 12.659241 C 25.432007 13.208801 25.94989 13.918976 26.531189 13.918976 C 26.718872 13.918976 26.913391 13.84436 27.08075 13.667938 L 29.622864 10.761658 C 29.90332 10.478973 29.90332 9.994965 29.582153 9.71228 C 29.426086 9.576538 29.231628 9.506439 29.046143 9.506439 Z"/>
    <path id="Path-copy-6" fill="#f0c47f" fill-rule="evenodd" stroke="none" d="M 20.132874 16.054016 C 20.058228 16.054016 19.979065 16.065308 19.897644 16.09021 L 16.061829 17.218781 C 15.659302 17.340912 15.458008 17.78418 15.577881 18.186768 C 15.679626 18.521484 15.998535 18.743164 16.333252 18.743164 C 16.40564 18.743164 16.475708 18.7341 16.548096 18.711487 L 20.340942 17.582886 C 21.225281 17.325073 20.931274 16.054016 20.132874 16.054016 Z"/>
    <path id="Path-copy-5" fill="#f0c47f" fill-rule="evenodd" stroke="none" d="M 69.546082 21.233276 C 69.446533 21.233276 69.344788 21.253601 69.249756 21.294312 C 68.88562 21.457153 68.725037 21.859741 68.88562 22.223877 L 70.421326 25.611877 C 70.545715 25.921722 70.789978 26.050629 71.036499 26.050629 C 71.500122 26.050629 71.975098 25.600555 71.71051 25.048706 L 70.217773 21.658447 C 70.100159 21.391571 69.826477 21.233276 69.546082 21.233276 Z"/>
    <path id="Path-copy-4" fill="#f0c47f" fill-rule="evenodd" stroke="none" d="M 11.739807 23.551483 C 11.633484 23.551483 11.522644 23.578613 11.423157 23.635162 C 11.140442 23.836456 11.059021 24.200562 11.260315 24.483276 C 11.866455 25.369873 12.633118 26.177307 13.481262 26.864838 C 13.598877 26.948517 13.730042 26.989227 13.858948 26.989227 C 14.037659 26.989227 14.209534 26.907806 14.327148 26.742706 C 14.528442 26.500702 14.48999 26.136597 14.247986 25.894592 C 13.481262 25.29071 12.793701 24.603149 12.228333 23.798004 C 12.124268 23.639679 11.936523 23.551483 11.739807 23.551483 Z"/>
    <path id="Path-copy-3" fill="#f0c47f" fill-rule="evenodd" stroke="none" d="M 23.932495 25.976013 C 23.527649 26.016724 23.244934 26.299438 23.285645 26.661285 L 23.367065 30.051544 C 23.387451 30.485779 23.704041 30.698364 24.025208 30.698364 C 24.359924 30.698364 24.699219 30.465454 24.699219 30.010834 L 24.577087 26.622833 C 24.577087 26.258728 24.294373 25.976013 23.932495 25.976013 Z"/>
    <path id="Path-copy-2" fill="#ffffff" fill-opacity="0.3571" fill-rule="evenodd" stroke="none" d="M 58.999817 63.119568 C 58.868652 63.119568 58.732971 63.126343 58.59729 63.142181 C 57.38501 63.223602 56.215698 63.62619 55.207031 64.313721 C 54.239014 64.999023 53.47229 65.847137 52.90686 66.855865 C 51.58606 69.155975 53.445129 71.768219 55.767883 71.768219 C 56.215698 71.768219 56.679382 71.67099 57.143005 71.456116 C 58.55658 70.768555 59.847961 69.922699 61.017273 68.914001 C 63.373901 66.903351 61.95813 63.119568 58.999817 63.119568 Z"/>
    <path id="Path-copy" fill="#ffffff" fill-opacity="0.3571" fill-rule="evenodd" stroke="none" d="M 14.108459 39.329041 L 14.108459 39.329041 C 12.099915 37.822632 14.165588 31.680298 18.72229 25.609711 L 18.72229 25.609711 C 23.278931 19.539124 28.601135 15.839111 30.60968 17.34552 L 30.60968 17.34552 C 32.618164 18.851929 30.55249 24.994293 25.99585 31.06488 L 25.99585 31.06488 C 21.439148 37.135468 16.117004 40.835449 14.108459 39.329041 Z"/>
</svg>
