<?xml version="1.0" encoding="UTF-8"?>
<!-- Generated by Pixelmator Pro 3.4.1 -->
<svg width="60" height="118" viewBox="0 0 60 118" xmlns="http://www.w3.org/2000/svg">
    <path id="Path-copy-17" fill="#ffffff" fill-rule="evenodd" stroke="none" d="M 34.530792 84.561829 L 24.428452 84.636658 L 24.576706 107.204315 C 24.685806 109.926636 26.942917 112.074219 29.665268 112.073547 C 32.423737 112.036713 34.643616 109.851837 34.715195 107.129486 L 34.565964 88.681458 L 34.530792 84.561829 Z"/>
    <path id="Path-copy-16" fill="none" stroke="#ffffff" stroke-width="8" stroke-linejoin="round" d="M 34.530792 84.561829 L 24.428452 84.636658 L 24.576706 107.204315 C 24.685806 109.926636 26.942917 112.074219 29.665268 112.073547 C 32.423737 112.036713 34.643616 109.851837 34.715195 107.129486 L 34.565964 88.681458 L 34.530792 84.561829 Z"/>
    <path id="Path-copy-15" fill="#ffffff" fill-rule="evenodd" stroke="none" d="M 28.850922 7.866333 C 15.777298 7.976074 5.284149 18.689392 5.39386 31.728882 L 5.765244 79.120789 C 5.766022 82.214539 8.27417 84.709381 11.359894 84.708588 C 11.381973 84.708588 11.404068 84.706573 11.426147 84.706573 L 47.605499 84.446442 C 50.687195 84.41153 53.194061 81.867249 53.15715 78.785553 L 52.822189 32.505859 C 50.601715 32.361877 47.806519 30.035767 46.481049 28.315552 C 45.119446 26.597351 44.259674 24.589966 43.327637 22.620728 C 42.431732 20.651459 41.355148 18.680237 39.744659 17.213074 C 37.987579 15.60141 35.694656 14.742737 33.616455 13.56076 C 31.574402 12.378784 29.317291 10.195068 28.923203 7.866333 Z"/>
    <path id="Path-copy-14" fill="none" stroke="#ffffff" stroke-width="8" stroke-linejoin="round" d="M 28.850922 7.866333 C 15.777298 7.976074 5.284149 18.689392 5.39386 31.728882 L 5.765244 79.120789 C 5.766022 82.214539 8.27417 84.709381 11.359894 84.708588 C 11.381973 84.708588 11.404068 84.706573 11.426147 84.706573 L 47.605499 84.446442 C 50.687195 84.41153 53.194061 81.867249 53.15715 78.785553 L 52.822189 32.505859 C 50.601715 32.361877 47.806519 30.035767 46.481049 28.315552 C 45.119446 26.597351 44.259674 24.589966 43.327637 22.620728 C 42.431732 20.651459 41.355148 18.680237 39.744659 17.213074 C 37.987579 15.60141 35.694656 14.742737 33.616455 13.56076 C 31.574402 12.378784 29.317291 10.195068 28.923203 7.866333 Z"/>
    <path id="Path-copy-13" fill="#f0c47f" fill-rule="evenodd" stroke="none" d="M 34.530533 84.507294 L 24.428177 84.582123 L 24.576447 107.14978 C 24.613281 109.922302 26.870422 112.164246 29.634918 112.163544 C 29.657013 112.163544 29.679092 112.163544 29.701172 112.163544 C 32.459656 112.162842 34.715637 109.869568 34.714935 107.074951 L 34.530533 84.507294 Z"/>
    <path id="Path-copy-12" fill="#744242" fill-opacity="0.1741" fill-rule="evenodd" stroke="none" d="M 34.58374 84.507263 L 24.4814 84.618225 L 24.518585 88.774017 L 34.65506 88.663025 L 34.58374 84.507263 Z"/>
    <path id="Path-copy-11" fill="#744242" fill-opacity="0.1741" fill-rule="evenodd" stroke="none" d="M 27.043549 90.240936 C 26.435242 90.277252 25.933472 90.779266 25.933624 91.387573 L 26.082321 107.793854 C 26.082565 108.761536 26.654953 109.584503 27.514313 109.977783 C 27.596634 110.011902 27.682968 110.027924 27.767288 110.027924 C 28.130676 110.027832 28.481934 109.738647 28.481827 109.333099 L 28.334732 91.35083 C 28.334579 90.742523 27.832535 90.240753 27.224228 90.240906 Z"/>
    <path id="Path-copy-10" fill="#744242" fill-rule="evenodd" stroke="none" d="M 28.849594 7.851563 C 15.77597 7.961304 5.282822 18.674622 5.358398 31.714142 L 5.727768 79.106049 C 5.764694 82.199768 8.23671 84.694641 11.322433 84.693848 C 11.344513 84.693848 11.366608 84.691833 11.388687 84.691833 L 47.568024 84.431702 C 50.649719 84.39679 53.156601 81.852478 53.11969 78.770782 L 52.784729 32.491089 C 51.216843 32.770569 49.602753 32.919556 47.996658 32.919952 C 47.550964 32.920044 47.10527 32.910156 46.659561 32.886169 C 43.864899 32.708191 40.999786 31.741241 39.029785 29.699982 C 37.668243 28.266907 36.772385 26.440186 35.48111 24.972931 C 34.334427 23.648193 32.866608 22.680878 31.683777 21.35614 C 29.928604 19.348969 29.06665 16.662964 28.780899 14.013 C 28.599686 11.93515 28.599167 9.893372 28.849594 7.851563 Z"/>
    <path id="Path-copy-9" fill="none" stroke="#744242" stroke-linejoin="round" d="M 28.849594 7.851563 C 15.77597 7.961304 5.282822 18.674622 5.358398 31.714142 L 5.727768 79.106049 C 5.764694 82.199768 8.23671 84.694641 11.322433 84.693848 C 11.344513 84.693848 11.366608 84.691833 11.388687 84.691833 L 47.568024 84.431702 C 50.649719 84.39679 53.156601 81.852478 53.11969 78.770782 L 52.784729 32.491089 C 51.216843 32.770569 49.602753 32.919556 47.996658 32.919952 C 47.550964 32.920044 47.10527 32.910156 46.659561 32.886169 C 43.864899 32.708191 40.999786 31.741241 39.029785 29.699982 C 37.668243 28.266907 36.772385 26.440186 35.48111 24.972931 C 34.334427 23.648193 32.866608 22.680878 31.683777 21.35614 C 29.928604 19.348969 29.06665 16.662964 28.780899 14.013 C 28.599686 11.93515 28.599167 9.893372 28.849594 7.851563 Z"/>
    <path id="Path-copy-8" fill="#744242" fill-rule="evenodd" stroke="none" d="M 28.849594 7.851563 C 28.6353 9.893372 28.599686 11.93515 28.780899 14.013 C 29.06665 16.662964 29.962738 19.348938 31.71991 21.35614 C 32.866608 22.680878 34.37056 23.648193 35.517242 24.9729 C 36.842651 26.440155 37.668243 28.266907 39.065918 29.699982 C 40.999786 31.741241 43.864899 32.708191 46.695694 32.886169 C 47.139389 32.910126 47.585083 32.920044 48.028778 32.919922 C 49.626846 32.919556 51.22287 32.770569 52.820862 32.491089 C 50.600403 32.347107 47.805191 30.020996 46.479721 28.300781 C 45.118118 26.582611 44.258347 24.575195 43.326309 22.605957 C 42.430405 20.636719 41.353821 18.665466 39.743332 17.198303 C 37.986252 15.586639 35.693329 14.727966 33.615143 13.546021 C 31.57309 12.364014 29.315964 10.180298 28.921875 7.851563 Z"/>
    <path id="Path-copy-7" fill="none" stroke="#744242" stroke-linejoin="round" d="M 28.849594 7.851563 C 28.6353 9.893372 28.599686 11.93515 28.780899 14.013 C 29.06665 16.662964 29.962738 19.348938 31.71991 21.35614 C 32.866608 22.680878 34.37056 23.648193 35.517242 24.9729 C 36.842651 26.440155 37.668243 28.266907 39.065918 29.699982 C 40.999786 31.741241 43.864899 32.708191 46.695694 32.886169 C 47.139389 32.910126 47.585083 32.920044 48.028778 32.919922 C 49.626846 32.919556 51.22287 32.770569 52.820862 32.491089 C 50.600403 32.347107 47.805191 30.020996 46.479721 28.300781 C 45.118118 26.582611 44.258347 24.575195 43.326309 22.605957 C 42.430405 20.636719 41.353821 18.665466 39.743332 17.198303 C 37.986252 15.586639 35.693329 14.727966 33.615143 13.546021 C 31.57309 12.364014 29.315964 10.180298 28.921875 7.851563 Z"/>
    <path id="Path-copy-6" fill="#744242" fill-opacity="0.1741" fill-rule="evenodd" stroke="none" d="M 29.016846 7.836487 C 28.802536 9.878296 28.766922 11.920044 28.948135 13.997864 C 29.233887 16.647888 30.129974 19.333862 31.887146 21.341034 C 33.033844 22.665771 34.537796 23.633057 35.684494 24.957825 C 37.009888 26.425049 37.835495 28.25177 39.233154 29.684875 C 41.167023 31.726135 44.03215 32.693085 46.862946 32.871033 C 47.306625 32.89502 47.752335 32.904938 48.196014 32.904846 C 49.794083 32.904419 51.390106 32.755463 52.988098 32.476013 C 50.767639 32.332001 47.972427 30.005859 46.646957 28.285675 C 45.285355 26.567505 44.425583 24.560089 43.493546 22.590851 C 42.597641 20.621582 41.521057 18.650391 39.910568 17.183228 C 38.153488 15.571533 35.860565 14.71286 33.782379 13.530884 C 31.740326 12.348938 29.4832 10.165192 29.089111 7.836426 Z"/>
    <path id="Path-copy-5" fill="#ffffff" fill-opacity="0.3571" fill-rule="evenodd" stroke="none" d="M 21.974487 43.49469 C 21.954407 43.49469 21.932327 43.49469 21.910248 43.49469 L 17.503525 43.531952 C 15.497894 43.532471 13.8862 45.181152 13.886703 47.186768 L 14.108231 73.659241 C 14.108704 75.522308 15.614792 76.989502 17.475861 76.989044 L 20.30661 76.988312 C 23.352173 76.987549 25.822922 74.479401 25.786011 71.399689 L 25.601181 47.111511 C 25.600677 45.127991 23.98613 43.494171 21.974487 43.49469 Z"/>
    <path id="Path-copy-4" fill="#ffffff" fill-opacity="0.3571" fill-rule="evenodd" stroke="none" d="M 20.92894 21.409058 C 19.766525 21.409363 18.586166 21.869385 17.676971 22.899536 C 15.136032 25.728943 13.739655 29.419312 13.776764 33.217712 C 13.811417 35.329712 15.532394 37.049835 17.680557 37.049286 L 21.657654 37.012146 C 23.8078 36.975464 25.525894 35.2565 25.489212 33.106323 L 25.451248 25.87085 C 25.428467 23.16861 23.207596 21.408508 20.92894 21.409058 Z"/>
    <path id="Path-copy-3" fill="#ff8fc0" fill-rule="evenodd" stroke="none" d="M 31.969467 15.839111 C 32.291031 17.200195 32.935791 18.418671 33.831467 19.492523 C 34.333511 20.064575 34.871689 20.566345 35.443985 21.068115 C 35.803406 21.31897 36.12471 21.603973 36.448013 21.927124 C 37.020599 23.575226 37.201736 25.329834 37.057632 27.084534 C 37.595886 27.909546 38.204407 28.732513 38.849045 29.521362 C 38.849045 29.521362 38.742004 27.013855 39.600967 25.831146 C 39.994629 26.475494 40.460571 27.119812 40.998749 27.693848 C 40.926682 28.480896 40.712204 29.805969 39.925385 30.522888 C 40.461533 30.952393 41.071945 31.311584 41.716476 31.632629 C 42.647888 31.166626 43.39856 30.415588 43.86409 29.483948 C 42.82576 27.944336 41.893799 26.296326 41.176636 24.575989 L 40.782944 23.789093 C 40.065826 22.213287 39.13385 20.458862 37.84465 19.276672 C 36.734207 18.381592 35.551529 17.665161 34.262482 17.055176 C 33.581818 16.734131 32.935272 16.374908 32.220459 15.981598 L 31.969467 15.839111 Z"/>
    <path id="Path-copy-2" fill="#ff8fc0" fill-rule="evenodd" stroke="none" d="M 39.969833 30.336212 L 40.192444 61.070892 C 40.192596 61.663147 40.640366 61.95813 41.088074 61.958008 C 41.535767 61.957916 41.983398 61.662689 41.983246 61.070435 L 41.760925 31.445984 C 41.116394 31.124939 40.542114 30.765686 39.969833 30.336212 Z"/>
    <path id="Path-copy" fill="#ff8fc0" fill-rule="evenodd" stroke="none" d="M 37.074417 26.93103 L 37.22467 49.428436 C 37.224823 50.018677 37.672592 50.31369 38.1203 50.313568 C 38.567993 50.313477 39.015625 50.01825 39.015472 49.427979 L 38.865829 29.367828 C 38.221191 28.578979 37.612686 27.792175 37.074417 26.93103 Z"/>
</svg>
